<?xml version="1.0" encoding="UTF-8" standalone="no"?>
<!-- Created with Inkscape (http://www.inkscape.org/) -->

<svg
   width="119.99999"
   height="75"
   viewBox="0 0 31.749998 19.84375"
   version="1.1"
   id="svg1"
   xml:space="preserve"
   xmlns="http://www.w3.org/2000/svg"
   xmlns:svg="http://www.w3.org/2000/svg"><defs
     id="defs1" /><g
     id="layer1"
     transform="translate(-2.6458335,-45.044349)"><rect
       style="fill:#2f5da6;fill-opacity:1;stroke-width:0.141926"
       id="rect3"
       width="31.749998"
       height="19.843752"
       x="2.6458335"
       y="45.04435"
       ry="1.2577364" /><path
       style="font-weight:bold;font-size:24.6389px;line-height:22.1749px;font-family:'IBM Plex Sans';-inkscape-font-specification:'IBM Plex Sans Bold';text-align:center;text-anchor:middle;fill:#ffffff;stroke-width:0.484307"
       d="m 5.1542307,46.367248 h 8.3525873 q 2.143584,0 3.326252,1.207306 1.207306,1.207306 1.207306,3.203057 0,0.985556 -0.271028,1.675446 -0.246389,0.689889 -0.689889,1.133389 -0.418862,0.4435 -1.010195,0.66525 -0.566695,0.197112 -1.231945,0.22175 v 0.147834 q 0.615972,0 1.281223,0.22175 0.689889,0.22175 1.256584,0.714528 0.566694,0.468139 0.936278,1.231945 0.394222,0.763806 0.394222,1.872557 0,1.010194 -0.344944,1.921834 -0.320306,0.887 -0.91164,1.552251 -0.591333,0.66525 -1.404417,1.059472 -0.813084,0.369584 -1.774001,0.369584 H 5.1542307 Z m 3.745113,14.044174 h 4.3118073 q 0.739167,0 1.158029,-0.394223 0.4435,-0.418861 0.4435,-1.158028 v -0.837723 q 0,-0.739167 -0.4435,-1.133389 -0.418862,-0.418862 -1.158029,-0.418862 H 8.8993437 Z m 0,-6.997448 h 3.7204743 q 0.739167,0 1.158028,-0.418862 0.418861,-0.418861 0.418861,-1.158028 v -0.739167 q 0,-0.739167 -0.418861,-1.158028 -0.418861,-0.418862 -1.158028,-0.418862 H 8.8993437 Z M 21.588374,63.565201 V 46.367248 h 3.745113 v 13.871701 h 6.553947 v 3.326252 z"
       id="text3"
       aria-label="BL" /></g></svg>
