<?xml version="1.0" encoding="UTF-8" standalone="no"?>
<!-- Created with Inkscape (http://www.inkscape.org/) -->

<svg
   width="431.24335"
   height="100"
   viewBox="0 0 114.0998 26.458333"
   version="1.1"
   id="svg1"
   xml:space="preserve"
   xmlns="http://www.w3.org/2000/svg"
   xmlns:svg="http://www.w3.org/2000/svg"><defs
     id="defs1" /><g
     id="layer1"
     transform="translate(-49.408364,-73.420909)"><rect
       style="fill:#7b388c;fill-opacity:1;stroke-width:0.31067"
       id="rect18"
       width="114.09981"
       height="26.458336"
       x="49.408363"
       y="73.420914"
       ry="1.6769819" /><path
       style="font-weight:bold;font-size:24.6389px;line-height:22.1749px;font-family:'IBM Plex Sans';-inkscape-font-specification:'IBM Plex Sans Bold';text-align:center;text-anchor:middle;fill:#ffffff;stroke-width:0.484307"
       d="m 51.821514,93.265627 v -17.19795 h 11.40781 v 3.32625 h -7.6627 v 3.52336 h 6.52931 v 3.30161 h -6.52931 v 7.04673 z m 16.0399,-14.3152 c -0.73917,0 -1.28122,-0.16426 -1.62617,-0.49278 -0.32851,-0.34495 -0.49277,-0.78023 -0.49277,-1.30586 v -0.54206 c 0,-0.52563 0.16426,-0.9527 0.49277,-1.28122 0.34495,-0.34495 0.887,-0.51742 1.62617,-0.51742 0.73917,0 1.27301,0.17247 1.60153,0.51742 0.34495,0.32852 0.51742,0.75559 0.51742,1.28122 v 0.54206 c 0,0.52563 -0.17247,0.96091 -0.51742,1.30586 -0.32852,0.32852 -0.86236,0.49278 -1.60153,0.49278 z m -1.82328,1.37978 h 3.64656 v 12.93542 h -3.64656 z m 11.58027,12.93542 c -1.2648,0 -2.22572,-0.32031 -2.88275,-0.96092 -0.64061,-0.64061 -0.96092,-1.57688 -0.96092,-2.80883 v -6.3322 h -1.82328 v -2.83347 h 0.91164 c 0.49278,0 0.82951,-0.11498 1.0102,-0.34495 0.18068,-0.24639 0.27102,-0.59133 0.27102,-1.03483 v -2.11895 h 3.27698 v 3.49873 h 2.56244 v 2.83347 h -2.56244 v 7.26848 h 2.36533 v 2.83347 z m 10.02802,0.29567 c -0.96913,0 -1.83149,-0.15605 -2.58708,-0.46814 -0.75559,-0.32852 -1.38799,-0.78023 -1.8972,-1.35514 -0.5092,-0.59133 -0.89521,-1.30586 -1.15803,-2.14359 -0.26281,-0.83772 -0.39422,-1.774 -0.39422,-2.80883 0,-1.03483 0.13141,-1.9629 0.39422,-2.7842 0.26282,-0.83772 0.64883,-1.55225 1.15803,-2.14358 0.50921,-0.59133 1.14161,-1.04305 1.8972,-1.35514 0.75559,-0.31209 1.61795,-0.46814 2.58708,-0.46814 1.31407,0 2.4064,0.29567 3.27698,0.887 0.887,0.59133 1.5194,1.42084 1.89719,2.48853 l -2.95667,1.28122 c -0.11498,-0.49277 -0.35315,-0.91163 -0.71452,-1.25658 -0.36137,-0.34495 -0.86237,-0.51742 -1.50298,-0.51742 -0.73917,0 -1.29765,0.24639 -1.67544,0.73917 -0.3778,0.47635 -0.5667,1.12518 -0.5667,1.94647 v 2.41461 c 0,0.8213 0.1889,1.47013 0.5667,1.94648 0.37779,0.47635 0.93627,0.71453 1.67544,0.71453 0.65704,0 1.17446,-0.17247 1.55225,-0.51742 0.39423,-0.36137 0.68168,-0.82951 0.86236,-1.40442 l 2.83348,1.23195 c -0.42707,1.23194 -1.09232,2.13537 -1.99575,2.71028 -0.887,0.57491 -1.97111,0.86236 -3.25234,0.86236 z m 7.51487,-18.52846 h 3.64656 v 7.49023 h 0.147836 c 0.22996,-0.67347 0.63239,-1.25659 1.2073,-1.74936 0.57491,-0.49278 1.37156,-0.73917 2.38997,-0.73917 1.33051,0 2.33249,0.4435 3.00596,1.3305 0.68989,0.887 1.03483,2.1518 1.03483,3.79439 v 8.1062 h -3.64656 v -7.81053 c 0,-0.83773 -0.13141,-1.4537 -0.39423,-1.84792 -0.26281,-0.41065 -0.73095,-0.61597 -1.40441,-0.61597 -0.29567,0 -0.58312,0.0411 -0.86236,0.12319 -0.27925,0.0657 -0.53385,0.18072 -0.76381,0.34495 -0.21354,0.16426 -0.38601,0.36958 -0.51742,0.61597 -0.131406,0.22996 -0.197106,0.50099 -0.197106,0.81308 v 8.37723 h -3.64656 z m 14.684806,0 h 3.64656 v 7.46559 h 0.12319 c 0.18069,-0.72274 0.59134,-1.31407 1.23195,-1.774 0.65703,-0.45993 1.40441,-0.68989 2.24214,-0.68989 1.64259,0 2.88275,0.57491 3.72047,1.72472 0.83772,1.14982 1.25658,2.82527 1.25658,5.02634 0,2.20107 -0.41886,3.88473 -1.25658,5.05097 -0.83772,1.14982 -2.07788,1.72473 -3.72047,1.72473 -0.42708,0 -0.82952,-0.0657 -1.20731,-0.19711 -0.3778,-0.11499 -0.72274,-0.27925 -1.03483,-0.49278 -0.29567,-0.22997 -0.55027,-0.49278 -0.76381,-0.78845 -0.21354,-0.31209 -0.36959,-0.64061 -0.46814,-0.98555 h -0.12319 v 2.16822 h -3.64656 z m 6.03653,15.57179 c 0.68989,0 1.25658,-0.23818 1.70008,-0.71453 0.45993,-0.49278 0.68989,-1.14982 0.68989,-1.97111 v -2.24214 c 0,-0.8213 -0.22996,-1.47012 -0.68989,-1.94647 -0.4435,-0.49278 -1.01019,-0.73917 -1.70008,-0.73917 -0.68989,0 -1.26479,0.17247 -1.72472,0.51742 -0.4435,0.32851 -0.66525,0.78844 -0.66525,1.37977 v 3.81903 c 0,0.59133 0.22175,1.05947 0.66525,1.40442 0.45993,0.32852 1.03483,0.49278 1.72472,0.49278 z m 16.58197,0.49278 h -0.12319 c -0.11498,0.32851 -0.27103,0.64061 -0.46814,0.93628 -0.18069,0.29567 -0.41886,0.55848 -0.71453,0.78844 -0.29567,0.22996 -0.64882,0.41065 -1.05947,0.54206 -0.39422,0.13141 -0.85415,0.19711 -1.37978,0.19711 -1.3305,0 -2.34069,-0.43529 -3.03058,-1.30586 -0.67347,-0.88701 -1.0102,-2.15181 -1.0102,-3.7944 v -8.13083 h 3.64656 v 7.81053 c 0,0.78845 0.13962,1.39621 0.41886,1.82328 0.27924,0.42707 0.75559,0.64061 1.42906,0.64061 0.27924,0 0.55848,-0.0411 0.83772,-0.1232 0.27924,-0.0821 0.52563,-0.19711 0.73917,-0.34494 0.21353,-0.16426 0.386,-0.36137 0.51741,-0.59133 0.13141,-0.22997 0.19711,-0.501 0.19711,-0.81309 v -8.40186 h 3.64656 v 12.93542 h -3.64656 z m 7.04675,2.16822 v -12.93542 h 3.64656 v 2.80883 h 0.12319 c 0.0657,-0.36137 0.18072,-0.70631 0.34495,-1.03483 0.16426,-0.34495 0.3778,-0.64883 0.64061,-0.91164 0.27924,-0.26281 0.60776,-0.46814 0.98555,-0.61597 0.3778,-0.16426 0.8213,-0.24639 1.33051,-0.24639 h 0.64061 v 3.40017 h -0.91164 c -1.06769,0 -1.86435,0.13962 -2.38998,0.41886 -0.5092,0.27924 -0.7638,0.79666 -0.7638,1.55225 v 7.56414 z m 21.58367,0.93628 c 0,0.68989 -0.1232,1.29765 -0.36959,1.82328 -0.22996,0.52563 -0.61597,0.96913 -1.15802,1.3305 -0.54206,0.37779 -1.2648,0.65703 -2.16823,0.83772 -0.887,0.19711 -1.98754,0.29567 -3.30161,0.29567 -1.11696,0 -2.06966,-0.0739 -2.85811,-0.22175 -0.77202,-0.13141 -1.40442,-0.32852 -1.8972,-0.59134 -0.47635,-0.24639 -0.82951,-0.55848 -1.05947,-0.93627 -0.21354,-0.36137 -0.32031,-0.78024 -0.32031,-1.25659 0,-0.72274 0.21354,-1.28943 0.64062,-1.70008 0.42707,-0.41065 1.01841,-0.66526 1.774,-0.76381 v -0.27103 c -0.62419,-0.11498 -1.09233,-0.37779 -1.40442,-0.78844 -0.31209,-0.42707 -0.46814,-0.91985 -0.46814,-1.47834 0,-0.34494 0.0657,-0.64061 0.19711,-0.887 0.14783,-0.26281 0.32852,-0.48456 0.54206,-0.66525 0.22996,-0.19711 0.49277,-0.35315 0.78844,-0.46814 0.29567,-0.11498 0.59133,-0.20532 0.887,-0.27102 v -0.0986 c -0.78844,-0.36137 -1.37156,-0.85414 -1.74936,-1.47833 -0.37779,-0.64061 -0.56669,-1.37978 -0.56669,-2.2175 0,-1.31408 0.45171,-2.36534 1.35514,-3.15378 0.91985,-0.80487 2.31605,-1.20731 4.18861,-1.20731 0.85415,0 1.5851,0.0821 2.19286,0.24639 v -0.49278 c 0,-0.68989 0.16426,-1.18266 0.49278,-1.47833 0.34495,-0.31209 0.82951,-0.46814 1.45369,-0.46814 h 2.04503 v 2.71028 h -2.85811 v 0.14783 c 0.75559,0.36137 1.31408,0.86236 1.67545,1.50297 0.36137,0.62419 0.54205,1.35514 0.54205,2.19287 0,1.29765 -0.45993,2.34069 -1.37978,3.12914 -0.90343,0.77201 -2.29142,1.15802 -4.16397,1.15802 -0.83773,0 -1.60153,-0.0903 -2.29142,-0.27102 -0.37779,0.24639 -0.56669,0.59133 -0.56669,1.03483 0,0.31209 0.11498,0.55848 0.34494,0.73917 0.24639,0.16426 0.64882,0.24639 1.20731,0.24639 h 3.74511 c 1.57689,0 2.71849,0.32852 3.42481,0.98555 0.72274,0.65704 1.08411,1.58511 1.08411,2.7842 z m -3.42481,0.49278 c 0,-0.3778 -0.14783,-0.66526 -0.4435,-0.86237 -0.29567,-0.19711 -0.81308,-0.29566 -1.55225,-0.29566 h -4.435 c -0.16426,0.16426 -0.28746,0.34494 -0.36959,0.54205 -0.0657,0.21354 -0.0985,0.41887 -0.0985,0.61598 0,0.47635 0.20532,0.82129 0.61597,1.03483 0.41065,0.22996 1.10875,0.34494 2.09431,0.34494 h 1.47833 c 0.98556,0 1.68366,-0.11498 2.09431,-0.34494 0.41065,-0.21354 0.61597,-0.55848 0.61597,-1.03483 z m -3.52336,-8.40187 c 0.72274,0 1.25658,-0.14783 1.60153,-0.4435 0.36137,-0.31209 0.54205,-0.75559 0.54205,-1.3305 v -0.29567 c 0,-0.57491 -0.18068,-1.01019 -0.54205,-1.30586 -0.34495,-0.31209 -0.87879,-0.46814 -1.60153,-0.46814 -0.72274,0 -1.2648,0.15605 -1.62617,0.46814 -0.34495,0.29567 -0.51742,0.73095 -0.51742,1.30586 v 0.29567 c 0,0.57491 0.17247,1.01841 0.51742,1.3305 0.36137,0.29567 0.90343,0.4435 1.62617,0.4435 z"
       id="text18"
       aria-label="CR-Fitchburg" /></g></svg>
