<?xml version="1.0" encoding="UTF-8" standalone="no"?>
<!-- Created with Inkscape (http://www.inkscape.org/) -->

<svg
   width="584.99994"
   height="100"
   viewBox="0 0 154.78123 26.458333"
   version="1.1"
   id="svg1"
   xml:space="preserve"
   xmlns="http://www.w3.org/2000/svg"
   xmlns:svg="http://www.w3.org/2000/svg"><defs
     id="defs1" /><g
     id="layer1"
     transform="translate(-57.214402,-157.72181)"><rect
       style="fill:#7b388c;fill-opacity:1;stroke-width:0.361839"
       id="rect18"
       width="154.78123"
       height="26.458336"
       x="57.214401"
       y="157.72182"
       ry="1.6769819" /><path
       style="font-weight:bold;font-size:24.6389px;line-height:22.1749px;font-family:'IBM Plex Sans';-inkscape-font-specification:'IBM Plex Sans Bold';text-align:center;text-anchor:middle;fill:#ffffff;stroke-width:0.484307"
       d="m 66.14583,177.86222 q -1.74936,0 -3.15378,-0.54206 -1.40441,-0.56669 -2.38997,-1.65081 -0.98556,-1.10875 -1.52761,-2.73491 -0.54206,-1.65081 -0.54206,-3.84367 0,-2.16823 0.54206,-3.84367 0.54205,-1.70008 1.52761,-2.83347 0.98556,-1.15803 2.38997,-1.74937 1.40442,-0.59133 3.15378,-0.59133 2.38998,0 3.94223,0.98556 1.55225,0.96091 2.48853,3.05522 l -3.2277,1.67545 q -0.34494,-1.08412 -1.08411,-1.72473 -0.71453,-0.66525 -2.11895,-0.66525 -1.6508,0 -2.661,1.08411 -0.98555,1.05948 -0.98555,3.10451 v 2.75955 q 0,2.04503 0.98555,3.12914 1.0102,1.05948 2.661,1.05948 1.37978,0 2.19287,-0.73917 0.83772,-0.76381 1.23194,-1.82328 l 3.05522,1.774 q -0.96091,1.97111 -2.5378,3.05522 -1.55225,1.05948 -3.94223,1.05948 z m 12.83689,-0.29567 H 75.23761 V 160.3686 h 8.15548 q 1.18266,0 2.14358,0.39422 0.96092,0.39422 1.62617,1.13339 0.68989,0.71453 1.05947,1.72472 0.36959,1.0102 0.36959,2.24214 0,1.74936 -0.78845,3.05523 -0.76381,1.30586 -2.3407,1.89719 l 3.37553,6.75106 h -4.16397 l -3.00595,-6.30756 h -2.68564 z m 3.94223,-9.46134 q 0.83772,0 1.30586,-0.41886 0.49278,-0.4435 0.49278,-1.28122 v -1.08411 q 0,-0.83773 -0.49278,-1.25659 -0.46814,-0.4435 -1.30586,-0.4435 h -3.94223 v 4.48428 z m 7.95837,3.72048 v -3.54801 h 7.31776 v 3.54801 z m 10.52081,5.74086 V 160.3686 h 11.40781 v 3.32625 h -7.6627 v 3.52336 h 6.52931 v 3.30161 h -6.52931 v 7.04673 z m 16.0399,-14.3152 q -1.10875,0 -1.62617,-0.49278 -0.49277,-0.51742 -0.49277,-1.30586 v -0.54206 q 0,-0.78844 0.49277,-1.28122 0.51742,-0.51742 1.62617,-0.51742 1.10875,0 1.60153,0.51742 0.51742,0.49278 0.51742,1.28122 v 0.54206 q 0,0.78844 -0.51742,1.30586 -0.49278,0.49278 -1.60153,0.49278 z m -1.82328,1.37978 h 3.64656 v 12.93542 h -3.64656 z m 11.58027,12.93542 q -1.8972,0 -2.88275,-0.96092 -0.96092,-0.96091 -0.96092,-2.80883 v -6.3322 h -1.82328 v -2.83347 h 0.91164 q 0.73917,0 1.0102,-0.34495 0.27102,-0.36958 0.27102,-1.03483 v -2.11895 h 3.27698 v 3.49873 h 2.56244 v 2.83347 h -2.56244 v 7.26848 h 2.36533 v 2.83347 z m 10.02802,0.29567 q -1.45369,0 -2.58708,-0.46814 -1.13339,-0.49278 -1.8972,-1.35514 -0.7638,-0.887 -1.15803,-2.14359 -0.39422,-1.25658 -0.39422,-2.80883 0,-1.55225 0.39422,-2.7842 0.39423,-1.25658 1.15803,-2.14358 0.76381,-0.887 1.8972,-1.35514 1.13339,-0.46814 2.58708,-0.46814 1.97111,0 3.27698,0.887 1.3305,0.887 1.89719,2.48853 l -2.95667,1.28122 q -0.17247,-0.73916 -0.71452,-1.25658 -0.54206,-0.51742 -1.50298,-0.51742 -1.10875,0 -1.67544,0.73917 -0.5667,0.71453 -0.5667,1.94647 v 2.41461 q 0,1.23195 0.5667,1.94648 0.56669,0.71453 1.67544,0.71453 0.98556,0 1.55225,-0.51742 0.59134,-0.54206 0.86236,-1.40442 l 2.83348,1.23195 q -0.64061,1.84791 -1.99575,2.71028 -1.3305,0.86236 -3.25234,0.86236 z m 7.51487,-18.52846 h 3.64656 v 7.49023 h 0.14784 q 0.34494,-1.0102 1.2073,-1.74936 0.86236,-0.73917 2.38997,-0.73917 1.99576,0 3.00596,1.3305 1.03483,1.3305 1.03483,3.79439 v 8.1062 h -3.64656 v -7.81053 q 0,-1.25659 -0.39423,-1.84792 -0.39422,-0.61597 -1.40441,-0.61597 -0.4435,0 -0.86236,0.12319 -0.41887,0.0986 -0.76381,0.34495 -0.32031,0.24639 -0.51742,0.61597 -0.19711,0.34494 -0.19711,0.81308 v 8.37723 h -3.64656 z m 14.68481,0 h 3.64656 v 7.46559 h 0.12319 q 0.27103,-1.08411 1.23195,-1.774 0.98555,-0.68989 2.24214,-0.68989 2.46389,0 3.72047,1.72472 1.25658,1.72473 1.25658,5.02634 0,3.30161 -1.25658,5.05097 -1.25658,1.72473 -3.72047,1.72473 -0.64062,0 -1.20731,-0.19711 -0.5667,-0.17248 -1.03483,-0.49278 -0.4435,-0.34495 -0.76381,-0.78845 -0.32031,-0.46814 -0.46814,-0.98555 h -0.12319 v 2.16822 h -3.64656 z m 6.03653,15.57179 q 1.03483,0 1.70008,-0.71453 0.68989,-0.73917 0.68989,-1.97111 v -2.24214 q 0,-1.23195 -0.68989,-1.94647 -0.66525,-0.73917 -1.70008,-0.73917 -1.03483,0 -1.72472,0.51742 -0.66525,0.49277 -0.66525,1.37977 v 3.81903 q 0,0.887 0.66525,1.40442 0.68989,0.49278 1.72472,0.49278 z m 16.58197,0.49278 h -0.12319 q -0.17247,0.49277 -0.46814,0.93628 -0.27103,0.4435 -0.71453,0.78844 -0.4435,0.34494 -1.05947,0.54206 -0.59133,0.19711 -1.37978,0.19711 -1.99575,0 -3.03058,-1.30586 -1.0102,-1.33051 -1.0102,-3.7944 v -8.13083 h 3.64656 v 7.81053 q 0,1.18267 0.41886,1.82328 0.41886,0.64061 1.42906,0.64061 0.41886,0 0.83772,-0.1232 0.41886,-0.12319 0.73917,-0.34494 0.3203,-0.24639 0.51741,-0.59133 0.19711,-0.34495 0.19711,-0.81309 v -8.40186 h 3.64656 v 12.93542 h -3.64656 z m 7.04675,2.16822 v -12.93542 h 3.64656 v 2.80883 h 0.12319 q 0.0986,-0.54205 0.34495,-1.03483 0.24639,-0.51742 0.64061,-0.91164 0.41886,-0.39422 0.98555,-0.61597 0.5667,-0.24639 1.33051,-0.24639 h 0.64061 v 3.40017 h -0.91164 q -1.60153,0 -2.38998,0.41886 -0.7638,0.41886 -0.7638,1.55225 v 7.56414 z m 21.58367,0.93628 q 0,1.03483 -0.36959,1.82328 -0.34494,0.78844 -1.15802,1.3305 -0.81309,0.56669 -2.16823,0.83772 -1.3305,0.29567 -3.30161,0.29567 -1.67544,0 -2.85811,-0.22175 -1.15803,-0.19711 -1.8972,-0.59134 -0.71453,-0.36958 -1.05947,-0.93627 -0.32031,-0.54206 -0.32031,-1.25659 0,-1.08411 0.64062,-1.70008 0.64061,-0.61598 1.774,-0.76381 v -0.27103 q -0.93628,-0.17247 -1.40442,-0.78844 -0.46814,-0.64061 -0.46814,-1.47834 0,-0.51741 0.19711,-0.887 0.22175,-0.39422 0.54206,-0.66525 0.34494,-0.29566 0.78844,-0.46814 0.4435,-0.17247 0.887,-0.27102 v -0.0986 q -1.18266,-0.54205 -1.74936,-1.47833 -0.56669,-0.96092 -0.56669,-2.2175 0,-1.97112 1.35514,-3.15378 1.37977,-1.20731 4.18861,-1.20731 1.28122,0 2.19286,0.24639 v -0.49278 q 0,-1.03483 0.49278,-1.47833 0.51742,-0.46814 1.45369,-0.46814 h 2.04503 v 2.71028 h -2.85811 v 0.14783 q 1.13339,0.54206 1.67545,1.50297 0.54205,0.93628 0.54205,2.19287 0,1.94647 -1.37978,3.12914 -1.35514,1.15802 -4.16397,1.15802 -1.25659,0 -2.29142,-0.27102 -0.56669,0.36958 -0.56669,1.03483 0,0.46814 0.34494,0.73917 0.36958,0.24639 1.20731,0.24639 h 3.74511 q 2.36533,0 3.42481,0.98555 1.08411,0.98556 1.08411,2.7842 z m -3.42481,0.49278 q 0,-0.5667 -0.4435,-0.86237 -0.4435,-0.29566 -1.55225,-0.29566 h -4.435 q -0.24639,0.24639 -0.36959,0.54205 -0.0985,0.32031 -0.0985,0.61598 0,0.71452 0.61597,1.03483 0.61597,0.34494 2.09431,0.34494 h 1.47833 q 1.47834,0 2.09431,-0.34494 0.61597,-0.32031 0.61597,-1.03483 z m -3.52336,-8.40187 q 1.08411,0 1.60153,-0.4435 0.54205,-0.46814 0.54205,-1.3305 v -0.29567 q 0,-0.86236 -0.54205,-1.30586 -0.51742,-0.46814 -1.60153,-0.46814 -1.08411,0 -1.62617,0.46814 -0.51742,0.4435 -0.51742,1.30586 v 0.29567 q 0,0.86236 0.51742,1.3305 0.54206,0.4435 1.62617,0.4435 z"
       id="text18"
       aria-label="CR-Fitchburg" /></g></svg>
