<?xml version="1.0" encoding="UTF-8" standalone="no"?>
<!-- Created with Inkscape (http://www.inkscape.org/) -->

<svg
   width="559.46643"
   height="80.000061"
   viewBox="0 0 148.02549 21.166682"
   version="1.1"
   id="svg1"
   xml:space="preserve"
   xmlns="http://www.w3.org/2000/svg"
   xmlns:svg="http://www.w3.org/2000/svg"><defs
     id="defs1" /><g
     id="layer1"
     transform="translate(-2.7870145,-198.43751)"><rect
       style="fill:#7b388c;fill-opacity:1;stroke-width:0.316497"
       id="rect10"
       width="148.02548"
       height="21.166677"
       x="2.7870145"
       y="198.43752"
       ry="1.3415861" /><path
       style="font-weight:bold;font-size:24.6389px;line-height:22.1749px;font-family:'IBM Plex Sans';-inkscape-font-specification:'IBM Plex Sans Bold';text-align:center;text-anchor:middle;fill:#ffffff;stroke-width:0.484307"
       d="m 12.098037,218.39596 q -1.749362,0 -3.1537791,-0.54205 -1.4044173,-0.5667 -2.3899733,-1.65081 -0.9855561,-1.10875 -1.5276119,-2.73492 -0.5420558,-1.6508 -0.5420558,-3.84367 0,-2.16822 0.5420558,-3.84366 0.5420558,-1.70009 1.5276119,-2.83348 0.985556,-1.15803 2.3899733,-1.74936 1.4044171,-0.59133 3.1537791,-0.59133 2.389974,0 3.942224,0.98555 1.552251,0.96092 2.488529,3.05523 l -3.227696,1.67544 q -0.344944,-1.08411 -1.084111,-1.72472 -0.714528,-0.66525 -2.118946,-0.66525 -1.650806,0 -2.6610011,1.08411 -0.985556,1.05947 -0.985556,3.1045 v 2.75956 q 0,2.04503 0.985556,3.12914 1.0101951,1.05947 2.6610011,1.05947 1.379779,0 2.192862,-0.73917 0.837723,-0.7638 1.231945,-1.82327 l 3.055224,1.774 q -0.960917,1.97111 -2.537807,3.05522 -1.55225,1.05947 -3.942224,1.05947 z m 12.836891,-0.29566 h -3.745113 v -17.19796 h 8.155476 q 1.182667,0 2.143584,0.39423 0.960917,0.39422 1.626168,1.13339 0.689889,0.71452 1.059472,1.72472 0.369584,1.01019 0.369584,2.24214 0,1.74936 -0.788445,3.05522 -0.763806,1.30586 -2.340695,1.8972 l 3.375529,6.75106 h -4.163974 l -3.005946,-6.30756 h -2.68564 z m 3.942224,-9.46134 q 0.837722,0 1.305862,-0.41886 0.492778,-0.4435 0.492778,-1.28123 v -1.08411 q 0,-0.83772 -0.492778,-1.25658 -0.46814,-0.4435 -1.305862,-0.4435 h -3.942224 v 4.48428 z m 7.958374,3.72047 v -3.548 h 7.317754 v 3.548 z m 10.520808,5.74087 v -17.19796 h 11.407811 v 3.32625 h -7.662698 v 3.52337 h 6.529309 v 3.30161 h -6.529309 v 7.04673 z m 22.790936,0 q -0.985556,0 -1.650806,-0.61598 -0.640612,-0.61597 -0.813084,-1.6508 h -0.147833 q -0.295667,1.25658 -1.305862,1.92183 -1.010195,0.64061 -2.488529,0.64061 -1.946473,0 -2.981307,-1.03483 -1.034834,-1.03483 -1.034834,-2.73492 0,-2.04503 1.478334,-3.03058 1.502973,-1.0102 4.065419,-1.0102 h 2.045029 v -0.81308 q 0,-0.93628 -0.492778,-1.47834 -0.492778,-0.56669 -1.650807,-0.56669 -1.084111,0 -1.724723,0.46814 -0.640611,0.46814 -1.059473,1.05947 l -2.168223,-1.92183 q 0.788445,-1.15803 1.971112,-1.79864 1.207306,-0.66525 3.252335,-0.66525 2.759557,0 4.139335,1.2073 1.379779,1.20731 1.379779,3.52337 v 5.66694 h 1.207306 v 2.83348 z m -5.050974,-2.24214 q 0.911639,0 1.55225,-0.39423 0.665251,-0.39422 0.665251,-1.28122 v -1.52761 h -1.774001 q -2.143585,0 -2.143585,1.45369 v 0.36959 q 0,0.71453 0.443501,1.05947 0.4435,0.32031 1.256584,0.32031 z m 11.333898,-12.07307 q -1.10875,0 -1.626167,-0.49277 -0.492778,-0.51742 -0.492778,-1.30587 v -0.54205 q 0,-0.78845 0.492778,-1.28122 0.517417,-0.51742 1.626167,-0.51742 1.108751,0 1.601529,0.51742 0.517417,0.49277 0.517417,1.28122 v 0.54205 q 0,0.78845 -0.517417,1.30587 -0.492778,0.49277 -1.601529,0.49277 z m -1.823278,1.37978 h 3.646557 v 12.93543 h -3.646557 z m 7.046714,12.93543 v -12.93543 h 3.646558 v 2.80884 h 0.123194 q 0.09856,-0.54206 0.344945,-1.03484 0.246389,-0.51741 0.640611,-0.91164 0.418861,-0.39422 0.985556,-0.61597 0.566695,-0.24639 1.330501,-0.24639 h 0.640611 v 3.40017 h -0.911639 q -1.601529,0 -2.389973,0.41886 -0.763806,0.41886 -0.763806,1.55225 v 7.56415 z m 9.954094,0 v -12.93543 h 3.646558 v 2.19287 h 0.147833 q 0.344945,-1.03484 1.182667,-1.74937 0.837723,-0.73916 2.291418,-0.73916 1.3305,0 2.26678,0.66525 0.93628,0.66525 1.35514,1.94647 h 0.0739 q 0.17247,-0.54206 0.51741,-1.0102 0.36959,-0.49277 0.887,-0.83772 0.51742,-0.34494 1.15803,-0.54205 0.64061,-0.22175 1.37978,-0.22175 1.87256,0 2.85811,1.3305 1.0102,1.3305 1.0102,3.79439 v 8.1062 h -3.64656 v -7.81054 q 0,-2.46389 -1.774,-2.46389 -0.81309,0 -1.47834,0.46814 -0.66525,0.46814 -0.66525,1.42906 v 8.37723 h -3.646553 v -7.81054 q 0,-2.46389 -1.774001,-2.46389 -0.394222,0 -0.788445,0.1232 -0.369583,0.0985 -0.689889,0.34494 -0.295667,0.24639 -0.492778,0.61598 -0.172472,0.34494 -0.172472,0.81308 v 8.37723 z m 27.275246,0.29566 q -1.42906,0 -2.56244,-0.46814 -1.10876,-0.46814 -1.8972,-1.35514 -0.76381,-0.887 -1.18267,-2.14358 -0.41886,-1.25658 -0.41886,-2.80883 0,-1.55226 0.41886,-2.80884 0.41886,-1.25658 1.18267,-2.11895 0.78844,-0.887 1.8972,-1.35513 1.13338,-0.46814 2.56244,-0.46814 1.42906,0 2.53781,0.46814 1.13339,0.46813 1.89719,1.35513 0.78845,0.86237 1.20731,2.11895 0.41886,1.25658 0.41886,2.80884 0,1.55225 -0.41886,2.80883 -0.41886,1.25658 -1.20731,2.14358 -0.7638,0.887 -1.89719,1.35514 -1.10875,0.46814 -2.53781,0.46814 z m 0,-2.88275 q 1.08411,0 1.67545,-0.66525 0.59133,-0.66525 0.59133,-1.89719 v -2.63637 q 0,-1.23194 -0.59133,-1.89719 -0.59134,-0.66525 -1.67545,-0.66525 -1.08411,0 -1.67544,0.66525 -0.59134,0.66525 -0.59134,1.89719 v 2.63637 q 0,1.23194 0.59134,1.89719 0.59133,0.66525 1.67544,0.66525 z m 8.64823,2.58709 v -12.93543 h 3.64656 v 2.19287 h 0.14783 q 0.34495,-1.0102 1.20731,-1.74937 0.86236,-0.73916 2.38997,-0.73916 1.99575,0 3.00595,1.3305 1.03483,1.3305 1.03483,3.79439 v 8.1062 h -3.64656 v -7.81054 q 0,-1.25658 -0.39422,-1.84791 -0.39422,-0.61598 -1.40442,-0.61598 -0.4435,0 -0.86236,0.1232 -0.41886,0.0985 -0.7638,0.34494 -0.32031,0.24639 -0.51742,0.61598 -0.19711,0.34494 -0.19711,0.81308 v 8.37723 z m 19.21836,0 q -1.8972,0 -2.88275,-0.96092 -0.96092,-0.96092 -0.96092,-2.80884 v -6.33219 h -1.82328 v -2.83348 h 0.91164 q 0.73917,0 1.0102,-0.34494 0.27102,-0.36958 0.27102,-1.03484 v -2.11894 h 3.27698 v 3.49872 h 2.56244 v 2.83348 h -2.56244 v 7.26847 h 2.36533 v 2.83348 z"
       id="text10"
       aria-label="CR-Fairmont" /></g></svg>
