<?xml version="1.0" encoding="UTF-8" standalone="no"?>
<!-- Created with Inkscape (http://www.inkscape.org/) -->

<svg
   width="420"
   height="164.74203"
   viewBox="0 0 111.125 43.587996"
   version="1.1"
   id="svg1"
   xml:space="preserve"
   xmlns="http://www.w3.org/2000/svg"
   xmlns:svg="http://www.w3.org/2000/svg"><defs
     id="defs1" /><g
     id="layer1"
     transform="translate(-153.10591,-2.5548954)"><rect
       style="fill:#7b388c;fill-opacity:1;stroke-width:0.393518"
       id="rect15"
       width="111.125"
       height="43.588001"
       x="153.10591"
       y="2.5548954"
       ry="2.7626941" /><path
       style="font-weight:bold;font-size:24.6389px;line-height:22.1749px;font-family:'IBM Plex Sans';-inkscape-font-specification:'IBM Plex Sans Bold';text-align:center;text-anchor:middle;fill:#ffffff;stroke-width:0.484307"
       d="M 157.16626,22.603341 V 5.405393 h 11.40781 v 3.32625 h -7.6627 v 3.523361 h 6.52931 v 3.301607 h -6.52931 v 7.04673 z m 13.47744,0 V 9.667923 h 3.64656 v 2.808831 h 0.12319 c 0.0657,-0.361371 0.18072,-0.706314 0.34495,-1.034827 0.16426,-0.344947 0.3778,-0.648827 0.64061,-0.91164 0.27924,-0.262823 0.60776,-0.468151 0.98555,-0.615984 0.3778,-0.164253 0.8213,-0.24638 1.3305,-0.24638 h 0.64062 v 3.400158 h -0.91164 c -1.06769,0 -1.86435,0.139623 -2.38998,0.41887 -0.5092,0.27924 -0.7638,0.796657 -0.7638,1.55225 v 7.56414 z m 19.16905,0 c -0.65704,0 -1.20731,-0.205323 -1.65081,-0.61597 -0.42707,-0.410653 -0.6981,-0.960923 -0.81308,-1.65081 h -0.14783 c -0.19711,0.83772 -0.6324,1.47833 -1.30586,1.92183 -0.67347,0.42708 -1.50298,0.64062 -2.48853,0.64062 -1.29765,0 -2.29142,-0.344947 -2.98131,-1.03484 -0.68989,-0.689887 -1.03483,-1.601527 -1.03483,-2.73492 0,-1.363353 0.49278,-2.373547 1.47833,-3.03058 1.00198,-0.673467 2.35712,-1.0102 4.06542,-1.0102 h 2.04503 v -0.81308 c 0,-0.624187 -0.16426,-1.116963 -0.49278,-1.47833 -0.32852,-0.377798 -0.87879,-0.566697 -1.65081,-0.566697 -0.72274,0 -1.29765,0.156046 -1.72472,0.468137 -0.42707,0.312093 -0.78023,0.66525 -1.05947,1.05947 l -2.16823,-1.921824 c 0.52563,-0.77202 1.18267,-1.371568 1.97112,-1.798644 0.80487,-0.4435 1.88898,-0.66525 3.25233,-0.66525 1.83971,0 3.21949,0.402435 4.13934,1.207304 0.91985,0.804873 1.37977,1.979328 1.37977,3.523364 v 5.66694 h 1.20731 v 2.83348 z m -5.05097,-2.24214 c 0.60776,0 1.12518,-0.131407 1.55225,-0.39422 0.4435,-0.26282 0.66525,-0.689897 0.66525,-1.28123 v -1.52761 h -1.774 c -1.42906,0 -2.14359,0.484567 -2.14359,1.4537 v 0.36958 c 0,0.476353 0.14783,0.82951 0.4435,1.05947 0.29567,0.21354 0.71453,0.32031 1.25659,0.32031 z m 9.51062,2.24214 V 9.667923 h 3.64655 v 2.192864 h 0.14784 c 0.22996,-0.673467 0.63239,-1.256588 1.2073,-1.749364 0.57491,-0.49278 1.37157,-0.73917 2.38998,-0.73917 1.3305,0 2.33248,0.443501 3.00594,1.330504 0.68989,0.887 1.03484,2.151795 1.03484,3.794384 v 8.1062 h -3.64656 v -7.81053 c 0,-0.837727 -0.13141,-1.4537 -0.39422,-1.84792 -0.26282,-0.410645 -0.73096,-0.615967 -1.40442,-0.615967 -0.29567,0 -0.58312,0.04106 -0.86236,0.12319 -0.27924,0.06573 -0.53384,0.180716 -0.76381,0.344947 -0.21353,0.164253 -0.38601,0.369577 -0.51742,0.61597 -0.13141,0.22996 -0.19711,0.500987 -0.19711,0.81308 v 8.37723 z M 208.9572,4.370553 h 3.64656 v 10.767198 h 0.14783 l 1.60153,-2.38997 2.58708,-3.079858 h 4.04078 l -4.31181,4.952408 4.80459,7.98301 h -4.33645 l -2.90739,-5.46984 -1.62616,1.82328 v 3.64656 h -3.64656 z m 17.83855,18.232788 c -1.24837,0 -2.16822,-0.30388 -2.75955,-0.91164 -0.57491,-0.60776 -0.86236,-1.486547 -0.86236,-2.63636 V 4.370553 h 3.64655 v 15.399308 h 1.62617 v 2.83348 z m 5.66693,-14.315198 c -0.73917,0 -1.28122,-0.16426 -1.62617,-0.49278 -0.32851,-0.344947 -0.49277,-0.780233 -0.49277,-1.30586 v -0.54206 c 0,-0.525627 0.16426,-0.9527 0.49277,-1.28122 0.34495,-0.344947 0.887,-0.51742 1.62617,-0.51742 0.73917,0 1.27301,0.172473 1.60153,0.51742 0.34495,0.32852 0.51742,0.755593 0.51742,1.28122 v 0.54206 c 0,0.525627 -0.17247,0.960913 -0.51742,1.30586 -0.32852,0.32852 -0.86236,0.49278 -1.60153,0.49278 z m -1.82328,1.37978 h 3.64656 v 12.935418 h -3.64656 z m 7.04672,12.935418 V 9.667923 h 3.64656 v 2.192864 h 0.14783 c 0.22996,-0.673467 0.6324,-1.256588 1.20731,-1.749364 0.57491,-0.49278 1.37156,-0.73917 2.38997,-0.73917 1.3305,0 2.33248,0.443501 3.00594,1.330504 0.68989,0.887 1.03484,2.151795 1.03484,3.794384 v 8.1062 h -3.64656 v -7.81053 c 0,-0.837727 -0.13141,-1.4537 -0.39422,-1.84792 -0.26281,-0.410645 -0.73095,-0.615967 -1.40442,-0.615967 -0.29567,0 -0.58312,0.04106 -0.86236,0.12319 -0.27924,0.06573 -0.53384,0.180716 -0.76381,0.344947 -0.21353,0.164253 -0.386,0.369577 -0.51741,0.61597 -0.13141,0.22996 -0.19711,0.500987 -0.19711,0.81308 v 8.37723 z m 13.58779,3.72047 6.81323,-21.953258 h 3.00594 l -6.81322,21.953258 z M 156.24374,44.253319 V 27.055371 h 11.40781 v 3.32625 h -7.6627 v 3.523361 h 6.52931 v 3.301607 h -6.52931 v 7.04673 z m 18.67628,0.29567 c -0.95271,0 -1.80686,-0.156047 -2.56245,-0.46814 -0.73917,-0.312093 -1.37156,-0.763807 -1.89719,-1.35514 -0.50921,-0.591333 -0.90343,-1.305863 -1.18267,-2.14359 -0.27924,-0.83772 -0.41886,-1.773997 -0.41886,-2.80883 0,-1.034833 0.13962,-1.971113 0.41886,-2.80884 0.27924,-0.837716 0.67346,-1.544027 1.18267,-2.118934 0.52563,-0.591333 1.15802,-1.043048 1.89719,-1.355144 0.75559,-0.312093 1.60974,-0.46814 2.56245,-0.46814 0.9527,0 1.79864,0.156047 2.53781,0.46814 0.75559,0.312096 1.38798,0.763811 1.89719,1.355144 0.52563,0.574907 0.92807,1.281218 1.20731,2.118934 0.27924,0.837727 0.41886,1.774007 0.41886,2.80884 0,1.034833 -0.13962,1.97111 -0.41886,2.80883 -0.27924,0.837727 -0.68168,1.552257 -1.20731,2.14359 -0.50921,0.591333 -1.1416,1.043047 -1.89719,1.35514 -0.73917,0.312093 -1.58511,0.46814 -2.53781,0.46814 z m 0,-2.88276 c 0.72274,0 1.28122,-0.22175 1.67544,-0.66525 0.39423,-0.4435 0.59134,-1.075897 0.59134,-1.89719 v -2.63636 c 0,-0.8213 -0.19711,-1.4537 -0.59134,-1.8972 -0.39422,-0.443498 -0.9527,-0.665247 -1.67544,-0.665247 -0.72274,0 -1.28122,0.221749 -1.67545,0.665247 -0.39422,0.4435 -0.59133,1.0759 -0.59133,1.8972 v 2.63636 c 0,0.821293 0.19711,1.45369 0.59133,1.89719 0.39423,0.4435 0.95271,0.66525 1.67545,0.66525 z m 6.9974,2.58709 4.26253,-6.57859 -4.21325,-6.356828 h 4.13934 l 2.41461,4.065408 h 0.0986 l 2.34069,-4.065408 h 3.84367 l -4.28717,6.480028 4.31181,6.45539 h -4.13934 l -2.48853,-4.21325 h -0.0985 l -2.38998,4.21325 z m 15.05436,-18.232788 h 3.64656 v 7.465594 h 0.1232 c 0.18068,-0.72274 0.59133,-1.314075 1.23194,-1.774004 0.65704,-0.459927 1.40442,-0.68989 2.24214,-0.68989 1.64259,0 2.88275,0.574908 3.72047,1.724724 0.83773,1.149809 1.25659,2.825254 1.25659,5.026334 0,2.201073 -0.41886,3.88473 -1.25659,5.05097 -0.83772,1.14982 -2.07788,1.72473 -3.72047,1.72473 -0.42707,0 -0.82951,-0.06571 -1.20731,-0.19712 -0.37779,-0.11498 -0.72274,-0.279237 -1.03483,-0.49277 -0.29567,-0.229967 -0.55027,-0.492783 -0.76381,-0.78845 -0.21353,-0.312093 -0.36958,-0.64061 -0.46813,-0.98555 h -0.1232 v 2.16822 h -3.64656 z m 6.03653,15.571788 c 0.68989,0 1.25659,-0.238177 1.70009,-0.71453 0.45993,-0.49278 0.68989,-1.149817 0.68989,-1.97111 v -2.24214 c 0,-0.8213 -0.22996,-1.470127 -0.68989,-1.94648 -0.4435,-0.492771 -1.0102,-0.739157 -1.70009,-0.739157 -0.68989,0 -1.26479,0.172469 -1.72472,0.517407 -0.4435,0.32852 -0.66525,0.788447 -0.66525,1.37978 v 3.81903 c 0,0.591333 0.22175,1.059473 0.66525,1.40442 0.45993,0.32852 1.03483,0.49278 1.72472,0.49278 z m 14.192,2.95667 c -0.95271,0 -1.80686,-0.156047 -2.56245,-0.46814 -0.73917,-0.312093 -1.37156,-0.763807 -1.89719,-1.35514 -0.50921,-0.591333 -0.90343,-1.305863 -1.18267,-2.14359 -0.27924,-0.83772 -0.41886,-1.773997 -0.41886,-2.80883 0,-1.034833 0.13962,-1.971113 0.41886,-2.80884 0.27924,-0.837716 0.67346,-1.544027 1.18267,-2.118934 0.52563,-0.591333 1.15802,-1.043048 1.89719,-1.355144 0.75559,-0.312093 1.60974,-0.46814 2.56245,-0.46814 0.9527,0 1.79863,0.156047 2.5378,0.46814 0.75559,0.312096 1.38799,0.763811 1.8972,1.355144 0.52563,0.574907 0.92806,1.281218 1.20731,2.118934 0.27924,0.837727 0.41886,1.774007 0.41886,2.80884 0,1.034833 -0.13962,1.97111 -0.41886,2.80883 -0.27925,0.837727 -0.68168,1.552257 -1.20731,2.14359 -0.50921,0.591333 -1.14161,1.043047 -1.8972,1.35514 -0.73917,0.312093 -1.5851,0.46814 -2.5378,0.46814 z m 0,-2.88276 c 0.72274,0 1.28122,-0.22175 1.67544,-0.66525 0.39423,-0.4435 0.59134,-1.075897 0.59134,-1.89719 v -2.63636 c 0,-0.8213 -0.19711,-1.4537 -0.59134,-1.8972 -0.39422,-0.443498 -0.9527,-0.665247 -1.67544,-0.665247 -0.72274,0 -1.28122,0.221749 -1.67545,0.665247 -0.39422,0.4435 -0.59133,1.0759 -0.59133,1.8972 v 2.63636 c 0,0.821293 0.19711,1.45369 0.59133,1.89719 0.39423,0.4435 0.95271,0.66525 1.67545,0.66525 z m 8.64823,2.58709 V 31.317901 h 3.64656 v 2.808831 h 0.12319 c 0.0657,-0.361371 0.18071,-0.706314 0.34494,-1.034827 0.16426,-0.344947 0.3778,-0.648827 0.64062,-0.91164 0.27924,-0.262823 0.60776,-0.468151 0.98555,-0.615984 0.3778,-0.164253 0.8213,-0.24638 1.3305,-0.24638 h 0.64061 v 3.400158 h -0.91164 c -1.06768,0 -1.86434,0.139623 -2.38997,0.41887 -0.5092,0.27924 -0.7638,0.796657 -0.7638,1.55225 v 7.56414 z m 15.07902,0.29567 c -0.95271,0 -1.80686,-0.156047 -2.56245,-0.46814 -0.73917,-0.312093 -1.37156,-0.763807 -1.89719,-1.35514 -0.50921,-0.591333 -0.90343,-1.305863 -1.18267,-2.14359 -0.27924,-0.83772 -0.41886,-1.773997 -0.41886,-2.80883 0,-1.034833 0.13962,-1.971113 0.41886,-2.80884 0.27924,-0.837716 0.67346,-1.544027 1.18267,-2.118934 0.52563,-0.591333 1.15802,-1.043048 1.89719,-1.355144 0.75559,-0.312093 1.60974,-0.46814 2.56245,-0.46814 0.9527,0 1.79863,0.156047 2.5378,0.46814 0.75559,0.312096 1.38799,0.763811 1.8972,1.355144 0.52563,0.574907 0.92806,1.281218 1.2073,2.118934 0.27925,0.837727 0.41887,1.774007 0.41887,2.80884 0,1.034833 -0.13962,1.97111 -0.41887,2.80883 -0.27924,0.837727 -0.68167,1.552257 -1.2073,2.14359 -0.50921,0.591333 -1.14161,1.043047 -1.8972,1.35514 -0.73917,0.312093 -1.5851,0.46814 -2.5378,0.46814 z m 0,-2.88276 c 0.72274,0 1.28122,-0.22175 1.67544,-0.66525 0.39423,-0.4435 0.59134,-1.075897 0.59134,-1.89719 v -2.63636 c 0,-0.8213 -0.19711,-1.4537 -0.59134,-1.8972 -0.39422,-0.443498 -0.9527,-0.665247 -1.67544,-0.665247 -0.72275,0 -1.28123,0.221749 -1.67545,0.665247 -0.39422,0.4435 -0.59133,1.0759 -0.59133,1.8972 v 2.63636 c 0,0.821293 0.19711,1.45369 0.59133,1.89719 0.39422,0.4435 0.9527,0.66525 1.67545,0.66525 z"
       id="text15"
       aria-label="CR-Franklin/Foxboro" /></g></svg>
