<?xml version="1.0" encoding="UTF-8" standalone="no"?>
<!-- Created with Inkscape (http://www.inkscape.org/) -->

<svg
   width="481.46918"
   height="165.59442"
   viewBox="0 0 127.38872 43.813523"
   version="1.1"
   id="svg1"
   xml:space="preserve"
   xmlns="http://www.w3.org/2000/svg"
   xmlns:svg="http://www.w3.org/2000/svg"><defs
     id="defs1" /><g
     id="layer1"
     transform="translate(-168.62342,-50.12777)"><rect
       style="fill:#7b388c;fill-opacity:1;stroke-width:0.42242"
       id="rect14"
       width="127.38872"
       height="43.813526"
       x="168.62341"
       y="50.127769"
       ry="2.7769883" /><path
       style="font-weight:bold;font-size:24.6389px;line-height:22.1749px;font-family:'IBM Plex Sans';-inkscape-font-specification:'IBM Plex Sans Bold';text-align:center;text-anchor:middle;fill:#ffffff;stroke-width:0.484307"
       d="m 172.00265,70.135443 v -17.19796 h 11.40781 v 3.32626 h -7.6627 v 3.52336 h 6.52931 v 3.30161 h -6.52931 v 7.04673 z m 22.79094,0 c -0.65704,0 -1.20731,-0.205327 -1.65081,-0.61598 -0.42707,-0.410647 -0.6981,-0.960913 -0.81308,-1.6508 h -0.14784 c -0.19711,0.83772 -0.63239,1.47833 -1.30586,1.92183 -0.67346,0.427073 -1.50297,0.64061 -2.48853,0.64061 -1.29765,0 -2.29141,-0.344943 -2.9813,-1.03483 -0.68989,-0.689887 -1.03484,-1.601527 -1.03484,-2.73492 0,-1.363353 0.49278,-2.373547 1.47834,-3.03058 1.00198,-0.673467 2.35712,-1.0102 4.06541,-1.0102 h 2.04503 v -0.81308 c 0,-0.624187 -0.16426,-1.116967 -0.49278,-1.47834 -0.32851,-0.377793 -0.87878,-0.56669 -1.6508,-0.56669 -0.72274,0 -1.29765,0.156047 -1.72472,0.46814 -0.42708,0.312093 -0.78024,0.66525 -1.05948,1.05947 l -2.16822,-1.92183 c 0.52563,-0.77202 1.18267,-1.371567 1.97111,-1.79864 0.80488,-0.4435 1.88899,-0.66525 3.25234,-0.66525 1.8397,0 3.21948,0.402433 4.13933,1.2073 0.91985,0.804873 1.37978,1.97933 1.37978,3.52337 v 5.66694 h 1.20731 v 2.83348 z m -5.05098,-2.24214 c 0.60776,0 1.12518,-0.13141 1.55225,-0.39423 0.4435,-0.262813 0.66525,-0.689887 0.66525,-1.28122 v -1.52761 h -1.774 c -1.42905,0 -2.14358,0.484563 -2.14358,1.45369 v 0.36959 c 0,0.476353 0.14783,0.82951 0.4435,1.05947 0.29567,0.21354 0.71453,0.32031 1.25658,0.32031 z m 13.13254,2.24214 c -1.24837,0 -2.16823,-0.30388 -2.75956,-0.91164 -0.57491,-0.60776 -0.86236,-1.48655 -0.86236,-2.63637 v -14.68478 h 3.64656 v 15.39931 h 1.62617 v 2.83348 z m 7.26848,0 c -1.24837,0 -2.16823,-0.30388 -2.75956,-0.91164 -0.57491,-0.60776 -0.86236,-1.48655 -0.86236,-2.63637 v -14.68478 h 3.64656 v 15.39931 h 1.62616 v 2.83348 z m 13.60066,0 h -3.74511 v -17.19796 h 8.15547 c 0.78845,0 1.50298,0.13141 2.14359,0.39423 0.64061,0.262813 1.18266,0.64061 1.62616,1.13339 0.45993,0.476347 0.81309,1.051253 1.05948,1.72472 0.24639,0.67346 0.36958,1.42084 0.36958,2.24214 0,1.16624 -0.26281,2.184647 -0.78844,3.05522 -0.50921,0.870573 -1.28944,1.502973 -2.3407,1.8972 l 3.37553,6.75106 h -4.16397 l -3.00595,-6.30756 h -2.68564 z m 3.94222,-9.46134 c 0.55849,0 0.99377,-0.13962 1.30586,-0.41886 0.32852,-0.295667 0.49278,-0.722743 0.49278,-1.28123 v -1.08411 c 0,-0.55848 -0.16426,-0.97734 -0.49278,-1.25658 -0.31209,-0.295667 -0.74737,-0.4435 -1.30586,-0.4435 h -3.94222 v 4.48428 z m 10.54545,-4.85386 c -0.73917,0 -1.28122,-0.16426 -1.62617,-0.49278 -0.32852,-0.344947 -0.49278,-0.780233 -0.49278,-1.30586 v -0.54206 c 0,-0.525633 0.16426,-0.952707 0.49278,-1.28122 0.34495,-0.344947 0.887,-0.51742 1.62617,-0.51742 0.73917,0 1.27301,0.172473 1.60153,0.51742 0.34494,0.328513 0.51741,0.755587 0.51741,1.28122 v 0.54206 c 0,0.525627 -0.17247,0.960913 -0.51741,1.30586 -0.32852,0.32852 -0.86236,0.49278 -1.60153,0.49278 z m -1.82328,1.37977 h 3.64656 v 12.93543 h -3.64656 z m 9.80626,12.93543 -4.23789,-12.93543 h 3.59728 l 1.60153,5.22345 1.20731,4.68139 h 0.19711 l 1.2073,-4.68139 1.55225,-5.22345 h 3.44945 l -4.23789,12.93543 z m 15.695,0.29566 c -0.98555,0 -1.86434,-0.156047 -2.63636,-0.46814 -0.77202,-0.328513 -1.42906,-0.780227 -1.97111,-1.35514 -0.52563,-0.591333 -0.92807,-1.30586 -1.20731,-2.14358 -0.26281,-0.83772 -0.39422,-1.773997 -0.39422,-2.80883 0,-1.018413 0.13141,-1.938267 0.39422,-2.75956 0.26282,-0.837727 0.64883,-1.552257 1.15803,-2.14359 0.52563,-0.591333 1.16625,-1.043047 1.92184,-1.35514 0.75559,-0.328513 1.61795,-0.49277 2.58708,-0.49277 1.06769,0 1.97933,0.180683 2.73492,0.54205 0.77202,0.361373 1.39621,0.84594 1.87256,1.4537 0.49277,0.60776 0.84593,1.314073 1.05947,2.11894 0.22996,0.788447 0.34494,1.617957 0.34494,2.48853 v 1.08411 h -8.30331 v 0.19711 c 0,0.854153 0.22996,1.53583 0.68989,2.04503 0.45993,0.49278 1.18267,0.73917 2.16823,0.73917 0.75559,0 1.37156,-0.147833 1.84791,-0.4435 0.47635,-0.312093 0.91985,-0.681677 1.3305,-1.10875 l 1.82328,2.26678 c -0.57491,0.67346 -1.3305,1.19909 -2.26678,1.57689 -0.91985,0.377793 -1.97111,0.56669 -3.15378,0.56669 z m -0.0739,-10.84111 c -0.73917,0 -1.32229,0.246387 -1.74936,0.73916 -0.41065,0.476353 -0.61598,1.116967 -0.61598,1.92184 v 0.19711 h 4.53356 v -0.22175 c 0,-0.788447 -0.18069,-1.420847 -0.54206,-1.8972 -0.34494,-0.492773 -0.88699,-0.73916 -1.62616,-0.73916 z m 8.52506,10.54545 v -12.93543 h 3.64656 v 2.80884 h 0.1232 c 0.0657,-0.361373 0.18071,-0.70632 0.34494,-1.03484 0.16426,-0.34494 0.3778,-0.648817 0.64061,-0.91163 0.27924,-0.26282 0.60776,-0.468147 0.98556,-0.61598 0.37779,-0.16426 0.82129,-0.24639 1.3305,-0.24639 h 0.64061 v 3.40017 h -0.91164 c -1.06769,0 -1.86434,0.13962 -2.38997,0.41886 -0.50921,0.27924 -0.76381,0.796657 -0.76381,1.55225 v 7.56415 z m 7.7859,3.72047 7.34239,-21.95326 h 3.00595 l -7.34239,21.95326 z m -100.75025,10.10575 -1.65081,-3.44945 h -0.0739 v 11.58029 h -3.52336 v -17.19796 h 4.09006 l 4.70603,8.13084 1.6508,3.44945 h 0.0739 v -11.58029 h 3.52336 v 17.19796 h -4.09005 z m 14.51234,8.40186 c -0.73917,0 -1.28944,-0.180683 -1.65081,-0.54205 -0.34495,-0.3778 -0.51742,-0.854153 -0.51742,-1.42906 v -0.49278 c 0,-0.574907 0.17247,-1.043043 0.51742,-1.40441 0.36137,-0.3778 0.91164,-0.5667 1.65081,-0.5667 0.73917,0 1.28122,0.1889 1.62616,0.5667 0.36137,0.361367 0.54206,0.829503 0.54206,1.40441 v 0.49278 c 0,0.574907 -0.18069,1.05126 -0.54206,1.42906 -0.34494,0.361367 -0.88699,0.54205 -1.62616,0.54205 z m 11.53098,-17.46898 h 8.35259 c 1.42905,0 2.5378,0.402437 3.32625,1.20731 0.80487,0.804873 1.20731,1.87256 1.20731,3.20306 0,0.657033 -0.0903,1.215513 -0.27103,1.67544 -0.16426,0.459927 -0.39422,0.837723 -0.68989,1.13339 -0.27924,0.295667 -0.61597,0.517417 -1.01019,0.66525 -0.3778,0.131407 -0.78845,0.205323 -1.23195,0.22175 v 0.14784 c 0.41065,0 0.83772,0.07392 1.28122,0.22175 0.45993,0.147833 0.87879,0.386007 1.25659,0.71452 0.37779,0.312093 0.68989,0.722743 0.93628,1.23195 0.26281,0.5092 0.39422,1.133387 0.39422,1.87256 0,0.67346 -0.11498,1.31407 -0.34495,1.92183 -0.21353,0.591333 -0.51741,1.10875 -0.91164,1.55225 -0.39422,0.4435 -0.86236,0.796657 -1.40441,1.05947 -0.54206,0.246393 -1.13339,0.36959 -1.774,0.36959 h -9.1164 z m 3.74512,14.04418 h 4.3118 c 0.49278,0 0.87879,-0.13141 1.15803,-0.39423 0.29567,-0.27924 0.4435,-0.665247 0.4435,-1.15802 v -0.83773 c 0,-0.492773 -0.14783,-0.87057 -0.4435,-1.13339 -0.27924,-0.27924 -0.66525,-0.41886 -1.15803,-0.41886 h -4.3118 z m 0,-6.99745 h 3.72047 c 0.49278,0 0.87879,-0.13962 1.15803,-0.41886 0.27924,-0.27924 0.41886,-0.66525 0.41886,-1.15803 v -0.73917 c 0,-0.492773 -0.13962,-0.878783 -0.41886,-1.15803 -0.27924,-0.27924 -0.66525,-0.41886 -1.15803,-0.41886 h -3.72047 z m 17.88783,10.44689 c -0.98555,0 -1.86434,-0.156047 -2.63636,-0.46814 -0.77202,-0.328513 -1.42906,-0.780227 -1.97111,-1.35514 -0.52563,-0.591333 -0.92807,-1.30586 -1.20731,-2.14358 -0.26281,-0.83772 -0.39422,-1.773997 -0.39422,-2.80883 0,-1.018413 0.13141,-1.938267 0.39422,-2.75956 0.26282,-0.837727 0.64883,-1.552257 1.15803,-2.14359 0.52563,-0.591333 1.16625,-1.043047 1.92184,-1.35514 0.75559,-0.328513 1.61795,-0.49277 2.58708,-0.49277 1.06769,0 1.97933,0.180683 2.73492,0.54205 0.77202,0.361373 1.39621,0.84594 1.87256,1.4537 0.49277,0.60776 0.84593,1.314073 1.05947,2.11894 0.22996,0.788447 0.34494,1.617957 0.34494,2.48853 v 1.08411 h -8.30331 v 0.19711 c 0,0.854153 0.22996,1.53583 0.68989,2.04503 0.45993,0.49278 1.18267,0.73917 2.16823,0.73917 0.75559,0 1.37156,-0.147833 1.84791,-0.4435 0.47635,-0.312093 0.91985,-0.681677 1.3305,-1.10875 l 1.82328,2.26678 c -0.57491,0.67346 -1.3305,1.19909 -2.26678,1.57689 -0.91985,0.377793 -1.97111,0.56669 -3.15378,0.56669 z m -0.0739,-10.84111 c -0.73917,0 -1.32229,0.246387 -1.74936,0.73916 -0.41065,0.476353 -0.61598,1.116967 -0.61598,1.92184 v 0.19711 h 4.53356 v -0.22175 c 0,-0.788447 -0.18069,-1.420847 -0.54206,-1.8972 -0.34494,-0.492773 -0.88699,-0.73916 -1.62616,-0.73916 z m 16.4588,8.37722 h -0.1232 c -0.0985,0.344947 -0.2546,0.673467 -0.46814,0.98556 -0.21353,0.295667 -0.47635,0.55848 -0.78844,0.78844 -0.29567,0.21354 -0.64061,0.3778 -1.03483,0.49278 -0.3778,0.131407 -0.77202,0.19711 -1.18267,0.19711 -1.64259,0 -2.88275,-0.574907 -3.72048,-1.72472 -0.83772,-1.16624 -1.25658,-2.849897 -1.25658,-5.05097 0,-2.20108 0.41886,-3.876527 1.25658,-5.02634 0.83773,-1.149813 2.07789,-1.72472 3.72048,-1.72472 0.83772,0 1.57689,0.229963 2.2175,0.68989 0.65703,0.459927 1.07589,1.05126 1.25658,1.774 h 0.1232 v -7.46559 h 3.64655 v 18.23279 h -3.64655 z m -2.38998,-0.49277 c 0.68989,0 1.25659,-0.16426 1.70009,-0.49278 0.45993,-0.344947 0.68989,-0.813087 0.68989,-1.40442 v -3.81903 c 0,-0.591333 -0.22996,-1.05126 -0.68989,-1.37978 -0.4435,-0.344947 -1.0102,-0.51742 -1.70009,-0.51742 -0.68989,0 -1.26479,0.24639 -1.72472,0.73917 -0.4435,0.476353 -0.66525,1.125177 -0.66525,1.94647 v 2.24214 c 0,0.8213 0.22175,1.47834 0.66525,1.97112 0.45993,0.476353 1.03483,0.71453 1.72472,0.71453 z m 10.07731,-7.44095 h -1.82327 v -2.83348 h 1.82327 v -1.52761 c 0,-1.248367 0.32852,-2.184643 0.98555,-2.80883 0.65704,-0.640613 1.61796,-0.96092 2.88275,-0.96092 h 2.36534 v 2.83347 h -2.58709 v 2.46389 h 2.58709 v 2.83348 h -2.58709 v 10.10195 h -3.64655 z m 13.40355,10.39761 c -0.9527,0 -1.80685,-0.156047 -2.56244,-0.46814 -0.73917,-0.312093 -1.37157,-0.763807 -1.8972,-1.35514 -0.5092,-0.591333 -0.90342,-1.30586 -1.18267,-2.14358 -0.27924,-0.83772 -0.41886,-1.773997 -0.41886,-2.80883 0,-1.03484 0.13962,-1.97112 0.41886,-2.80884 0.27925,-0.83772 0.67347,-1.544033 1.18267,-2.11894 0.52563,-0.59134 1.15803,-1.043053 1.8972,-1.35514 0.75559,-0.312093 1.60974,-0.46814 2.56244,-0.46814 0.95271,0 1.79864,0.156047 2.53781,0.46814 0.75559,0.312087 1.38799,0.7638 1.89719,1.35514 0.52563,0.574907 0.92807,1.28122 1.20731,2.11894 0.27924,0.83772 0.41886,1.774 0.41886,2.80884 0,1.034833 -0.13962,1.97111 -0.41886,2.80883 -0.27924,0.83772 -0.68168,1.552247 -1.20731,2.14358 -0.5092,0.591333 -1.1416,1.043047 -1.89719,1.35514 -0.73917,0.312093 -1.5851,0.46814 -2.53781,0.46814 z m 0,-2.88275 c 0.72274,0 1.28122,-0.22175 1.67545,-0.66525 0.39422,-0.4435 0.59133,-1.075897 0.59133,-1.89719 v -2.63637 c 0,-0.821293 -0.19711,-1.45369 -0.59133,-1.89719 -0.39423,-0.4435 -0.95271,-0.66525 -1.67545,-0.66525 -0.72274,0 -1.28122,0.22175 -1.67544,0.66525 -0.39423,0.4435 -0.59134,1.075897 -0.59134,1.89719 v 2.63637 c 0,0.821293 0.19711,1.45369 0.59134,1.89719 0.39422,0.4435 0.9527,0.66525 1.67544,0.66525 z m 8.64825,2.58709 v -12.93543 h 3.64656 v 2.80884 h 0.12319 c 0.0657,-0.361373 0.18071,-0.70632 0.34494,-1.03484 0.16426,-0.34494 0.3778,-0.648817 0.64062,-0.91163 0.27924,-0.26282 0.60776,-0.468147 0.98555,-0.61598 0.3778,-0.16426 0.8213,-0.24639 1.3305,-0.24639 h 0.64061 v 3.40017 h -0.91164 c -1.06768,0 -1.86434,0.13962 -2.38997,0.41886 -0.5092,0.27924 -0.7638,0.796657 -0.7638,1.55225 v 7.56415 z m 17.78928,-2.16823 h -0.12319 c -0.0985,0.344947 -0.2546,0.673467 -0.46814,0.98556 -0.21353,0.295667 -0.47635,0.55848 -0.78844,0.78844 -0.29567,0.21354 -0.64061,0.3778 -1.03484,0.49278 -0.37779,0.131407 -0.77202,0.19711 -1.18267,0.19711 -1.64259,0 -2.88275,-0.574907 -3.72047,-1.72472 -0.83772,-1.16624 -1.25658,-2.849897 -1.25658,-5.05097 0,-2.20108 0.41886,-3.876527 1.25658,-5.02634 0.83772,-1.149813 2.07788,-1.72472 3.72047,-1.72472 0.83773,0 1.5769,0.229963 2.21751,0.68989 0.65703,0.459927 1.07589,1.05126 1.25658,1.774 h 0.12319 v -7.46559 h 3.64656 v 18.23279 h -3.64656 z m -2.38997,-0.49277 c 0.68989,0 1.25658,-0.16426 1.70009,-0.49278 0.45992,-0.344947 0.68988,-0.813087 0.68988,-1.40442 v -3.81903 c 0,-0.591333 -0.22996,-1.05126 -0.68988,-1.37978 -0.44351,-0.344947 -1.0102,-0.51742 -1.70009,-0.51742 -0.68989,0 -1.26479,0.24639 -1.72472,0.73917 -0.4435,0.476353 -0.66525,1.125177 -0.66525,1.94647 v 2.24214 c 0,0.8213 0.22175,1.47834 0.66525,1.97112 0.45993,0.476353 1.03483,0.71453 1.72472,0.71453 z"
       id="text14"
       aria-label="CR-Fall River/N. Bedford" /></g></svg>
