<?xml version="1.0" encoding="UTF-8" standalone="no"?>
<!-- Created with Inkscape (http://www.inkscape.org/) -->

<svg
   width="1079.7332"
   height="94.999954"
   viewBox="0 0 285.67939 25.135404"
   version="1.1"
   id="svg1"
   xml:space="preserve"
   xmlns="http://www.w3.org/2000/svg"
   xmlns:svg="http://www.w3.org/2000/svg"><defs
     id="defs1" /><g
     id="layer1"
     transform="translate(-37.943379,-46.555027)"><rect
       style="fill:#7b388c;fill-opacity:1;stroke-width:0.479134"
       id="rect14"
       width="285.67938"
       height="25.135406"
       x="37.943378"
       y="46.555027"
       ry="1.593132" /><path
       style="font-weight:bold;font-size:24.6389px;line-height:22.1749px;font-family:'IBM Plex Sans';-inkscape-font-specification:'IBM Plex Sans Bold';text-align:center;text-anchor:middle;fill:#ffffff;stroke-width:0.484307"
       d="m 47.067773,66.785416 q -1.749362,0 -3.153779,-0.54205 -1.404418,-0.5667 -2.389974,-1.65081 -0.985556,-1.10875 -1.527611,-2.73492 -0.542056,-1.6508 -0.542056,-3.84367 0,-2.16822 0.542056,-3.84366 0.542055,-1.70009 1.527611,-2.83348 0.985556,-1.15803 2.389974,-1.74936 1.404417,-0.59133 3.153779,-0.59133 2.389973,0 3.942224,0.98555 1.552251,0.96092 2.488529,3.05523 l -3.227696,1.67544 q -0.344945,-1.08411 -1.084112,-1.72472 -0.714528,-0.66525 -2.118945,-0.66525 -1.650807,0 -2.661001,1.08411 -0.985556,1.05947 -0.985556,3.1045 v 2.75956 q 0,2.04503 0.985556,3.12914 1.010194,1.05947 2.661001,1.05947 1.379778,0 2.192862,-0.73917 0.837723,-0.7638 1.231945,-1.82327 l 3.055224,1.774 q -0.960917,1.97111 -2.537807,3.05522 -1.552251,1.05947 -3.942224,1.05947 z m 12.83689,-0.29566 H 56.15955 v -17.19796 h 8.155476 q 1.182668,0 2.143585,0.39423 0.960917,0.39422 1.626167,1.13339 0.689889,0.71452 1.059473,1.72472 0.369584,1.01019 0.369584,2.24214 0,1.74936 -0.788445,3.05522 -0.763806,1.30586 -2.340696,1.8972 l 3.37553,6.75106 h -4.163975 l -3.005946,-6.30756 h -2.68564 z m 3.942224,-9.46134 q 0.837723,0 1.305862,-0.41886 0.492778,-0.4435 0.492778,-1.28123 v -1.08411 q 0,-0.83772 -0.492778,-1.25658 -0.468139,-0.4435 -1.305862,-0.4435 h -3.942224 v 4.48428 z m 7.958375,3.72047 v -3.548 h 7.317754 v 3.548 z m 10.520807,5.74087 v -17.19796 h 11.407812 v 3.32626 h -7.662699 v 3.52336 h 6.529309 v 3.30161 h -6.529309 v 7.04673 z m 22.790941,0 q -0.98556,0 -1.65081,-0.61598 -0.64061,-0.61597 -0.81308,-1.6508 h -0.14784 q -0.29566,1.25658 -1.30586,1.92183 -1.01019,0.64061 -2.48853,0.64061 -1.946472,0 -2.981305,-1.03483 -1.034834,-1.03483 -1.034834,-2.73492 0,-2.04503 1.478334,-3.03058 1.502973,-1.0102 4.065415,-1.0102 h 2.04503 v -0.81308 q 0,-0.93628 -0.49278,-1.47834 -0.49277,-0.56669 -1.6508,-0.56669 -1.08411,0 -1.72472,0.46814 -0.640617,0.46814 -1.059478,1.05947 l -2.168223,-1.92183 q 0.788445,-1.15803 1.971112,-1.79864 1.207309,-0.66525 3.252339,-0.66525 2.75955,0 4.13933,1.2073 1.37978,1.20731 1.37978,3.52337 v 5.66694 h 1.20731 v 2.83348 z m -5.05098,-2.24214 q 0.91164,0 1.55225,-0.39423 0.66525,-0.39422 0.66525,-1.28122 v -1.52761 h -1.774 q -2.14358,0 -2.14358,1.45369 v 0.36959 q 0,0.71453 0.4435,1.05947 0.4435,0.32031 1.25658,0.32031 z m 13.13254,2.24214 q -1.87256,0 -2.75956,-0.91164 -0.86236,-0.91164 -0.86236,-2.63637 v -14.68478 h 3.64656 v 15.39931 h 1.62617 v 2.83348 z m 7.26848,0 q -1.87256,0 -2.75956,-0.91164 -0.86236,-0.91164 -0.86236,-2.63637 v -14.68478 h 3.64656 v 15.39931 h 1.62616 v 2.83348 z m 13.60066,0 h -3.74511 v -17.19796 h 8.15547 q 1.18267,0 2.14359,0.39423 0.96091,0.39422 1.62616,1.13339 0.68989,0.71452 1.05948,1.72472 0.36958,1.01019 0.36958,2.24214 0,1.74936 -0.78844,3.05522 -0.76381,1.30586 -2.3407,1.8972 l 3.37553,6.75106 h -4.16397 l -3.00595,-6.30756 h -2.68564 z m 3.94222,-9.46134 q 0.83773,0 1.30586,-0.41886 0.49278,-0.4435 0.49278,-1.28123 v -1.08411 q 0,-0.83772 -0.49278,-1.25658 -0.46813,-0.4435 -1.30586,-0.4435 h -3.94222 v 4.48428 z m 10.54545,-4.85386 q -1.10875,0 -1.62617,-0.49278 -0.49278,-0.51742 -0.49278,-1.30586 v -0.54206 q 0,-0.78845 0.49278,-1.28122 0.51742,-0.51742 1.62617,-0.51742 1.10875,0 1.60153,0.51742 0.51741,0.49277 0.51741,1.28122 v 0.54206 q 0,0.78844 -0.51741,1.30586 -0.49278,0.49278 -1.60153,0.49278 z m -1.82328,1.37977 h 3.64656 v 12.93543 h -3.64656 z m 9.80626,12.93543 -4.23789,-12.93543 h 3.59728 l 1.60153,5.22345 1.20731,4.68139 h 0.19711 l 1.2073,-4.68139 1.55225,-5.22345 h 3.44945 l -4.23789,12.93543 z m 15.695,0.29566 q -1.47833,0 -2.63636,-0.46814 -1.15803,-0.49277 -1.97111,-1.35514 -0.78845,-0.887 -1.20731,-2.14358 -0.39422,-1.25658 -0.39422,-2.80883 0,-1.52762 0.39422,-2.75956 0.39423,-1.25659 1.15803,-2.14359 0.78845,-0.887 1.92184,-1.35514 1.13339,-0.49277 2.58708,-0.49277 1.60153,0 2.73492,0.54205 1.15803,0.54206 1.87256,1.4537 0.73916,0.91164 1.05947,2.11894 0.34494,1.18267 0.34494,2.48853 v 1.08411 h -8.30331 v 0.19711 q 0,1.28123 0.68989,2.04503 0.68989,0.73917 2.16823,0.73917 1.13338,0 1.84791,-0.4435 0.71453,-0.46814 1.3305,-1.10875 l 1.82328,2.26678 q -0.86236,1.01019 -2.26678,1.57689 -1.37978,0.56669 -3.15378,0.56669 z m -0.0739,-10.84111 q -1.10875,0 -1.74936,0.73916 -0.61598,0.71453 -0.61598,1.92184 v 0.19711 h 4.53356 v -0.22175 q 0,-1.18267 -0.54206,-1.8972 -0.51741,-0.73916 -1.62616,-0.73916 z m 8.52506,10.54545 v -12.93543 h 3.64656 v 2.80884 h 0.1232 q 0.0986,-0.54206 0.34494,-1.03484 0.24639,-0.51741 0.64061,-0.91163 0.41886,-0.39423 0.98556,-0.61598 0.56669,-0.24639 1.3305,-0.24639 h 0.64061 v 3.40017 h -0.91164 q -1.60153,0 -2.38997,0.41886 -0.76381,0.41886 -0.76381,1.55225 v 7.56415 z m 7.7859,3.72047 7.34239,-21.95326 h 3.00595 l -7.34239,21.95326 z m 18.40523,-11.85131 -1.65081,-3.44945 h -0.0739 v 11.58029 h -3.52336 v -17.19796 h 4.09006 l 4.70603,8.13084 1.6508,3.44945 h 0.0739 v -11.58029 h 3.52336 v 17.19796 h -4.09005 z m 14.51234,8.40186 q -1.10875,0 -1.65081,-0.54205 -0.51742,-0.5667 -0.51742,-1.42906 v -0.49278 q 0,-0.86236 0.51742,-1.40441 0.54206,-0.5667 1.65081,-0.5667 1.10875,0 1.62616,0.5667 0.54206,0.54205 0.54206,1.40441 v 0.49278 q 0,0.86236 -0.54206,1.42906 -0.51741,0.54205 -1.62616,0.54205 z m 11.53098,-17.46898 h 8.35259 q 2.14358,0 3.32625,1.20731 1.20731,1.20731 1.20731,3.20306 0,0.98555 -0.27103,1.67544 -0.24639,0.68989 -0.68989,1.13339 -0.41886,0.4435 -1.01019,0.66525 -0.5667,0.19711 -1.23195,0.22175 v 0.14784 q 0.61597,0 1.28122,0.22175 0.68989,0.22175 1.25659,0.71452 0.56669,0.46814 0.93628,1.23195 0.39422,0.7638 0.39422,1.87256 0,1.01019 -0.34495,1.92183 -0.3203,0.887 -0.91164,1.55225 -0.59133,0.66525 -1.40441,1.05947 -0.81309,0.36959 -1.774,0.36959 h -9.1164 z m 3.74512,14.04418 h 4.3118 q 0.73917,0 1.15803,-0.39423 0.4435,-0.41886 0.4435,-1.15802 v -0.83773 q 0,-0.73916 -0.4435,-1.13339 -0.41886,-0.41886 -1.15803,-0.41886 h -4.3118 z m 0,-6.99745 h 3.72047 q 0.73917,0 1.15803,-0.41886 0.41886,-0.41886 0.41886,-1.15803 v -0.73917 q 0,-0.73916 -0.41886,-1.15803 -0.41886,-0.41886 -1.15803,-0.41886 h -3.72047 z m 17.88783,10.44689 q -1.47833,0 -2.63636,-0.46814 -1.15803,-0.49277 -1.97111,-1.35514 -0.78845,-0.887 -1.20731,-2.14358 -0.39422,-1.25658 -0.39422,-2.80883 0,-1.52762 0.39422,-2.75956 0.39423,-1.25659 1.15803,-2.14359 0.78845,-0.887 1.92184,-1.35514 1.13339,-0.49277 2.58708,-0.49277 1.60153,0 2.73492,0.54205 1.15803,0.54206 1.87256,1.4537 0.73916,0.91164 1.05947,2.11894 0.34494,1.18267 0.34494,2.48853 v 1.08411 h -8.30331 v 0.19711 q 0,1.28123 0.68989,2.04503 0.68989,0.73917 2.16823,0.73917 1.13338,0 1.84791,-0.4435 0.71453,-0.46814 1.3305,-1.10875 l 1.82328,2.26678 q -0.86236,1.01019 -2.26678,1.57689 -1.37978,0.56669 -3.15378,0.56669 z m -0.0739,-10.84111 q -1.10875,0 -1.74936,0.73916 -0.61598,0.71453 -0.61598,1.92184 v 0.19711 h 4.53356 v -0.22175 q 0,-1.18267 -0.54206,-1.8972 -0.51741,-0.73916 -1.62616,-0.73916 z m 16.4588,8.37722 h -0.1232 q -0.14783,0.51742 -0.46814,0.98556 -0.3203,0.4435 -0.78844,0.78844 -0.4435,0.32031 -1.03483,0.49278 -0.5667,0.19711 -1.18267,0.19711 -2.46389,0 -3.72048,-1.72472 -1.25658,-1.74936 -1.25658,-5.05097 0,-3.30162 1.25658,-5.02634 1.25659,-1.72472 3.72048,-1.72472 1.25658,0 2.2175,0.68989 0.98555,0.68989 1.25658,1.774 h 0.1232 v -7.46559 h 3.64655 v 18.23279 h -3.64655 z m -2.38998,-0.49277 q 1.03484,0 1.70009,-0.49278 0.68989,-0.51742 0.68989,-1.40442 v -3.81903 q 0,-0.887 -0.68989,-1.37978 -0.66525,-0.51742 -1.70009,-0.51742 -1.03483,0 -1.72472,0.73917 -0.66525,0.71453 -0.66525,1.94647 v 2.24214 q 0,1.23195 0.66525,1.97112 0.68989,0.71453 1.72472,0.71453 z m 10.07732,-7.44095 h -1.82328 v -2.83348 h 1.82328 v -1.52761 q 0,-1.87255 0.98555,-2.80883 0.98556,-0.96092 2.88275,-0.96092 h 2.36534 v 2.83347 h -2.58709 v 2.46389 h 2.58709 v 2.83348 h -2.58709 v 10.10195 h -3.64655 z m 13.40355,10.39761 q -1.42905,0 -2.56244,-0.46814 -1.10875,-0.46814 -1.8972,-1.35514 -0.7638,-0.887 -1.18267,-2.14358 -0.41886,-1.25658 -0.41886,-2.80883 0,-1.55226 0.41886,-2.80884 0.41887,-1.25658 1.18267,-2.11894 0.78845,-0.88701 1.8972,-1.35514 1.13339,-0.46814 2.56244,-0.46814 1.42906,0 2.53781,0.46814 1.13339,0.46813 1.89719,1.35514 0.78845,0.86236 1.20731,2.11894 0.41886,1.25658 0.41886,2.80884 0,1.55225 -0.41886,2.80883 -0.41886,1.25658 -1.20731,2.14358 -0.7638,0.887 -1.89719,1.35514 -1.10875,0.46814 -2.53781,0.46814 z m 0,-2.88275 q 1.08411,0 1.67545,-0.66525 0.59133,-0.66525 0.59133,-1.89719 v -2.63637 q 0,-1.23194 -0.59133,-1.89719 -0.59134,-0.66525 -1.67545,-0.66525 -1.08411,0 -1.67544,0.66525 -0.59134,0.66525 -0.59134,1.89719 v 2.63637 q 0,1.23194 0.59134,1.89719 0.59133,0.66525 1.67544,0.66525 z m 8.64825,2.58709 v -12.93543 h 3.64656 v 2.80884 h 0.12319 q 0.0986,-0.54206 0.34494,-1.03484 0.24639,-0.51741 0.64062,-0.91163 0.41886,-0.39423 0.98555,-0.61598 0.5667,-0.24639 1.3305,-0.24639 h 0.64061 v 3.40017 h -0.91164 q -1.60152,0 -2.38997,0.41886 -0.7638,0.41886 -0.7638,1.55225 v 7.56415 z m 17.78928,-2.16823 h -0.12319 q -0.14783,0.51742 -0.46814,0.98556 -0.3203,0.4435 -0.78844,0.78844 -0.4435,0.32031 -1.03484,0.49278 -0.56669,0.19711 -1.18267,0.19711 -2.46389,0 -3.72047,-1.72472 -1.25658,-1.74936 -1.25658,-5.05097 0,-3.30162 1.25658,-5.02634 1.25658,-1.72472 3.72047,-1.72472 1.25659,0 2.21751,0.68989 0.98555,0.68989 1.25658,1.774 h 0.12319 v -7.46559 h 3.64656 v 18.23279 h -3.64656 z m -2.38997,-0.49277 q 1.03483,0 1.70009,-0.49278 0.68988,-0.51742 0.68988,-1.40442 v -3.81903 q 0,-0.887 -0.68988,-1.37978 -0.66526,-0.51742 -1.70009,-0.51742 -1.03483,0 -1.72472,0.73917 -0.66525,0.71453 -0.66525,1.94647 v 2.24214 q 0,1.23195 0.66525,1.97112 0.68989,0.71453 1.72472,0.71453 z"
       id="text14"
       aria-label="CR-Fall River/N. Bedford" /></g></svg>
