<?xml version="1.0" encoding="UTF-8" standalone="no"?>
<!-- Created with Inkscape (http://www.inkscape.org/) -->

<svg
   width="400.00003"
   height="80.000061"
   viewBox="0 0 105.83334 21.166682"
   version="1.1"
   id="svg1"
   xml:space="preserve"
   xmlns="http://www.w3.org/2000/svg"
   xmlns:svg="http://www.w3.org/2000/svg"><defs
     id="defs1" /><g
     id="layer1"
     transform="translate(-48.557495,-101.75184)"><rect
       style="fill:#7b388c;fill-opacity:1;stroke-width:0.267616"
       id="rect10"
       width="105.83334"
       height="21.166677"
       x="48.557495"
       y="101.75183"
       ry="1.3415861" /><path
       style="font-weight:bold;font-size:24.6389px;line-height:22.1749px;font-family:'IBM Plex Sans';-inkscape-font-specification:'IBM Plex Sans Bold';text-align:center;text-anchor:middle;fill:#ffffff;stroke-width:0.484307"
       d="M 50.594889,121.4146 V 104.21664 H 62.0027 v 3.32625 h -7.662698 v 3.52337 h 6.529309 v 3.30161 h -6.529309 v 7.04673 z m 22.790936,0 c -0.657037,0 -1.207306,-0.20533 -1.650806,-0.61598 -0.427075,-0.41065 -0.698103,-0.96091 -0.813084,-1.6508 h -0.147833 c -0.197111,0.83772 -0.632399,1.47833 -1.305862,1.92183 -0.673463,0.42707 -1.502973,0.64061 -2.488529,0.64061 -1.297649,0 -2.291418,-0.34494 -2.981307,-1.03483 -0.689889,-0.68989 -1.034834,-1.60153 -1.034834,-2.73492 0,-1.36335 0.492778,-2.37355 1.478334,-3.03058 1.001982,-0.67347 2.357122,-1.0102 4.065419,-1.0102 h 2.045029 v -0.81308 c 0,-0.62419 -0.164259,-1.11697 -0.492778,-1.47834 -0.328519,-0.37779 -0.878788,-0.56669 -1.650807,-0.56669 -0.722741,0 -1.297648,0.15605 -1.724723,0.46814 -0.427074,0.31209 -0.780232,0.66525 -1.059473,1.05947 l -2.168223,-1.92183 c 0.52563,-0.77202 1.182667,-1.37157 1.971112,-1.79864 0.804871,-0.4435 1.888982,-0.66525 3.252335,-0.66525 1.839705,0 3.219483,0.40243 4.139335,1.2073 0.919853,0.80487 1.379779,1.97933 1.379779,3.52337 v 5.66694 h 1.207306 v 2.83348 z m -5.050974,-2.24214 c 0.607759,0 1.125176,-0.13141 1.55225,-0.39423 0.443501,-0.26281 0.665251,-0.68989 0.665251,-1.28122 v -1.52761 h -1.774001 c -1.429057,0 -2.143585,0.48456 -2.143585,1.45369 v 0.36959 c 0,0.47635 0.147834,0.82951 0.443501,1.05947 0.295667,0.21354 0.714528,0.32031 1.256584,0.32031 z m 11.333898,-12.07307 c -0.739167,0 -1.281222,-0.16426 -1.626167,-0.49277 -0.328519,-0.34495 -0.492778,-0.78024 -0.492778,-1.30587 v -0.54205 c 0,-0.52563 0.164259,-0.95271 0.492778,-1.28122 0.344945,-0.34495 0.887,-0.51742 1.626167,-0.51742 0.739167,0 1.27301,0.17247 1.601529,0.51742 0.344945,0.32851 0.517417,0.75559 0.517417,1.28122 v 0.54205 c 0,0.52563 -0.172472,0.96092 -0.517417,1.30587 -0.328519,0.32851 -0.862362,0.49277 -1.601529,0.49277 z m -1.823278,1.37978 h 3.646557 v 12.93543 h -3.646557 z m 7.046714,12.93543 v -12.93543 h 3.646558 v 2.80884 h 0.123194 c 0.06571,-0.36137 0.180688,-0.70632 0.344945,-1.03484 0.164259,-0.34494 0.377796,-0.64882 0.640611,-0.91164 0.279241,-0.26281 0.607759,-0.46814 0.985556,-0.61597 0.377797,-0.16426 0.821297,-0.24639 1.330501,-0.24639 h 0.640611 v 3.40017 h -0.911639 c -1.067686,0 -1.864344,0.13962 -2.389973,0.41886 -0.509204,0.27924 -0.763806,0.79666 -0.763806,1.55225 v 7.56415 z m 9.954094,0 v -12.93543 h 3.646558 v 2.19287 h 0.147833 c 0.229963,-0.68989 0.624186,-1.27302 1.182667,-1.74937 0.558483,-0.49277 1.322293,-0.73916 2.291423,-0.73916 0.887,0 1.64258,0.22175 2.26677,0.66525 0.62419,0.4435 1.0759,1.09232 1.35514,1.94647 h 0.0739 c 0.11498,-0.36137 0.28745,-0.69811 0.51741,-1.0102 0.24639,-0.32851 0.54206,-0.60775 0.887,-0.83772 0.34495,-0.22996 0.73096,-0.41064 1.15803,-0.54205 0.42707,-0.14783 0.887,-0.22175 1.37978,-0.22175 1.24837,0 2.20108,0.4435 2.85811,1.3305 0.67347,0.887 1.0102,2.1518 1.0102,3.79439 v 8.1062 h -3.64656 v -7.81054 c 0,-1.64259 -0.59133,-2.46389 -1.774,-2.46389 -0.54206,0 -1.03484,0.15605 -1.47834,0.46814 -0.4435,0.31209 -0.66525,0.78845 -0.66525,1.42906 v 8.37723 h -3.64655 v -7.81054 c 0,-1.64259 -0.59133,-2.46389 -1.774,-2.46389 -0.26281,0 -0.52563,0.0411 -0.788444,0.1232 -0.246389,0.0657 -0.476352,0.18065 -0.689889,0.34494 -0.197111,0.16426 -0.361371,0.36959 -0.492778,0.61598 -0.114981,0.22996 -0.172472,0.50099 -0.172472,0.81308 v 8.37723 z m 27.275241,0.29566 c -0.95271,0 -1.80685,-0.15605 -2.56244,-0.46814 -0.73917,-0.31209 -1.37157,-0.76381 -1.8972,-1.35514 -0.50921,-0.59133 -0.90343,-1.30586 -1.18267,-2.14358 -0.27924,-0.83772 -0.41886,-1.774 -0.41886,-2.80883 0,-1.03484 0.13962,-1.97112 0.41886,-2.80884 0.27924,-0.83772 0.67346,-1.54404 1.18267,-2.11895 0.52563,-0.59133 1.15803,-1.04304 1.8972,-1.35513 0.75559,-0.31209 1.60973,-0.46814 2.56244,-0.46814 0.95271,0 1.79864,0.15605 2.53781,0.46814 0.75559,0.31209 1.38799,0.7638 1.89719,1.35513 0.52563,0.57491 0.92807,1.28123 1.20731,2.11895 0.27924,0.83772 0.41886,1.774 0.41886,2.80884 0,1.03483 -0.13962,1.97111 -0.41886,2.80883 -0.27924,0.83772 -0.68168,1.55225 -1.20731,2.14358 -0.5092,0.59133 -1.1416,1.04305 -1.89719,1.35514 -0.73917,0.31209 -1.5851,0.46814 -2.53781,0.46814 z m 0,-2.88275 c 0.72274,0 1.28122,-0.22175 1.67545,-0.66525 0.39422,-0.4435 0.59133,-1.0759 0.59133,-1.89719 v -2.63637 c 0,-0.82129 -0.19711,-1.45369 -0.59133,-1.89719 -0.39423,-0.4435 -0.95271,-0.66525 -1.67545,-0.66525 -0.72274,0 -1.28122,0.22175 -1.67544,0.66525 -0.39423,0.4435 -0.59134,1.0759 -0.59134,1.89719 v 2.63637 c 0,0.82129 0.19711,1.45369 0.59134,1.89719 0.39422,0.4435 0.9527,0.66525 1.67544,0.66525 z m 8.64823,2.58709 v -12.93543 h 3.64656 v 2.19287 h 0.14783 c 0.22997,-0.67347 0.6324,-1.25659 1.20731,-1.74937 0.57491,-0.49277 1.37156,-0.73916 2.38997,-0.73916 1.3305,0 2.33248,0.4435 3.00595,1.3305 0.68989,0.887 1.03483,2.1518 1.03483,3.79439 v 8.1062 h -3.64656 v -7.81054 c 0,-0.83772 -0.13141,-1.45369 -0.39422,-1.84791 -0.26281,-0.41065 -0.73095,-0.61598 -1.40442,-0.61598 -0.29567,0 -0.58312,0.0411 -0.86236,0.1232 -0.27924,0.0657 -0.53384,0.18065 -0.7638,0.34494 -0.21354,0.16426 -0.38601,0.36959 -0.51742,0.61598 -0.13141,0.22996 -0.19711,0.50099 -0.19711,0.81308 v 8.37723 z m 19.21836,0 c -1.2648,0 -2.22572,-0.32031 -2.88275,-0.96092 -0.64061,-0.64061 -0.96092,-1.57689 -0.96092,-2.80884 v -6.33219 h -1.82328 v -2.83348 h 0.91164 c 0.49278,0 0.82951,-0.11498 1.0102,-0.34494 0.18068,-0.24639 0.27102,-0.59133 0.27102,-1.03484 v -2.11894 h 3.27698 v 3.49872 h 2.56244 v 2.83348 H 149.791 v 7.26847 h 2.36533 v 2.83348 z"
       id="text10"
       aria-label="CR-Fairmont" /></g></svg>
