<?xml version="1.0" encoding="UTF-8" standalone="no"?>
<!-- Created with Inkscape (http://www.inkscape.org/) -->

<svg
   width="919.99988"
   height="94.999969"
   viewBox="0 0 243.41663 25.135408"
   version="1.1"
   id="svg1"
   xml:space="preserve"
   xmlns="http://www.w3.org/2000/svg"
   xmlns:svg="http://www.w3.org/2000/svg"><defs
     id="defs1" /><g
     id="layer1"
     transform="translate(-50.385681,-72.965153)"><rect
       style="fill:#7b388c;fill-opacity:1;stroke-width:0.442275"
       id="rect15"
       width="243.41664"
       height="25.135406"
       x="50.385681"
       y="72.965149"
       ry="1.593132" /><path
       style="font-weight:bold;font-size:24.6389px;line-height:22.1749px;font-family:'IBM Plex Sans';-inkscape-font-specification:'IBM Plex Sans Bold';text-align:center;text-anchor:middle;fill:#ffffff;stroke-width:0.484307"
       d="m 59.531247,93.195543 q -1.749362,0 -3.153779,-0.54206 -1.404418,-0.5667 -2.389974,-1.65081 -0.985556,-1.10875 -1.527611,-2.73491 -0.542056,-1.65081 -0.542056,-3.84367 0,-2.168224 0.542056,-3.843664 0.542055,-1.700094 1.527611,-2.833484 0.985556,-1.15802 2.389974,-1.74936 1.404417,-0.59133 3.153779,-0.59133 2.389973,0 3.942224,0.98555 1.552251,0.96092 2.488529,3.05523 l -3.227696,1.675444 q -0.344945,-1.084114 -1.084112,-1.724724 -0.714528,-0.66525 -2.118945,-0.66525 -1.650807,0 -2.661001,1.08411 -0.985556,1.059474 -0.985556,3.104498 v 2.75956 q 0,2.04503 0.985556,3.12914 1.010194,1.05947 2.661001,1.05947 1.379778,0 2.192862,-0.73916 0.837723,-0.76381 1.231945,-1.82328 l 3.055224,1.774 q -0.960918,1.97111 -2.537807,3.05522 -1.552251,1.05948 -3.942224,1.05948 z m 12.83689,-0.29567 H 68.623024 V 75.701925 H 76.7785 q 1.182668,0 2.143585,0.39422 0.960917,0.39422 1.626167,1.13339 0.689889,0.71453 1.059473,1.72472 0.369583,1.0102 0.369583,2.242144 0,1.749354 -0.788444,3.055214 -0.763806,1.30587 -2.340696,1.8972 l 3.375529,6.75106 h -4.163974 l -3.005946,-6.30756 h -2.68564 z m 3.942224,-9.46134 q 0.837723,0 1.305862,-0.41886 0.492778,-0.443497 0.492778,-1.281214 v -1.08412 q 0,-0.837724 -0.492778,-1.256584 -0.468139,-0.4435 -1.305862,-0.4435 h -3.942224 v 4.484278 z m 7.958375,3.72047 v -3.548 h 7.317753 v 3.548 z m 10.520806,5.74087 V 75.701925 h 11.407808 v 3.32625 h -7.662698 v 3.523361 h 6.529308 v 3.301607 h -6.529308 v 7.04673 z m 13.477438,0 V 79.964455 h 3.64656 v 2.808831 h 0.12319 q 0.0986,-0.542057 0.34495,-1.034827 0.24639,-0.51742 0.64061,-0.91164 0.41886,-0.394234 0.98555,-0.615984 0.5667,-0.24638 1.3305,-0.24638 h 0.64062 v 3.400158 h -0.91164 q -1.60153,0 -2.38998,0.41887 -0.7638,0.41886 -0.7638,1.55225 v 7.56414 z m 19.16905,0 q -0.98556,0 -1.65081,-0.61597 -0.64061,-0.61598 -0.81308,-1.65081 h -0.14783 q -0.29567,1.25658 -1.30586,1.92183 -1.0102,0.64062 -2.48853,0.64062 -1.94648,0 -2.98131,-1.03484 -1.03483,-1.03483 -1.03483,-2.73492 0,-2.04503 1.47833,-3.03058 1.50297,-1.0102 4.06542,-1.0102 h 2.04503 v -0.81308 q 0,-0.93628 -0.49278,-1.47833 -0.49278,-0.566697 -1.65081,-0.566697 -1.08411,0 -1.72472,0.468137 -0.64061,0.46814 -1.05947,1.05947 l -2.16823,-1.921824 q 0.78845,-1.15803 1.97112,-1.798644 1.2073,-0.66525 3.25233,-0.66525 2.75956,0 4.13934,1.207304 1.37977,1.20731 1.37977,3.523364 v 5.66694 h 1.20731 v 2.83348 z m -5.05097,-2.24214 q 0.91164,0 1.55225,-0.39422 0.66525,-0.39423 0.66525,-1.28123 v -1.52761 h -1.774 q -2.14359,0 -2.14359,1.4537 v 0.36958 q 0,0.71453 0.4435,1.05947 0.4435,0.32031 1.25659,0.32031 z m 9.51062,2.24214 V 79.964455 h 3.64655 v 2.192864 h 0.14784 q 0.34494,-1.0102 1.2073,-1.749364 0.86236,-0.73917 2.38998,-0.73917 1.99575,0 3.00594,1.330504 1.03484,1.3305 1.03484,3.794384 v 8.1062 h -3.64656 v -7.81053 q 0,-1.25659 -0.39422,-1.84792 -0.39423,-0.615967 -1.40442,-0.615967 -0.4435,0 -0.86236,0.12319 -0.41886,0.0986 -0.76381,0.344947 -0.3203,0.24638 -0.51742,0.61597 -0.19711,0.34494 -0.19711,0.81308 v 8.37723 z m 14.6848,-18.232788 h 3.64656 v 10.767198 h 0.14783 l 1.60153,-2.38997 2.58708,-3.079858 h 4.04078 l -4.31181,4.952408 4.80459,7.98301 h -4.33645 l -2.90739,-5.46984 -1.62616,1.82328 v 3.64656 h -3.64656 z m 17.83855,18.232788 q -1.87255,0 -2.75955,-0.91164 -0.86236,-0.91164 -0.86236,-2.63636 V 74.667085 h 3.64655 v 15.399308 h 1.62617 v 2.83348 z m 5.66693,-14.315198 q -1.10875,0 -1.62617,-0.49278 -0.49277,-0.51742 -0.49277,-1.30586 v -0.54206 q 0,-0.78844 0.49277,-1.28122 0.51742,-0.51742 1.62617,-0.51742 1.10875,0 1.60153,0.51742 0.51742,0.49278 0.51742,1.28122 v 0.54206 q 0,0.78844 -0.51742,1.30586 -0.49278,0.49278 -1.60153,0.49278 z m -1.82328,1.37978 h 3.64656 v 12.935418 h -3.64656 z m 7.04672,12.935418 V 79.964455 h 3.64656 v 2.192864 h 0.14783 q 0.34494,-1.0102 1.20731,-1.749364 0.86236,-0.73917 2.38997,-0.73917 1.99575,0 3.00594,1.330504 1.03484,1.3305 1.03484,3.794384 v 8.1062 h -3.64656 v -7.81053 q 0,-1.25659 -0.39422,-1.84792 -0.39422,-0.615967 -1.40442,-0.615967 -0.4435,0 -0.86236,0.12319 -0.41886,0.0986 -0.76381,0.344947 -0.3203,0.24638 -0.51741,0.61597 -0.19711,0.34494 -0.19711,0.81308 v 8.37723 z m 13.05862,3.72047 7.3424,-21.953258 h 3.00594 l -7.34239,21.953258 z m 13.15716,-3.72047 V 75.701925 h 11.40781 v 3.32625 h -7.6627 v 3.523361 h 6.52931 v 3.301607 h -6.52931 v 7.04673 z m 18.67628,0.29567 q -1.42906,0 -2.56245,-0.46814 -1.10875,-0.46814 -1.89719,-1.35514 -0.76381,-0.887 -1.18267,-2.14359 -0.41886,-1.25658 -0.41886,-2.80883 0,-1.55225 0.41886,-2.80884 0.41886,-1.256574 1.18267,-2.118934 0.78844,-0.887 1.89719,-1.355144 1.13339,-0.46814 2.56245,-0.46814 1.42905,0 2.53781,0.46814 1.13338,0.468144 1.89719,1.355144 0.78845,0.86236 1.20731,2.118934 0.41886,1.25659 0.41886,2.80884 0,1.55225 -0.41886,2.80883 -0.41886,1.25659 -1.20731,2.14359 -0.76381,0.887 -1.89719,1.35514 -1.10876,0.46814 -2.53781,0.46814 z m 0,-2.88276 q 1.08411,0 1.67544,-0.66525 0.59134,-0.66525 0.59134,-1.89719 v -2.63636 q 0,-1.23195 -0.59134,-1.8972 -0.59133,-0.665247 -1.67544,-0.665247 -1.08411,0 -1.67545,0.665247 -0.59133,0.66525 -0.59133,1.8972 v 2.63636 q 0,1.23194 0.59133,1.89719 0.59134,0.66525 1.67545,0.66525 z m 6.9974,2.58709 4.26253,-6.57859 -4.21325,-6.356828 h 4.13934 l 2.41461,4.065408 h 0.0986 l 2.34069,-4.065408 h 3.84367 l -4.28717,6.480028 4.31181,6.45539 h -4.13934 l -2.48853,-4.21325 h -0.0985 l -2.38998,4.21325 z m 15.05436,-18.232788 h 3.64656 v 7.465594 h 0.1232 q 0.27102,-1.08411 1.23194,-1.774004 0.98556,-0.68989 2.24214,-0.68989 2.46389,0 3.72047,1.724724 1.25659,1.724714 1.25659,5.026334 0,3.30161 -1.25659,5.05097 -1.25658,1.72473 -3.72047,1.72473 -0.64061,0 -1.20731,-0.19712 -0.56669,-0.17247 -1.03483,-0.49277 -0.4435,-0.34495 -0.76381,-0.78845 -0.3203,-0.46814 -0.46813,-0.98555 h -0.1232 v 2.16822 h -3.64656 z m 6.03653,15.571788 q 1.03484,0 1.70009,-0.71453 0.68989,-0.73917 0.68989,-1.97111 v -2.24214 q 0,-1.23195 -0.68989,-1.94648 -0.66525,-0.739157 -1.70009,-0.739157 -1.03483,0 -1.72472,0.517407 -0.66525,0.49278 -0.66525,1.37978 v 3.81903 q 0,0.887 0.66525,1.40442 0.68989,0.49278 1.72472,0.49278 z m 14.192,2.95667 q -1.42906,0 -2.56245,-0.46814 -1.10875,-0.46814 -1.89719,-1.35514 -0.76381,-0.887 -1.18267,-2.14359 -0.41886,-1.25658 -0.41886,-2.80883 0,-1.55225 0.41886,-2.80884 0.41886,-1.256574 1.18267,-2.118934 0.78844,-0.887 1.89719,-1.355144 1.13339,-0.46814 2.56245,-0.46814 1.42905,0 2.5378,0.46814 1.13339,0.468144 1.8972,1.355144 0.78844,0.86236 1.20731,2.118934 0.41886,1.25659 0.41886,2.80884 0,1.55225 -0.41886,2.80883 -0.41887,1.25659 -1.20731,2.14359 -0.76381,0.887 -1.8972,1.35514 -1.10875,0.46814 -2.5378,0.46814 z m 0,-2.88276 q 1.08411,0 1.67544,-0.66525 0.59134,-0.66525 0.59134,-1.89719 v -2.63636 q 0,-1.23195 -0.59134,-1.8972 -0.59133,-0.665247 -1.67544,-0.665247 -1.08411,0 -1.67545,0.665247 -0.59133,0.66525 -0.59133,1.8972 v 2.63636 q 0,1.23194 0.59133,1.89719 0.59134,0.66525 1.67545,0.66525 z m 8.64823,2.58709 V 79.964455 h 3.64656 v 2.808831 h 0.12319 q 0.0986,-0.542057 0.34494,-1.034827 0.24639,-0.51742 0.64062,-0.91164 0.41886,-0.394234 0.98555,-0.615984 0.5667,-0.24638 1.3305,-0.24638 h 0.64061 v 3.400158 h -0.91164 q -1.60152,0 -2.38997,0.41887 -0.7638,0.41886 -0.7638,1.55225 v 7.56414 z m 15.07902,0.29567 q -1.42906,0 -2.56245,-0.46814 -1.10875,-0.46814 -1.89719,-1.35514 -0.76381,-0.887 -1.18267,-2.14359 -0.41886,-1.25658 -0.41886,-2.80883 0,-1.55225 0.41886,-2.80884 0.41886,-1.256574 1.18267,-2.118934 0.78844,-0.887 1.89719,-1.355144 1.13339,-0.46814 2.56245,-0.46814 1.42905,0 2.5378,0.46814 1.13339,0.468144 1.8972,1.355144 0.78844,0.86236 1.2073,2.118934 0.41887,1.25659 0.41887,2.80884 0,1.55225 -0.41887,2.80883 -0.41886,1.25659 -1.2073,2.14359 -0.76381,0.887 -1.8972,1.35514 -1.10875,0.46814 -2.5378,0.46814 z m 0,-2.88276 q 1.08411,0 1.67544,-0.66525 0.59134,-0.66525 0.59134,-1.89719 v -2.63636 q 0,-1.23195 -0.59134,-1.8972 -0.59133,-0.665247 -1.67544,-0.665247 -1.08412,0 -1.67545,0.665247 -0.59133,0.66525 -0.59133,1.8972 v 2.63636 q 0,1.23194 0.59133,1.89719 0.59133,0.66525 1.67545,0.66525 z"
       id="text15"
       aria-label="CR-Franklin/Foxboro" /></g></svg>
