<?xml version="1.0" encoding="UTF-8" standalone="no"?>
<!-- Created with Inkscape (http://www.inkscape.org/) -->

<svg
   width="482.14288"
   height="79.999939"
   viewBox="0 0 127.56697 21.16665"
   version="1.1"
   id="svg1"
   xml:space="preserve"
   xmlns="http://www.w3.org/2000/svg"
   xmlns:svg="http://www.w3.org/2000/svg"><defs
     id="defs1" /><g
     id="layer1"
     transform="translate(-49.26807,-147.78767)"><rect
       style="fill:#7b388c;fill-opacity:1;stroke-width:0.293813"
       id="rect19"
       width="127.56696"
       height="21.16666"
       x="49.26807"
       y="147.78766"
       ry="1.3415852" /><path
       style="font-weight:bold;font-size:24.6389px;line-height:22.1749px;font-family:'IBM Plex Sans';-inkscape-font-specification:'IBM Plex Sans Bold';text-align:center;text-anchor:middle;fill:#ffffff;stroke-width:0.484307"
       d="m 62.677278,164.60463 h -0.12319 c -0.13141,0.87057 -0.57491,1.59332 -1.3305,2.16823 -0.75559,0.57491 -1.78221,0.86236 -3.07986,0.86236 -0.98556,0 -1.90541,-0.1889 -2.75956,-0.5667 -0.85415,-0.37779 -1.60153,-0.93627 -2.24214,-1.67544 -0.64061,-0.73917 -1.1416,-1.65902 -1.50297,-2.75956 -0.36137,-1.10054 -0.54206,-2.37355 -0.54206,-3.81903 0,-1.44548 0.1889,-2.7267 0.5667,-3.84367 0.37779,-1.11696 0.90342,-2.05324 1.57688,-2.80883 0.68989,-0.75559 1.51119,-1.3305 2.46389,-1.72473 0.95271,-0.39422 2.01218,-0.59133 3.17842,-0.59133 1.54404,0 2.87454,0.33673 3.9915,1.0102 1.11697,0.65703 1.99576,1.6508 2.63637,2.9813 l -3.05523,1.74936 c -0.26281,-0.67346 -0.67346,-1.24015 -1.23194,-1.70008 -0.55848,-0.47635 -1.33871,-0.71453 -2.3407,-0.71453 -1.16624,0 -2.0943,0.33673 -2.78419,1.0102 -0.68989,0.67346 -1.03484,1.73293 -1.03484,3.17842 v 2.75955 c 0,1.42906 0.34495,2.48853 1.03484,3.17842 0.68989,0.67347 1.61795,1.0102 2.78419,1.0102 0.45993,0 0.89521,-0.0493 1.30586,-0.14784 0.41065,-0.11498 0.77203,-0.27924 1.08412,-0.49278 0.31209,-0.22996 0.55027,-0.50099 0.71452,-0.81308 0.18069,-0.31209 0.27103,-0.68168 0.27103,-1.10875 v -0.86236 h -3.20305 v -3.12914 h 6.77569 v 9.58453 h -3.15378 z m 6.60323,2.73492 v -12.93542 h 3.64655 v 2.80883 h 0.1232 c 0.0657,-0.36137 0.18071,-0.70631 0.34494,-1.03483 0.16426,-0.34495 0.3778,-0.64883 0.64061,-0.91164 0.27925,-0.26281 0.60777,-0.46814 0.98556,-0.61597 0.37779,-0.16426 0.82129,-0.24639 1.3305,-0.24639 h 0.64061 v 3.40017 h -0.91164 c -1.06769,0 -1.86434,0.13962 -2.38997,0.41886 -0.50921,0.27924 -0.76381,0.79666 -0.76381,1.55225 v 7.56414 z m 15.22684,0.29567 c -0.98555,0 -1.86434,-0.15605 -2.63636,-0.46814 -0.77202,-0.32852 -1.42906,-0.78023 -1.97111,-1.35514 -0.52563,-0.59133 -0.92807,-1.30586 -1.20731,-2.14359 -0.26281,-0.83772 -0.39422,-1.774 -0.39422,-2.80883 0,-1.01841 0.13141,-1.93826 0.39422,-2.75956 0.26282,-0.83772 0.64883,-1.55225 1.15803,-2.14358 0.52563,-0.59133 1.16625,-1.04305 1.92184,-1.35514 0.75559,-0.32852 1.61795,-0.49278 2.58708,-0.49278 1.06769,0 1.97933,0.18069 2.73492,0.54206 0.77202,0.36137 1.3962,0.84593 1.87255,1.45369 0.49278,0.60776 0.84594,1.31408 1.05948,2.11895 0.22996,0.78844 0.34494,1.61795 0.34494,2.48853 v 1.08411 h -8.30331 v 0.19711 c 0,0.85415 0.22996,1.53582 0.68989,2.04503 0.45993,0.49277 1.18267,0.73916 2.16823,0.73916 0.75559,0 1.37156,-0.14783 1.84791,-0.4435 0.47635,-0.31209 0.91985,-0.68167 1.3305,-1.10875 l 1.82328,2.26678 c -0.57491,0.67347 -1.3305,1.1991 -2.26678,1.57689 -0.91985,0.3778 -1.97111,0.5667 -3.15378,0.5667 z m -0.0739,-10.84112 c -0.73917,0 -1.32229,0.24639 -1.74936,0.73917 -0.41065,0.47635 -0.61597,1.11696 -0.61597,1.92183 v 0.19711 h 4.53356 v -0.22175 c 0,-0.78844 -0.18069,-1.42084 -0.54206,-1.89719 -0.34495,-0.49278 -0.887,-0.73917 -1.62617,-0.73917 z m 13.92099,10.84112 c -0.98556,0 -1.86435,-0.15605 -2.63636,-0.46814 -0.77202,-0.32852 -1.42906,-0.78023 -1.97112,-1.35514 -0.52563,-0.59133 -0.92806,-1.30586 -1.2073,-2.14359 -0.26281,-0.83772 -0.39422,-1.774 -0.39422,-2.80883 0,-1.01841 0.13141,-1.93826 0.39422,-2.75956 0.26281,-0.83772 0.64882,-1.55225 1.15803,-2.14358 0.52563,-0.59133 1.16624,-1.04305 1.92183,-1.35514 0.75559,-0.32852 1.61796,-0.49278 2.58709,-0.49278 1.06768,0 1.979322,0.18069 2.734912,0.54206 0.77202,0.36137 1.39621,0.84593 1.87256,1.45369 0.49278,0.60776 0.84594,1.31408 1.05947,2.11895 0.22997,0.78844 0.34495,1.61795 0.34495,2.48853 v 1.08411 h -8.303312 v 0.19711 c 0,0.85415 0.22996,1.53582 0.68989,2.04503 0.45993,0.49277 1.18267,0.73916 2.16822,0.73916 0.75559,0 1.371572,-0.14783 1.847922,-0.4435 0.47635,-0.31209 0.91985,-0.68167 1.3305,-1.10875 l 1.82328,2.26678 c -0.57491,0.67347 -1.3305,1.1991 -2.26678,1.57689 -0.91985,0.3778 -1.971112,0.5667 -3.153782,0.5667 z m -0.0739,-10.84112 c -0.73917,0 -1.32229,0.24639 -1.74936,0.73917 -0.41065,0.47635 -0.61598,1.11696 -0.61598,1.92183 v 0.19711 h 4.533562 v -0.22175 c 0,-0.78844 -0.18068,-1.42084 -0.542052,-1.89719 -0.34495,-0.49278 -0.887,-0.73917 -1.62617,-0.73917 z m 8.525072,10.54545 v -12.93542 h 3.64655 v 2.19286 H 110.6 c 0.22996,-0.67347 0.63239,-1.25659 1.2073,-1.74936 0.57491,-0.49278 1.37157,-0.73917 2.38998,-0.73917 1.3305,0 2.33248,0.4435 3.00594,1.3305 0.68989,0.887 1.03484,2.1518 1.03484,3.79439 v 8.1062 h -3.64656 v -7.81053 c 0,-0.83773 -0.13141,-1.4537 -0.39422,-1.84792 -0.26282,-0.41065 -0.73096,-0.61597 -1.40442,-0.61597 -0.29567,0 -0.58312,0.0411 -0.86236,0.12319 -0.27924,0.0657 -0.53384,0.18072 -0.76381,0.34495 -0.21353,0.16426 -0.386,0.36958 -0.51741,0.61597 -0.13141,0.22997 -0.19712,0.50099 -0.19712,0.81308 v 8.37723 z m 14.6848,-18.23279 h 3.64655 v 7.46559 h 0.1232 c 0.18069,-0.72274 0.59133,-1.31407 1.23194,-1.774 0.65704,-0.45993 1.40442,-0.68989 2.24214,-0.68989 1.64259,0 2.88275,0.57491 3.72048,1.72472 0.83772,1.14982 1.25658,2.82527 1.25658,5.02634 0,2.20107 -0.41886,3.88473 -1.25658,5.05097 -0.83773,1.14982 -2.07789,1.72473 -3.72048,1.72473 -0.42707,0 -0.82951,-0.0657 -1.2073,-0.19711 -0.3778,-0.11499 -0.72275,-0.27925 -1.03484,-0.49278 -0.29567,-0.22997 -0.55027,-0.49278 -0.7638,-0.78845 -0.21354,-0.31209 -0.36959,-0.64061 -0.46814,-0.98555 h -0.1232 v 2.16822 h -3.64655 z m 6.03653,15.57179 c 0.68989,0 1.25658,-0.23818 1.70008,-0.71453 0.45993,-0.49278 0.68989,-1.14982 0.68989,-1.97111 v -2.24214 c 0,-0.8213 -0.22996,-1.47012 -0.68989,-1.94647 -0.4435,-0.49278 -1.01019,-0.73917 -1.70008,-0.73917 -0.68989,0 -1.2648,0.17247 -1.72473,0.51742 -0.4435,0.32851 -0.66525,0.78844 -0.66525,1.37977 v 3.81903 c 0,0.59133 0.22175,1.05947 0.66525,1.40442 0.45993,0.32852 1.03484,0.49278 1.72473,0.49278 z m 16.58197,0.49278 h -0.12319 c -0.11499,0.32852 -0.27103,0.64061 -0.46814,0.93628 -0.18069,0.29567 -0.41886,0.55848 -0.71453,0.78844 -0.29567,0.22996 -0.64882,0.41065 -1.05947,0.54206 -0.39423,0.13141 -0.85415,0.19711 -1.37978,0.19711 -1.3305,0 -2.3407,-0.43529 -3.03059,-1.30586 -0.67346,-0.88701 -1.01019,-2.15181 -1.01019,-3.7944 v -8.13083 h 3.64656 v 7.81053 c 0,0.78845 0.13962,1.39621 0.41886,1.82328 0.27924,0.42707 0.75559,0.64061 1.42905,0.64061 0.27924,0 0.55848,-0.0411 0.83773,-0.1232 0.27924,-0.0821 0.52563,-0.19711 0.73916,-0.34494 0.21354,-0.16426 0.38601,-0.36137 0.51742,-0.59133 0.13141,-0.22997 0.19711,-0.501 0.19711,-0.81309 v -8.40186 h 3.64656 v 12.93542 h -3.64656 z m 11.43247,2.46389 c -1.24837,0 -2.29963,-0.19711 -3.15378,-0.59134 -0.85415,-0.41065 -1.61795,-0.98555 -2.29141,-1.72472 l 2.14358,-2.16822 c 0.45993,0.5092 0.96913,0.91163 1.52761,1.2073 0.55848,0.29567 1.19088,0.4435 1.8972,0.4435 0.72274,0 1.22373,-0.10677 1.50297,-0.3203 0.27924,-0.22997 0.41886,-0.53385 0.41886,-0.91164 0,-0.60776 -0.43529,-0.96913 -1.30586,-1.08411 l -1.40442,-0.17248 c -2.90739,-0.36137 -4.36108,-1.69187 -4.36108,-3.9915 0,-0.62419 0.11498,-1.19088 0.34494,-1.70008 0.24639,-0.52563 0.58313,-0.96913 1.0102,-1.3305 0.4435,-0.3778 0.96913,-0.66525 1.57689,-0.86236 0.62418,-0.21354 1.32228,-0.32031 2.0943,-0.32031 0.67347,0 1.2648,0.0493 1.774,0.14783 0.52563,0.0821 0.98556,0.21354 1.37978,0.39423 0.41065,0.16426 0.78023,0.3778 1.10875,0.64061 0.34495,0.24639 0.68168,0.52563 1.0102,0.83772 l -2.09431,2.14358 c -0.41065,-0.41065 -0.87879,-0.73095 -1.40442,-0.96091 -0.5092,-0.24639 -1.03483,-0.36959 -1.57689,-0.36959 -0.62418,0 -1.06768,0.0986 -1.3305,0.29567 -0.26281,0.19711 -0.39422,0.45993 -0.39422,0.78845 0,0.34494 0.0903,0.61597 0.27103,0.81308 0.19711,0.18069 0.55848,0.31209 1.08411,0.39422 l 1.4537,0.19711 c 2.84169,0.3778 4.26253,1.67545 4.26253,3.89295 0,0.62419 -0.13141,1.19909 -0.39423,1.72472 -0.26281,0.52563 -0.64061,0.98556 -1.13339,1.37978 -0.47635,0.3778 -1.05947,0.67347 -1.74936,0.887 -0.67346,0.21354 -1.42905,0.32031 -2.26678,0.32031 z m 8.03228,-18.52846 h 3.64656 v 7.49023 h 0.14783 c 0.22996,-0.67347 0.63239,-1.25659 1.2073,-1.74936 0.57491,-0.49278 1.37157,-0.73917 2.38998,-0.73917 1.3305,0 2.33248,0.4435 3.00594,1.3305 0.68989,0.887 1.03484,2.1518 1.03484,3.79439 v 8.1062 h -3.64656 v -7.81053 c 0,-0.83773 -0.13141,-1.4537 -0.39422,-1.84792 -0.26281,-0.41065 -0.73095,-0.61597 -1.40442,-0.61597 -0.29567,0 -0.58312,0.0411 -0.86236,0.12319 -0.27924,0.0657 -0.53384,0.18072 -0.76381,0.34495 -0.21353,0.16426 -0.386,0.36958 -0.51741,0.61597 -0.13141,0.22997 -0.19711,0.50099 -0.19711,0.81308 v 8.37723 h -3.64656 z"
       id="text19"
       aria-label="CR-Greenbush" /></g></svg>
