<?xml version="1.0" encoding="UTF-8" standalone="no"?>
<!-- Created with Inkscape (http://www.inkscape.org/) -->

<svg
   width="645.05078"
   height="80"
   viewBox="0 0 170.66968 21.166666"
   version="1.1"
   id="svg1"
   xml:space="preserve"
   xmlns="http://www.w3.org/2000/svg"
   xmlns:svg="http://www.w3.org/2000/svg"><defs
     id="defs1" /><g
     id="layer1"
     transform="translate(-165.91809,-187.36143)"><rect
       style="fill:#7b388c;fill-opacity:1;stroke-width:0.339844"
       id="rect19"
       width="170.66968"
       height="21.16666"
       x="165.91811"
       y="187.36143"
       ry="1.3415852" /><path
       style="font-weight:bold;font-size:24.6389px;line-height:22.1749px;font-family:'IBM Plex Sans';-inkscape-font-specification:'IBM Plex Sans Bold';text-align:center;text-anchor:middle;fill:#ffffff;stroke-width:0.484307"
       d="m 175.62383,207.20896 q -1.74937,0 -3.15378,-0.54206 -1.40442,-0.56669 -2.38998,-1.6508 -0.98555,-1.10876 -1.52761,-2.73492 -0.54205,-1.65081 -0.54205,-3.84367 0,-2.16822 0.54205,-3.84367 0.54206,-1.70008 1.52761,-2.83347 0.98556,-1.15803 2.38998,-1.74937 1.40441,-0.59133 3.15378,-0.59133 2.38997,0 3.94222,0.98556 1.55225,0.96091 2.48853,3.05522 l -3.2277,1.67545 q -0.34494,-1.08412 -1.08411,-1.72473 -0.71453,-0.66525 -2.11894,-0.66525 -1.65081,0 -2.66101,1.08411 -0.98555,1.05948 -0.98555,3.10451 v 2.75955 q 0,2.04503 0.98555,3.12914 1.0102,1.05948 2.66101,1.05948 1.37977,0 2.19286,-0.73917 0.83772,-0.76381 1.23194,-1.82328 l 3.05523,1.774 q -0.96092,1.97111 -2.53781,3.05522 -1.55225,1.05948 -3.94222,1.05948 z m 12.83689,-0.29567 h -3.74512 v -17.19795 h 8.15548 q 1.18267,0 2.14358,0.39422 0.96092,0.39422 1.62617,1.13339 0.68989,0.71453 1.05947,1.72472 0.36959,1.0102 0.36959,2.24214 0,1.74936 -0.78845,3.05523 -0.7638,1.30586 -2.34069,1.89719 l 3.37553,6.75106 h -4.16398 l -3.00594,-6.30756 h -2.68564 z m 3.94222,-9.46134 q 0.83772,0 1.30586,-0.41886 0.49278,-0.4435 0.49278,-1.28122 v -1.08411 q 0,-0.83773 -0.49278,-1.25659 -0.46814,-0.4435 -1.30586,-0.4435 h -3.94222 v 4.48428 z m 7.95838,3.72048 v -3.54801 h 7.31775 v 3.54801 z m 21.8054,3.00594 h -0.12319 q -0.19711,1.30586 -1.3305,2.16823 -1.13339,0.86236 -3.07986,0.86236 -1.47834,0 -2.75956,-0.5667 -1.28122,-0.56669 -2.24214,-1.67544 -0.96092,-1.10875 -1.50297,-2.75956 -0.54206,-1.65081 -0.54206,-3.81903 0,-2.16822 0.5667,-3.84367 0.56669,-1.67544 1.57688,-2.80883 1.03484,-1.13339 2.46389,-1.72473 1.42906,-0.59133 3.17842,-0.59133 2.31606,0 3.9915,1.0102 1.67545,0.98555 2.63637,2.9813 l -3.05523,1.74936 q -0.39422,-1.01019 -1.23194,-1.70008 -0.83772,-0.71453 -2.3407,-0.71453 -1.74936,0 -2.78419,1.0102 -1.03484,1.01019 -1.03484,3.17842 v 2.75955 q 0,2.14359 1.03484,3.17842 1.03483,1.0102 2.78419,1.0102 0.68989,0 1.30586,-0.14784 0.61598,-0.17247 1.08412,-0.49278 0.46814,-0.34494 0.71452,-0.81308 0.27103,-0.46814 0.27103,-1.10875 v -0.86236 h -3.20305 v -3.12914 h 6.77569 v 9.58453 h -3.15378 z m 6.60323,2.73492 v -12.93542 h 3.64655 v 2.80883 h 0.1232 q 0.0986,-0.54205 0.34494,-1.03483 0.24639,-0.51742 0.64061,-0.91164 0.41887,-0.39422 0.98556,-0.61597 0.56669,-0.24639 1.3305,-0.24639 h 0.64061 v 3.40017 h -0.91164 q -1.60153,0 -2.38997,0.41886 -0.76381,0.41886 -0.76381,1.55225 v 7.56414 z m 15.22684,0.29567 q -1.47833,0 -2.63636,-0.46814 -1.15803,-0.49278 -1.97111,-1.35514 -0.78845,-0.887 -1.20731,-2.14359 -0.39422,-1.25658 -0.39422,-2.80883 0,-1.52761 0.39422,-2.75956 0.39423,-1.25658 1.15803,-2.14358 0.78845,-0.887 1.92184,-1.35514 1.13339,-0.49278 2.58708,-0.49278 1.60153,0 2.73492,0.54206 1.15803,0.54205 1.87255,1.45369 0.73917,0.91164 1.05948,2.11895 0.34494,1.18266 0.34494,2.48853 v 1.08411 h -8.30331 v 0.19711 q 0,1.28122 0.68989,2.04503 0.68989,0.73916 2.16823,0.73916 1.13338,0 1.84791,-0.4435 0.71453,-0.46813 1.3305,-1.10875 l 1.82328,2.26678 q -0.86236,1.0102 -2.26678,1.57689 -1.37978,0.5667 -3.15378,0.5667 z m -0.0739,-10.84112 q -1.10875,0 -1.74936,0.73917 -0.61597,0.71453 -0.61597,1.92183 v 0.19711 h 4.53356 v -0.22175 q 0,-1.18266 -0.54206,-1.89719 -0.51742,-0.73917 -1.62617,-0.73917 z m 13.92099,10.84112 q -1.47834,0 -2.63636,-0.46814 -1.15803,-0.49278 -1.97112,-1.35514 -0.78844,-0.887 -1.2073,-2.14359 -0.39422,-1.25658 -0.39422,-2.80883 0,-1.52761 0.39422,-2.75956 0.39422,-1.25658 1.15803,-2.14358 0.78844,-0.887 1.92183,-1.35514 1.13339,-0.49278 2.58709,-0.49278 1.60152,0 2.73491,0.54206 1.15803,0.54205 1.87256,1.45369 0.73917,0.91164 1.05947,2.11895 0.34495,1.18266 0.34495,2.48853 v 1.08411 h -8.30331 v 0.19711 q 0,1.28122 0.68989,2.04503 0.68989,0.73916 2.16822,0.73916 1.13339,0 1.84792,-0.4435 0.71453,-0.46813 1.3305,-1.10875 l 1.82328,2.26678 q -0.86236,1.0102 -2.26678,1.57689 -1.37978,0.5667 -3.15378,0.5667 z m -0.0739,-10.84112 q -1.10875,0 -1.74936,0.73917 -0.61598,0.71453 -0.61598,1.92183 v 0.19711 h 4.53356 v -0.22175 q 0,-1.18266 -0.54205,-1.89719 -0.51742,-0.73917 -1.62617,-0.73917 z m 8.52507,10.54545 v -12.93542 h 3.64655 v 2.19286 h 0.14784 q 0.34494,-1.0102 1.2073,-1.74936 0.86237,-0.73917 2.38998,-0.73917 1.99575,0 3.00594,1.3305 1.03484,1.3305 1.03484,3.79439 v 8.1062 h -3.64656 v -7.81053 q 0,-1.25659 -0.39422,-1.84792 -0.39423,-0.61597 -1.40442,-0.61597 -0.4435,0 -0.86236,0.12319 -0.41886,0.0986 -0.76381,0.34495 -0.3203,0.24639 -0.51741,0.61597 -0.19712,0.34495 -0.19712,0.81308 v 8.37723 z m 14.6848,-18.23279 h 3.64655 v 7.46559 h 0.1232 q 0.27103,-1.08411 1.23194,-1.774 0.98556,-0.68989 2.24214,-0.68989 2.46389,0 3.72048,1.72472 1.25658,1.72473 1.25658,5.02634 0,3.30161 -1.25658,5.05097 -1.25659,1.72473 -3.72048,1.72473 -0.64061,0 -1.2073,-0.19711 -0.5667,-0.17248 -1.03484,-0.49278 -0.4435,-0.34495 -0.7638,-0.78845 -0.32031,-0.46814 -0.46814,-0.98555 h -0.1232 v 2.16822 h -3.64655 z m 6.03653,15.57179 q 1.03483,0 1.70008,-0.71453 0.68989,-0.73917 0.68989,-1.97111 v -2.24214 q 0,-1.23195 -0.68989,-1.94647 -0.66525,-0.73917 -1.70008,-0.73917 -1.03484,0 -1.72473,0.51742 -0.66525,0.49277 -0.66525,1.37977 v 3.81903 q 0,0.887 0.66525,1.40442 0.68989,0.49278 1.72473,0.49278 z m 16.58197,0.49278 h -0.12319 q -0.17248,0.49278 -0.46814,0.93628 -0.27103,0.4435 -0.71453,0.78844 -0.4435,0.34494 -1.05947,0.54206 -0.59134,0.19711 -1.37978,0.19711 -1.99575,0 -3.03059,-1.30586 -1.01019,-1.33051 -1.01019,-3.7944 v -8.13083 h 3.64656 v 7.81053 q 0,1.18267 0.41886,1.82328 0.41886,0.64061 1.42905,0.64061 0.41886,0 0.83773,-0.1232 0.41886,-0.12319 0.73916,-0.34494 0.32031,-0.24639 0.51742,-0.59133 0.19711,-0.34495 0.19711,-0.81309 v -8.40186 h 3.64656 v 12.93542 h -3.64656 z m 11.43247,2.46389 q -1.87255,0 -3.15378,-0.59134 -1.28122,-0.61597 -2.29141,-1.72472 l 2.14358,-2.16822 q 0.68989,0.7638 1.52761,1.2073 0.83772,0.4435 1.8972,0.4435 1.08411,0 1.50297,-0.3203 0.41886,-0.34495 0.41886,-0.91164 0,-0.91164 -1.30586,-1.08411 l -1.40442,-0.17248 q -4.36108,-0.54205 -4.36108,-3.9915 0,-0.93628 0.34494,-1.70008 0.36959,-0.78845 1.0102,-1.3305 0.66525,-0.5667 1.57689,-0.86236 0.93627,-0.32031 2.0943,-0.32031 1.0102,0 1.774,0.14783 0.78845,0.1232 1.37978,0.39423 0.61597,0.24639 1.10875,0.64061 0.51742,0.36958 1.0102,0.83772 l -2.09431,2.14358 q -0.61597,-0.61597 -1.40442,-0.96091 -0.7638,-0.36959 -1.57689,-0.36959 -0.93627,0 -1.3305,0.29567 -0.39422,0.29567 -0.39422,0.78845 0,0.51741 0.27103,0.81308 0.29567,0.27103 1.08411,0.39422 l 1.4537,0.19711 q 4.26253,0.5667 4.26253,3.89295 0,0.93628 -0.39423,1.72472 -0.39422,0.78845 -1.13339,1.37978 -0.71452,0.5667 -1.74936,0.887 -1.01019,0.32031 -2.26678,0.32031 z m 8.03228,-18.52846 h 3.64656 v 7.49023 h 0.14783 q 0.34494,-1.0102 1.2073,-1.74936 0.86237,-0.73917 2.38998,-0.73917 1.99575,0 3.00594,1.3305 1.03484,1.3305 1.03484,3.79439 v 8.1062 h -3.64656 v -7.81053 q 0,-1.25659 -0.39422,-1.84792 -0.39422,-0.61597 -1.40442,-0.61597 -0.4435,0 -0.86236,0.12319 -0.41886,0.0986 -0.76381,0.34495 -0.3203,0.24639 -0.51741,0.61597 -0.19711,0.34495 -0.19711,0.81308 v 8.37723 h -3.64656 z"
       id="text19"
       aria-label="CR-Greenbush" /></g></svg>
