<?xml version="1.0" encoding="UTF-8" standalone="no"?>
<!-- Created with Inkscape (http://www.inkscape.org/) -->

<svg
   width="559.73322"
   height="80.000046"
   viewBox="0 0 148.09608 21.166678"
   version="1.1"
   id="svg1"
   xml:space="preserve"
   xmlns="http://www.w3.org/2000/svg"
   xmlns:svg="http://www.w3.org/2000/svg"><defs
     id="defs1" /><g
     id="layer1"
     transform="translate(-38.67297,-1.1191826)"><rect
       style="fill:#7b388c;fill-opacity:1;stroke-width:0.316573"
       id="rect12"
       width="148.09607"
       height="21.166677"
       x="38.67297"
       y="1.1191826"
       ry="1.3415861" /><path
       style="font-weight:bold;font-size:24.6389px;line-height:22.1749px;font-family:'IBM Plex Sans';-inkscape-font-specification:'IBM Plex Sans Bold';text-align:center;text-anchor:middle;fill:#ffffff;stroke-width:0.484307"
       d="m 47.624997,21.077614 q -1.749362,0 -3.153779,-0.54205 -1.404418,-0.5667 -2.389974,-1.65081 -0.985556,-1.10875 -1.527612,-2.73492 -0.542055,-1.65081 -0.542055,-3.84367 0,-2.16822 0.542055,-3.8436703 0.542056,-1.70008 1.527612,-2.83347 0.985556,-1.15803 2.389974,-1.74936 1.404417,-0.59134 3.153779,-0.59134 2.389973,0 3.942224,0.98556 1.552251,0.96092 2.488529,3.05522 l -3.227696,1.67545 q -0.344945,-1.08411 -1.084112,-1.72472 -0.714528,-0.66525 -2.118945,-0.66525 -1.650807,0 -2.661001,1.08411 -0.985556,1.05947 -0.985556,3.1045003 v 2.75956 q 0,2.04503 0.985556,3.12914 1.010194,1.05947 2.661001,1.05947 1.379778,0 2.192862,-0.73917 0.837722,-0.7638 1.231945,-1.82328 l 3.055224,1.774 q -0.960918,1.97112 -2.537807,3.05523 -1.552251,1.05947 -3.942224,1.05947 z m 12.83689,-0.29567 H 56.716774 V 3.5839937 h 8.155476 q 1.182668,0 2.143585,0.39422 0.960917,0.39423 1.626167,1.13339 0.689889,0.71453 1.059473,1.72473 0.369583,1.01019 0.369583,2.24214 0,1.7493603 -0.788444,3.0552203 -0.763806,1.30586 -2.340696,1.8972 l 3.375529,6.75105 h -4.163974 l -3.005946,-6.30755 h -2.68564 z m 3.942224,-9.46133 q 0.837723,0 1.305862,-0.41886 0.492778,-0.44351 0.492778,-1.2812303 v -1.08411 q 0,-0.83772 -0.492778,-1.25658 -0.468139,-0.4435 -1.305862,-0.4435 h -3.942224 v 4.4842803 z m 7.958375,3.72047 v -3.548 h 7.317753 v 3.548 z m 20.819868,-1.30586 h -6.553948 v 7.04672 H 82.883293 V 3.5839937 h 3.745113 v 6.8496203 h 6.553948 V 3.5839937 h 3.745113 V 20.781944 h -3.745113 z m 16.902306,7.04672 q -0.98556,0 -1.65081,-0.61597 -0.64061,-0.61597 -0.81308,-1.6508 h -0.14784 q -0.29566,1.25658 -1.30586,1.92183 -1.01019,0.64061 -2.48853,0.64061 -1.94647,0 -2.9813,-1.03483 -1.034835,-1.03484 -1.034835,-2.73492 0,-2.04503 1.478335,-3.03059 1.50297,-1.01019 4.06542,-1.01019 h 2.04502 v -0.81308 q 0,-0.93628 -0.49277,-1.47834 -0.49278,-0.56669 -1.65081,-0.56669 -1.08411,0 -1.72472,0.46814 -0.64061,0.46814 -1.05948,1.05947 l -2.16822,-1.92184 q 0.78845,-1.1580203 1.97111,-1.7986403 1.20731,-0.66525 3.25234,-0.66525 2.75955,0 4.13933,1.20731 1.37978,1.20731 1.37978,3.5233603 v 5.66695 h 1.20731 v 2.83347 z m -5.05098,-2.24214 q 0.91164,0 1.55225,-0.39422 0.66525,-0.39422 0.66525,-1.28122 v -1.52761 h -1.774 q -2.14358,0 -2.14358,1.45369 v 0.36959 q 0,0.71452 0.4435,1.05947 0.4435,0.3203 1.25658,0.3203 z m 12.02379,2.24214 -4.23789,-12.9354203 h 3.59728 l 1.60153,5.2234503 1.2073,4.68139 h 0.19711 l 1.20731,-4.68139 1.55225,-5.2234503 h 3.44945 l -4.23789,12.9354203 z m 15.69499,0.29567 q -1.47833,0 -2.63636,-0.46814 -1.15803,-0.49278 -1.97111,-1.35514 -0.78845,-0.887 -1.20731,-2.14358 -0.39422,-1.25659 -0.39422,-2.80884 0,-1.52761 0.39422,-2.75955 0.39423,-1.25659 1.15803,-2.1435903 0.78845,-0.887 1.92184,-1.35514 1.13338,-0.49278 2.58708,-0.49278 1.60153,0 2.73492,0.54206 1.15802,0.54206 1.87255,1.4537 0.73917,0.9116303 1.05947,2.1189403 0.34495,1.18267 0.34495,2.48853 v 1.08411 h -8.30331 v 0.19711 q 0,1.28123 0.68989,2.04503 0.68989,0.73917 2.16822,0.73917 1.13339,0 1.84792,-0.4435 0.71453,-0.46814 1.3305,-1.10875 l 1.82328,2.26678 q -0.86236,1.01019 -2.26678,1.57689 -1.37978,0.56669 -3.15378,0.56669 z m -0.0739,-10.84112 q -1.10875,0 -1.74936,0.73917 -0.61597,0.71453 -0.61597,1.92184 v 0.19711 h 4.53356 v -0.22175 q 0,-1.18267 -0.54206,-1.8972 -0.51742,-0.73917 -1.62617,-0.73917 z m 8.52505,10.54545 V 7.8465237 h 3.64656 v 2.8088403 h 0.12319 q 0.0986,-0.54206 0.34494,-1.0348403 0.24639,-0.51741 0.64062,-0.91164 0.41886,-0.39422 0.98555,-0.61597 0.5667,-0.24639 1.3305,-0.24639 h 0.64061 v 3.4001703 h -0.91164 q -1.60152,0 -2.38997,0.41886 -0.7638,0.41886 -0.7638,1.55225 v 7.56414 z m 9.9541,-18.2327803 h 3.64656 v 7.4902203 h 0.14783 q 0.34495,-1.0101903 1.20731,-1.7493603 0.86236,-0.73917 2.38997,-0.73917 1.99575,0 3.00595,1.33051 1.03483,1.3305003 1.03483,3.7943903 v 8.10619 h -3.64656 v -7.81053 q 0,-1.25658 -0.39422,-1.84791 -0.39422,-0.61598 -1.40442,-0.61598 -0.4435,0 -0.86236,0.1232 -0.41886,0.0986 -0.7638,0.34494 -0.32031,0.24639 -0.51742,0.61597 -0.19711,0.34495 -0.19711,0.81309 v 8.37722 h -3.64656 z m 16.50808,3.91758 q -1.10875,0 -1.62617,-0.49278 -0.49278,-0.51741 -0.49278,-1.30586 v -0.54205 q 0,-0.78845 0.49278,-1.28123 0.51742,-0.51741 1.62617,-0.51741 1.10875,0 1.60153,0.51741 0.51741,0.49278 0.51741,1.28123 v 0.54205 q 0,0.78845 -0.51741,1.30586 -0.49278,0.49278 -1.60153,0.49278 z m -1.82328,1.37978 h 3.64656 V 20.781944 h -3.64656 z m 10.66863,12.9354203 q -1.87255,0 -2.75955,-0.91164 -0.86237,-0.91163 -0.86237,-2.63636 V 2.5491637 h 3.64656 V 17.948474 h 1.62617 v 2.83347 z m 7.26848,0 q -1.87256,0 -2.75956,-0.91164 -0.86236,-0.91163 -0.86236,-2.63636 V 2.5491637 h 3.64656 V 17.948474 h 1.62617 v 2.83347 z"
       id="text12"
       aria-label="CR-Haverhill" /></g></svg>
