<?xml version="1.0" encoding="UTF-8" standalone="no"?>
<!-- Created with Inkscape (http://www.inkscape.org/) -->

<svg
   width="400.89877"
   height="80.000046"
   viewBox="0 0 106.07113 21.166678"
   version="1.1"
   id="svg1"
   xml:space="preserve"
   xmlns="http://www.w3.org/2000/svg"
   xmlns:svg="http://www.w3.org/2000/svg"><defs
     id="defs1" /><g
     id="layer1"
     transform="translate(-38.01003,-1.5039391)"><rect
       style="fill:#7b388c;fill-opacity:1;stroke-width:0.267917"
       id="rect12"
       width="106.07113"
       height="21.166677"
       x="38.010029"
       y="1.5039392"
       ry="1.3415861" /><path
       style="font-weight:bold;font-size:24.6389px;line-height:22.1749px;font-family:'IBM Plex Sans';-inkscape-font-specification:'IBM Plex Sans Bold';text-align:center;text-anchor:middle;fill:#ffffff;stroke-width:0.484307"
       d="m 50.071087,14.119988 h -6.553948 v 7.04672 H 39.772026 V 3.9687575 h 3.745113 v 6.8496205 h 6.553948 V 3.9687575 H 53.8162 V 21.166708 h -3.745113 z m 16.902306,7.04672 c -0.65704,0 -1.20731,-0.205323 -1.65081,-0.61597 -0.42707,-0.410647 -0.6981,-0.960913 -0.81308,-1.6508 h -0.14784 c -0.19711,0.83772 -0.63239,1.47833 -1.30586,1.92183 -0.67346,0.427073 -1.50297,0.64061 -2.48853,0.64061 -1.29765,0 -2.29141,-0.344943 -2.9813,-1.03483 -0.68989,-0.689893 -1.034835,-1.601533 -1.034835,-2.73492 0,-1.363353 0.492775,-2.37355 1.478335,-3.03059 1.00198,-0.67346 2.35712,-1.01019 4.06542,-1.01019 h 2.04502 v -0.81308 c 0,-0.624187 -0.16426,-1.116967 -0.49277,-1.47834 -0.32852,-0.377793 -0.87879,-0.56669 -1.65081,-0.56669 -0.72274,0 -1.29765,0.156047 -1.72472,0.46814 -0.42707,0.312093 -0.78023,0.66525 -1.05948,1.05947 l -2.16822,-1.92184 c 0.52563,-0.7720137 1.18267,-1.3715605 1.97111,-1.7986405 0.80487,-0.4435 1.88899,-0.66525 3.25234,-0.66525 1.8397,0 3.21948,0.4024367 4.13933,1.20731 0.91985,0.8048733 1.37978,1.9793265 1.37978,3.5233605 v 5.66695 h 1.20731 v 2.83347 z m -5.05098,-2.24214 c 0.60776,0 1.12518,-0.131407 1.55225,-0.39422 0.4435,-0.262813 0.66525,-0.689887 0.66525,-1.28122 v -1.52761 h -1.774 c -1.42905,0 -2.14358,0.484563 -2.14358,1.45369 v 0.36959 c 0,0.476347 0.14783,0.829503 0.4435,1.05947 0.29567,0.213533 0.71453,0.3203 1.25658,0.3203 z m 12.02379,2.24214 -4.23789,-12.9354205 h 3.59728 l 1.60153,5.2234505 1.2073,4.68139 h 0.19711 l 1.20731,-4.68139 1.55225,-5.2234505 h 3.44945 l -4.23789,12.9354205 z m 15.69499,0.29567 c -0.98555,0 -1.86434,-0.156047 -2.63636,-0.46814 -0.77202,-0.32852 -1.42906,-0.780233 -1.97111,-1.35514 -0.52563,-0.591333 -0.92807,-1.30586 -1.20731,-2.14358 -0.26281,-0.837727 -0.39422,-1.774007 -0.39422,-2.80884 0,-1.018407 0.13141,-1.938257 0.39422,-2.75955 0.26282,-0.837727 0.64883,-1.552257 1.15803,-2.1435905 0.52563,-0.5913333 1.16625,-1.0430467 1.92184,-1.35514 0.75559,-0.32852 1.61795,-0.49278 2.58708,-0.49278 1.06769,0 1.97933,0.1806867 2.73492,0.54206 0.77201,0.3613733 1.3962,0.84594 1.87255,1.4537 0.49278,0.6077535 0.84594,1.3140675 1.05947,2.1189405 0.22997,0.788447 0.34495,1.617957 0.34495,2.48853 v 1.08411 h -8.30331 v 0.19711 c 0,0.854153 0.22996,1.53583 0.68989,2.04503 0.45993,0.49278 1.18267,0.73917 2.16822,0.73917 0.75559,0 1.37157,-0.147833 1.84792,-0.4435 0.47635,-0.312093 0.91985,-0.681677 1.3305,-1.10875 l 1.82328,2.26678 c -0.57491,0.67346 -1.3305,1.19909 -2.26678,1.57689 -0.91985,0.377793 -1.97111,0.56669 -3.15378,0.56669 z m -0.0739,-10.84112 c -0.73917,0 -1.32229,0.24639 -1.74936,0.73917 -0.41065,0.476353 -0.61597,1.116967 -0.61597,1.92184 v 0.19711 h 4.53356 v -0.22175 c 0,-0.788447 -0.18069,-1.420847 -0.54206,-1.8972 -0.34495,-0.49278 -0.887,-0.73917 -1.62617,-0.73917 z m 8.52505,10.54545 V 8.2312875 h 3.646557 v 2.8088405 h 0.12319 c 0.0657,-0.361373 0.18071,-0.706321 0.34494,-1.034841 0.16426,-0.3449395 0.3778,-0.6488195 0.64062,-0.9116395 0.27924,-0.2628133 0.60776,-0.4681367 0.98555,-0.61597 0.3778,-0.16426 0.8213,-0.24639 1.3305,-0.24639 h 0.64061 v 3.4001705 h -0.91164 c -1.06768,0 -1.86434,0.13962 -2.38997,0.41886 -0.5092,0.27924 -0.7638,0.796657 -0.7638,1.55225 v 7.56414 z M 108.04644,2.9339275 h 3.64656 v 7.4902205 h 0.14783 c 0.22997,-0.6734604 0.6324,-1.2565805 1.20731,-1.7493605 0.57491,-0.49278 1.37156,-0.73917 2.38997,-0.73917 1.3305,0 2.33248,0.4435033 3.00595,1.33051 0.68989,0.8869995 1.03483,2.1517975 1.03483,3.7943905 v 8.10619 h -3.64656 v -7.81053 c 0,-0.83772 -0.13141,-1.45369 -0.39422,-1.84791 -0.26281,-0.410653 -0.73095,-0.61598 -1.40442,-0.61598 -0.29567,0 -0.58312,0.04107 -0.86236,0.1232 -0.27924,0.06573 -0.53384,0.180713 -0.7638,0.34494 -0.21354,0.16426 -0.38601,0.369583 -0.51742,0.61597 -0.13141,0.229967 -0.19711,0.500997 -0.19711,0.81309 v 8.37722 h -3.64656 z m 16.50808,3.91758 c -0.73917,0 -1.28122,-0.16426 -1.62617,-0.49278 -0.32852,-0.34494 -0.49278,-0.7802267 -0.49278,-1.30586 v -0.54205 c 0,-0.5256333 0.16426,-0.95271 0.49278,-1.28123 0.34495,-0.34494 0.887,-0.51741 1.62617,-0.51741 0.73917,0 1.27301,0.17247 1.60153,0.51741 0.34494,0.32852 0.51741,0.7555967 0.51741,1.28123 v 0.54205 c 0,0.5256333 -0.17247,0.96092 -0.51741,1.30586 -0.32852,0.32852 -0.86236,0.49278 -1.60153,0.49278 z m -1.82328,1.37978 h 3.64656 V 21.166708 h -3.64656 z m 10.66863,12.9354205 c -1.24837,0 -2.16822,-0.30388 -2.75955,-0.91164 -0.57491,-0.607753 -0.86237,-1.48654 -0.86237,-2.63636 V 2.9339275 h 3.64656 V 18.333238 h 1.62617 v 2.83347 z m 7.26848,0 c -1.24837,0 -2.16823,-0.30388 -2.75956,-0.91164 -0.57491,-0.607753 -0.86236,-1.48654 -0.86236,-2.63636 V 2.9339275 h 3.64656 V 18.333238 h 1.62617 v 2.83347 z"
       id="text12"
       aria-label="CR-Haverhill" /></g></svg>
