<?xml version="1.0" encoding="UTF-8" standalone="no"?>
<!-- Created with Inkscape (http://www.inkscape.org/) -->

<svg
   width="390.29034"
   height="100"
   viewBox="0 0 103.26432 26.458333"
   version="1.1"
   id="svg1"
   xml:space="preserve"
   xmlns="http://www.w3.org/2000/svg"
   xmlns:svg="http://www.w3.org/2000/svg"><defs
     id="defs1" /><g
     id="layer1"
     transform="translate(-37.606388,-45.759082)"><rect
       style="fill:#7b388c;fill-opacity:1;stroke-width:0.29555"
       id="rect16"
       width="103.26433"
       height="26.458336"
       x="37.606388"
       y="45.759083"
       ry="1.6769819" /><path
       style="font-weight:bold;font-size:24.6389px;line-height:22.1749px;font-family:'IBM Plex Sans';-inkscape-font-specification:'IBM Plex Sans Bold';text-align:center;text-anchor:middle;fill:#ffffff;stroke-width:0.484307"
       d="m 45.640037,58.113571 -2.242138,2.71028 v 4.77994 H 39.65279 v -17.19795 h 3.745109 v 8.18012 h 0.14784 l 2.439248,-3.32626 3.8683,-4.85386 h 4.23789 l -5.79014,7.07137 6.30756,10.12658 h -4.41036 z m 12.78757,-6.82498 c -0.73917,0 -1.28122,-0.16426 -1.62617,-0.49278 -0.32852,-0.34494 -0.49278,-0.78023 -0.49278,-1.30586 v -0.54205 c 0,-0.52563 0.16426,-0.95271 0.49278,-1.28123 0.34495,-0.34494 0.887,-0.51741 1.62617,-0.51741 0.73917,0 1.27301,0.17247 1.60153,0.51741 0.34494,0.32852 0.51741,0.7556 0.51741,1.28123 v 0.54205 c 0,0.52563 -0.17247,0.96092 -0.51741,1.30586 -0.32852,0.32852 -0.86236,0.49278 -1.60153,0.49278 z m -1.82328,1.37978 h 3.64656 v 12.93542 h -3.64656 z m 7.04671,12.93542 v -12.93542 h 3.64655 v 2.19286 h 0.14784 c 0.22996,-0.67346 0.63239,-1.25658 1.2073,-1.74936 0.57491,-0.49278 1.37157,-0.73917 2.38998,-0.73917 1.3305,0 2.33248,0.4435 3.00594,1.3305 0.68989,0.88701 1.03484,2.15181 1.03484,3.7944 v 8.10619 h -3.64656 v -7.81053 c 0,-0.83772 -0.13141,-1.45369 -0.39422,-1.84792 -0.26282,-0.41065 -0.73096,-0.61597 -1.40442,-0.61597 -0.29567,0 -0.58312,0.0411 -0.86236,0.1232 -0.27924,0.0657 -0.53384,0.18065 -0.76381,0.34494 -0.21353,0.16426 -0.38601,0.36958 -0.51742,0.61597 -0.13141,0.22997 -0.19711,0.501 -0.19711,0.81309 v 8.37722 z m 26.65931,0.93628 c 0,0.68989 -0.12319,1.29765 -0.36958,1.82328 -0.22997,0.52563 -0.61598,0.96913 -1.15803,1.3305 -0.54206,0.3778 -1.2648,0.65704 -2.16823,0.83772 -0.887,0.19711 -1.98754,0.29567 -3.30161,0.29567 -1.11696,0 -2.06966,-0.0739 -2.85811,-0.22175 -0.77202,-0.13141 -1.40442,-0.32852 -1.8972,-0.59133 -0.47635,-0.24639 -0.82951,-0.55849 -1.05947,-0.93628 -0.21354,-0.36137 -0.32031,-0.78024 -0.32031,-1.25659 0,-0.72274 0.21354,-1.28943 0.64062,-1.70008 0.42707,-0.41065 1.01841,-0.66525 1.774,-0.76381 v -0.27102 c -0.62419,-0.11499 -1.09233,-0.3778 -1.40442,-0.78845 -0.31209,-0.42707 -0.46814,-0.91985 -0.46814,-1.47833 0,-0.34495 0.0657,-0.64061 0.19711,-0.887 0.14783,-0.26282 0.32852,-0.48457 0.54206,-0.66525 0.22996,-0.19711 0.49277,-0.35316 0.78844,-0.46814 0.29567,-0.11498 0.59133,-0.20532 0.887,-0.27103 v -0.0986 c -0.78844,-0.36137 -1.37156,-0.85414 -1.74936,-1.47833 -0.37779,-0.64061 -0.56669,-1.37978 -0.56669,-2.2175 0,-1.31407 0.45171,-2.36533 1.35514,-3.15378 0.91985,-0.80487 2.31605,-1.20731 4.18861,-1.20731 0.85415,0 1.5851,0.0821 2.19286,0.24639 v -0.49278 c 0,-0.68989 0.16426,-1.18266 0.49278,-1.47833 0.34495,-0.31209 0.82951,-0.46814 1.45369,-0.46814 h 2.04503 v 2.71028 h -2.85811 v 0.14783 c 0.75559,0.36137 1.31408,0.86237 1.67545,1.50298 0.36137,0.62419 0.54205,1.35514 0.54205,2.19286 0,1.29765 -0.45993,2.34069 -1.37978,3.12914 -0.90343,0.77202 -2.29142,1.15803 -4.16397,1.15803 -0.83773,0 -1.60153,-0.0903 -2.29142,-0.27103 -0.37779,0.24639 -0.56669,0.59133 -0.56669,1.03483 0,0.31209 0.11498,0.55848 0.34494,0.73917 0.24639,0.16426 0.64882,0.24639 1.20731,0.24639 h 3.74511 c 1.57689,0 2.71849,0.32852 3.42481,0.98556 0.72274,0.65703 1.08411,1.5851 1.08411,2.78419 z m -3.42481,0.49278 c 0,-0.37779 -0.14783,-0.66525 -0.4435,-0.86236 -0.29567,-0.19711 -0.81308,-0.29567 -1.55225,-0.29567 h -4.435 c -0.16426,0.16426 -0.28746,0.34495 -0.36959,0.54206 -0.0657,0.21353 -0.0986,0.41886 -0.0986,0.61597 0,0.47635 0.20533,0.8213 0.61598,1.03483 0.41065,0.22997 1.10875,0.34495 2.0943,0.34495 h 1.47834 c 0.98555,0 1.68365,-0.11498 2.0943,-0.34495 0.41065,-0.21353 0.61598,-0.55848 0.61598,-1.03483 z m -3.52336,-8.40187 c 0.72274,0 1.25658,-0.14783 1.60153,-0.4435 0.36137,-0.31209 0.54205,-0.75559 0.54205,-1.3305 v -0.29566 c 0,-0.57491 -0.18068,-1.01019 -0.54205,-1.30586 -0.34495,-0.31209 -0.87879,-0.46814 -1.60153,-0.46814 -0.72274,0 -1.2648,0.15605 -1.62617,0.46814 -0.34495,0.29567 -0.51742,0.73095 -0.51742,1.30586 v 0.29566 c 0,0.57491 0.17247,1.01841 0.51742,1.3305 0.36137,0.29567 0.90343,0.4435 1.62617,0.4435 z m 12.96006,7.26848 c -1.24837,0 -2.29963,-0.19711 -3.15378,-0.59133 -0.85415,-0.41065 -1.61796,-0.98556 -2.29142,-1.72473 l 2.14359,-2.16822 c 0.45993,0.50921 0.96913,0.91164 1.52761,1.20731 0.55848,0.29567 1.19088,0.4435 1.8972,0.4435 0.72274,0 1.22373,-0.10677 1.50297,-0.32031 0.27924,-0.22996 0.41886,-0.53384 0.41886,-0.91164 0,-0.60776 -0.43529,-0.96913 -1.30586,-1.08411 l -1.40442,-0.17247 c -2.90739,-0.36137 -4.36109,-1.69187 -4.36109,-3.9915 0,-0.62419 0.11498,-1.19088 0.34495,-1.70009 0.24639,-0.52563 0.58312,-0.96913 1.0102,-1.3305 0.4435,-0.37779 0.96913,-0.66525 1.57688,-0.86236 0.62419,-0.21354 1.32229,-0.32031 2.09431,-0.32031 0.67347,0 1.2648,0.0493 1.774,0.14784 0.52563,0.0821 0.98556,0.21353 1.37978,0.39422 0.410647,0.16426 0.780223,0.3778 1.108743,0.64061 0.34495,0.24639 0.68168,0.52563 1.0102,0.83772 l -2.094303,2.14359 c -0.41065,-0.41065 -0.87879,-0.73095 -1.40442,-0.96092 -0.5092,-0.24639 -1.03483,-0.36958 -1.57689,-0.36958 -0.62419,0 -1.06769,0.0986 -1.3305,0.29566 -0.26281,0.19711 -0.39422,0.45993 -0.39422,0.78845 0,0.34495 0.0903,0.61597 0.27103,0.81308 0.19711,0.18069 0.55848,0.3121 1.08411,0.39423 l 1.45369,0.19711 c 2.841683,0.37779 4.262523,1.67544 4.262523,3.89294 0,0.62419 -0.13141,1.1991 -0.39422,1.72473 -0.26281,0.52563 -0.64061,0.98555 -1.13339,1.37977 -0.476346,0.3778 -1.059463,0.67347 -1.749353,0.887 -0.67346,0.21354 -1.42905,0.32031 -2.26678,0.32031 z m 12.368733,-0.29567 c -1.2648,0 -2.22572,-0.3203 -2.88276,-0.96091 -0.64061,-0.64061 -0.96091,-1.57689 -0.96091,-2.80884 v -6.3322 h -1.82328 v -2.83347 h 0.91164 c 0.49278,0 0.82951,-0.11498 1.01019,-0.34494 0.18069,-0.24639 0.27103,-0.59134 0.27103,-1.03484 v -2.11894 h 3.27698 v 3.49872 h 2.56244 v 2.83347 h -2.56244 v 7.26848 h 2.36533 v 2.83347 z m 10.05266,0.29567 c -0.95271,0 -1.80686,-0.15605 -2.56245,-0.46814 -0.73917,-0.31209 -1.37156,-0.76381 -1.89719,-1.35514 -0.50921,-0.59133 -0.90343,-1.30586 -1.18267,-2.14358 -0.27924,-0.83773 -0.41886,-1.77401 -0.41886,-2.80884 0,-1.03483 0.13962,-1.97111 0.41886,-2.80883 0.27924,-0.83773 0.67346,-1.54404 1.18267,-2.11895 0.52563,-0.59133 1.15802,-1.04305 1.89719,-1.35514 0.75559,-0.31209 1.60974,-0.46814 2.56245,-0.46814 0.95271,0 1.79864,0.15605 2.53781,0.46814 0.75559,0.31209 1.38799,0.76381 1.89719,1.35514 0.52563,0.57491 0.92807,1.28122 1.20731,2.11895 0.27924,0.83772 0.41886,1.774 0.41886,2.80883 0,1.03483 -0.13962,1.97111 -0.41886,2.80884 -0.27924,0.83772 -0.68168,1.55225 -1.20731,2.14358 -0.5092,0.59133 -1.1416,1.04305 -1.89719,1.35514 -0.73917,0.31209 -1.5851,0.46814 -2.53781,0.46814 z m 0,-2.88275 c 0.72274,0 1.28122,-0.22175 1.67544,-0.66525 0.39423,-0.4435 0.59134,-1.0759 0.59134,-1.8972 v -2.63636 c 0,-0.82129 -0.19711,-1.45369 -0.59134,-1.89719 -0.39422,-0.4435 -0.9527,-0.66525 -1.67544,-0.66525 -0.72274,0 -1.28122,0.22175 -1.67545,0.66525 -0.39422,0.4435 -0.59133,1.0759 -0.59133,1.89719 v 2.63636 c 0,0.8213 0.19711,1.4537 0.59133,1.8972 0.39423,0.4435 0.95271,0.66525 1.67545,0.66525 z m 8.64823,2.58708 v -12.93542 h 3.64656 v 2.19286 h 0.14783 c 0.22997,-0.67346 0.6324,-1.25658 1.20731,-1.74936 0.57491,-0.49278 1.37156,-0.73917 2.38997,-0.73917 1.3305,0 2.33248,0.4435 3.00595,1.3305 0.68989,0.88701 1.03483,2.15181 1.03483,3.7944 v 8.10619 h -3.64656 v -7.81053 c 0,-0.83772 -0.13141,-1.45369 -0.39422,-1.84792 -0.26281,-0.41065 -0.73095,-0.61597 -1.40442,-0.61597 -0.29567,0 -0.58312,0.0411 -0.86236,0.1232 -0.27924,0.0657 -0.53384,0.18065 -0.7638,0.34494 -0.21354,0.16426 -0.38601,0.36958 -0.51742,0.61597 -0.13141,0.22997 -0.19711,0.501 -0.19711,0.81309 v 8.37722 z"
       id="text16"
       aria-label="CR-Kingston" /></g></svg>
