<?xml version="1.0" encoding="UTF-8" standalone="no"?>
<!-- Created with Inkscape (http://www.inkscape.org/) -->

<svg
   width="550.00006"
   height="100"
   viewBox="0 0 145.52085 26.458333"
   version="1.1"
   id="svg1"
   xml:space="preserve"
   xmlns="http://www.w3.org/2000/svg"
   xmlns:svg="http://www.w3.org/2000/svg"><defs
     id="defs1" /><g
     id="layer1"
     transform="translate(-50.347663,-100.54074)"><rect
       style="fill:#7b388c;fill-opacity:1;stroke-width:0.350848"
       id="rect16"
       width="145.52083"
       height="26.458336"
       x="50.347664"
       y="100.54073"
       ry="1.6769819" /><path
       style="font-weight:bold;font-size:24.6389px;line-height:22.1749px;font-family:'IBM Plex Sans';-inkscape-font-specification:'IBM Plex Sans Bold';text-align:center;text-anchor:middle;fill:#ffffff;stroke-width:0.484307"
       d="m 59.699883,120.68113 q -1.74936,0 -3.15378,-0.54206 -1.40441,-0.56669 -2.38997,-1.6508 -0.98556,-1.10875 -1.52761,-2.73492 -0.54206,-1.65081 -0.54206,-3.84367 0,-2.16822 0.54206,-3.84367 0.54205,-1.70008 1.52761,-2.83347 0.98556,-1.15803 2.38997,-1.74936 1.40442,-0.59134 3.15378,-0.59134 2.38998,0 3.94223,0.98556 1.55225,0.96092 2.48853,3.05522 l -3.2277,1.67545 q -0.34495,-1.08411 -1.08411,-1.72472 -0.71453,-0.66525 -2.11895,-0.66525 -1.6508,0 -2.661,1.08411 -0.98556,1.05947 -0.98556,3.1045 v 2.75956 q 0,2.04502 0.98556,3.12914 1.0102,1.05947 2.661,1.05947 1.37978,0 2.19286,-0.73917 0.83773,-0.7638 1.23195,-1.82328 l 3.05522,1.774 q -0.96091,1.97112 -2.5378,3.05523 -1.55225,1.05947 -3.94223,1.05947 z m 12.83689,-0.29567 h -3.74511 v -17.19795 h 8.15548 q 1.18266,0 2.14358,0.39422 0.96092,0.39423 1.62617,1.13339 0.68989,0.71453 1.05947,1.72473 0.36958,1.01019 0.36958,2.24214 0,1.74936 -0.78844,3.05522 -0.76381,1.30586 -2.3407,1.89719 l 3.37553,6.75106 h -4.16397 l -3.00595,-6.30756 h -2.68564 z m 3.94223,-9.46133 q 0.83772,0 1.30586,-0.41887 0.49278,-0.4435 0.49278,-1.28122 v -1.08411 q 0,-0.83772 -0.49278,-1.25658 -0.46814,-0.4435 -1.30586,-0.4435 h -3.94223 v 4.48428 z m 7.95837,3.72047 v -3.548 h 7.31775 v 3.548 z m 16.508057,-1.74936 -2.242138,2.71028 v 4.77994 h -3.745109 v -17.19795 h 3.745109 v 8.18012 h 0.14784 l 2.439248,-3.32626 3.8683,-4.85386 h 4.23789 l -5.79014,7.07137 6.30756,10.12658 h -4.41036 z m 12.78757,-6.82498 q -1.10875,0 -1.62617,-0.49278 -0.49278,-0.51741 -0.49278,-1.30586 v -0.54205 q 0,-0.78845 0.49278,-1.28123 0.51742,-0.51741 1.62617,-0.51741 1.10875,0 1.60153,0.51741 0.51741,0.49278 0.51741,1.28123 v 0.54205 q 0,0.78845 -0.51741,1.30586 -0.49278,0.49278 -1.60153,0.49278 z m -1.82328,1.37978 h 3.64656 v 12.93542 h -3.64656 z m 7.04671,12.93542 v -12.93542 h 3.64655 v 2.19286 h 0.14784 q 0.34494,-1.01019 1.2073,-1.74936 0.86236,-0.73917 2.38998,-0.73917 1.99575,0 3.00594,1.3305 1.03484,1.33051 1.03484,3.7944 v 8.10619 h -3.64656 v -7.81053 q 0,-1.25658 -0.39422,-1.84792 -0.39423,-0.61597 -1.40442,-0.61597 -0.4435,0 -0.86236,0.1232 -0.41886,0.0985 -0.76381,0.34494 -0.3203,0.24639 -0.51742,0.61597 -0.19711,0.34495 -0.19711,0.81309 v 8.37722 z m 26.65931,0.93628 q 0,1.03484 -0.36958,1.82328 -0.34495,0.78845 -1.15803,1.3305 -0.81309,0.5667 -2.16823,0.83772 -1.3305,0.29567 -3.30161,0.29567 -1.67544,0 -2.85811,-0.22175 -1.15803,-0.19711 -1.8972,-0.59133 -0.71453,-0.36959 -1.05947,-0.93628 -0.32031,-0.54206 -0.32031,-1.25659 0,-1.08411 0.64062,-1.70008 0.64061,-0.61597 1.774,-0.76381 v -0.27102 q -0.93628,-0.17248 -1.40442,-0.78845 -0.46814,-0.64061 -0.46814,-1.47833 0,-0.51742 0.19711,-0.887 0.22175,-0.39423 0.54206,-0.66525 0.34494,-0.29567 0.78844,-0.46814 0.4435,-0.17247 0.887,-0.27103 v -0.0986 q -1.18266,-0.54205 -1.74936,-1.47833 -0.56669,-0.96092 -0.56669,-2.2175 0,-1.97111 1.35514,-3.15378 1.37977,-1.20731 4.18861,-1.20731 1.28122,0 2.19286,0.24639 v -0.49278 q 0,-1.03483 0.49278,-1.47833 0.51742,-0.46814 1.45369,-0.46814 h 2.04503 v 2.71028 h -2.85811 v 0.14783 q 1.13339,0.54206 1.67545,1.50298 0.54205,0.93628 0.54205,2.19286 0,1.94647 -1.37978,3.12914 -1.35514,1.15803 -4.16397,1.15803 -1.25659,0 -2.29142,-0.27103 -0.56669,0.36958 -0.56669,1.03483 0,0.46814 0.34494,0.73917 0.36958,0.24639 1.20731,0.24639 h 3.74511 q 2.36533,0 3.42481,0.98556 1.08411,0.98555 1.08411,2.78419 z m -3.42481,0.49278 q 0,-0.56669 -0.4435,-0.86236 -0.4435,-0.29567 -1.55225,-0.29567 h -4.435 q -0.24639,0.24639 -0.36959,0.54206 -0.0986,0.3203 -0.0986,0.61597 0,0.71453 0.61598,1.03483 0.61597,0.34495 2.0943,0.34495 h 1.47834 q 1.47833,0 2.0943,-0.34495 0.61598,-0.3203 0.61598,-1.03483 z m -3.52336,-8.40187 q 1.08411,0 1.60153,-0.4435 0.54205,-0.46813 0.54205,-1.3305 v -0.29566 q 0,-0.86236 -0.54205,-1.30586 -0.51742,-0.46814 -1.60153,-0.46814 -1.08411,0 -1.62617,0.46814 -0.51742,0.4435 -0.51742,1.30586 v 0.29566 q 0,0.86237 0.51742,1.3305 0.54206,0.4435 1.62617,0.4435 z m 12.96006,7.26848 q -1.87255,0 -3.15378,-0.59133 -1.28123,-0.61598 -2.29142,-1.72473 l 2.14359,-2.16822 q 0.68989,0.76381 1.52761,1.20731 0.83772,0.4435 1.8972,0.4435 1.08411,0 1.50297,-0.32031 0.41886,-0.34494 0.41886,-0.91164 0,-0.91164 -1.30586,-1.08411 l -1.40442,-0.17247 q -4.36109,-0.54206 -4.36109,-3.9915 0,-0.93628 0.34495,-1.70009 0.36958,-0.78844 1.0102,-1.3305 0.66525,-0.56669 1.57688,-0.86236 0.93628,-0.32031 2.09431,-0.32031 1.0102,0 1.774,0.14784 0.78845,0.12319 1.37978,0.39422 0.61597,0.24639 1.10875,0.64061 0.51742,0.36958 1.0102,0.83772 l -2.09431,2.14359 q -0.61597,-0.61597 -1.40442,-0.96092 -0.7638,-0.36958 -1.57689,-0.36958 -0.93628,0 -1.3305,0.29566 -0.39422,0.29567 -0.39422,0.78845 0,0.51742 0.27103,0.81308 0.29566,0.27103 1.08411,0.39423 l 1.45369,0.19711 q 4.26253,0.56669 4.26253,3.89294 0,0.93628 -0.39422,1.72473 -0.39422,0.78844 -1.13339,1.37977 -0.71453,0.5667 -1.74936,0.887 -1.01019,0.32031 -2.26678,0.32031 z m 12.36874,-0.29567 q -1.8972,0 -2.88276,-0.96091 -0.96091,-0.96092 -0.96091,-2.80884 v -6.3322 h -1.82328 v -2.83347 h 0.91164 q 0.73917,0 1.01019,-0.34494 0.27103,-0.36959 0.27103,-1.03484 v -2.11894 h 3.27698 v 3.49872 h 2.56244 v 2.83347 h -2.56244 v 7.26848 h 2.36533 v 2.83347 z m 10.05266,0.29567 q -1.42906,0 -2.56245,-0.46814 -1.10875,-0.46814 -1.89719,-1.35514 -0.76381,-0.887 -1.18267,-2.14358 -0.41886,-1.25659 -0.41886,-2.80884 0,-1.55225 0.41886,-2.80883 0.41886,-1.25659 1.18267,-2.11895 0.78844,-0.887 1.89719,-1.35514 1.13339,-0.46814 2.56245,-0.46814 1.42906,0 2.53781,0.46814 1.13339,0.46814 1.89719,1.35514 0.78845,0.86236 1.20731,2.11895 0.41886,1.25658 0.41886,2.80883 0,1.55225 -0.41886,2.80884 -0.41886,1.25658 -1.20731,2.14358 -0.7638,0.887 -1.89719,1.35514 -1.10875,0.46814 -2.53781,0.46814 z m 0,-2.88275 q 1.08411,0 1.67544,-0.66525 0.59134,-0.66525 0.59134,-1.8972 v -2.63636 q 0,-1.23194 -0.59134,-1.89719 -0.59133,-0.66525 -1.67544,-0.66525 -1.08411,0 -1.67545,0.66525 -0.59133,0.66525 -0.59133,1.89719 v 2.63636 q 0,1.23195 0.59133,1.8972 0.59134,0.66525 1.67545,0.66525 z m 8.64823,2.58708 v -12.93542 h 3.64656 v 2.19286 h 0.14783 q 0.34495,-1.01019 1.20731,-1.74936 0.86236,-0.73917 2.38997,-0.73917 1.99575,0 3.00595,1.3305 1.03483,1.33051 1.03483,3.7944 v 8.10619 h -3.64656 v -7.81053 q 0,-1.25658 -0.39422,-1.84792 -0.39422,-0.61597 -1.40442,-0.61597 -0.4435,0 -0.86236,0.1232 -0.41886,0.0985 -0.7638,0.34494 -0.32031,0.24639 -0.51742,0.61597 -0.19711,0.34495 -0.19711,0.81309 v 8.37722 z"
       id="text16"
       aria-label="CR-Kingston" /></g></svg>
