<?xml version="1.0" encoding="UTF-8" standalone="no"?>
<!-- Created with Inkscape (http://www.inkscape.org/) -->

<svg
   width="450.05075"
   height="80"
   viewBox="0 0 119.07593 21.166666"
   version="1.1"
   id="svg1"
   xml:space="preserve"
   xmlns="http://www.w3.org/2000/svg"
   xmlns:svg="http://www.w3.org/2000/svg"><defs
     id="defs1" /><g
     id="layer1"
     transform="translate(-165.91808,-211.17392)"><rect
       style="fill:#7b388c;fill-opacity:1;stroke-width:0.283866"
       id="rect20"
       width="119.07593"
       height="21.16666"
       x="165.91811"
       y="211.17393"
       ry="1.3415852" /><path
       style="font-weight:bold;font-size:24.6389px;line-height:22.1749px;font-family:'IBM Plex Sans';-inkscape-font-specification:'IBM Plex Sans Bold';text-align:center;text-anchor:middle;fill:#ffffff;stroke-width:0.484307"
       d="m 175.06953,231.02146 q -1.74936,0 -3.15378,-0.54206 -1.40442,-0.56669 -2.38997,-1.6508 -0.98556,-1.10876 -1.52762,-2.73492 -0.54205,-1.65081 -0.54205,-3.84367 0,-2.16822 0.54205,-3.84367 0.54206,-1.70008 1.52762,-2.83347 0.98555,-1.15803 2.38997,-1.74937 1.40442,-0.59133 3.15378,-0.59133 2.38997,0 3.94222,0.98556 1.55225,0.96091 2.48853,3.05522 l -3.22769,1.67545 q -0.34495,-1.08412 -1.08411,-1.72473 -0.71453,-0.66525 -2.11895,-0.66525 -1.65081,0 -2.661,1.08411 -0.98556,1.05948 -0.98556,3.10451 v 2.75955 q 0,2.04503 0.98556,3.12914 1.01019,1.05948 2.661,1.05948 1.37978,0 2.19286,-0.73917 0.83772,-0.76381 1.23195,-1.82328 l 3.05522,1.774 q -0.96092,1.97111 -2.53781,3.05522 -1.55225,1.05948 -3.94222,1.05948 z m 12.83689,-0.29567 h -3.74511 v -17.19795 h 8.15547 q 1.18267,0 2.14359,0.39422 0.96091,0.39422 1.62617,1.13339 0.68988,0.71453 1.05947,1.72472 0.36958,1.0102 0.36958,2.24214 0,1.74936 -0.78844,3.05523 -0.76381,1.30586 -2.3407,1.89719 l 3.37553,6.75106 h -4.16397 l -3.00595,-6.30756 h -2.68564 z m 3.94222,-9.46134 q 0.83773,0 1.30587,-0.41886 0.49277,-0.4435 0.49277,-1.28122 v -1.08411 q 0,-0.83773 -0.49277,-1.25659 -0.46814,-0.4435 -1.30587,-0.4435 h -3.94222 v 4.48428 z m 7.95838,3.72048 v -3.54801 h 7.31775 v 3.54801 z m 10.52081,5.74086 v -17.19795 h 3.74511 v 13.8717 h 6.55395 v 3.32625 z m 17.86321,0.29567 q -1.42905,0 -2.56244,-0.46814 -1.10875,-0.46814 -1.8972,-1.35514 -0.76381,-0.887 -1.18267,-2.14359 -0.41886,-1.25658 -0.41886,-2.80883 0,-1.55225 0.41886,-2.80884 0.41886,-1.25658 1.18267,-2.11894 0.78845,-0.887 1.8972,-1.35514 1.13339,-0.46814 2.56244,-0.46814 1.42906,0 2.53781,0.46814 1.13339,0.46814 1.89719,1.35514 0.78845,0.86236 1.20731,2.11894 0.41886,1.25659 0.41886,2.80884 0,1.55225 -0.41886,2.80883 -0.41886,1.25659 -1.20731,2.14359 -0.7638,0.887 -1.89719,1.35514 -1.10875,0.46814 -2.53781,0.46814 z m 0,-2.88275 q 1.08411,0 1.67545,-0.66525 0.59133,-0.66525 0.59133,-1.8972 v -2.63636 q 0,-1.23195 -0.59133,-1.8972 -0.59134,-0.66525 -1.67545,-0.66525 -1.08411,0 -1.67544,0.66525 -0.59134,0.66525 -0.59134,1.8972 v 2.63636 q 0,1.23195 0.59134,1.8972 0.59133,0.66525 1.67544,0.66525 z m 7.1699,-10.34834 h 3.52336 l 1.25658,5.22344 0.887,3.94223 h 0.0986 l 1.03484,-3.94223 1.47833,-5.22344 h 3.32625 l 1.50298,5.22344 1.05947,3.94223 h 0.0986 l 0.887,-3.94223 1.25658,-5.22344 h 3.37553 l -3.57264,12.93542 h -3.81903 l -1.57689,-5.46984 -0.91164,-3.35089 h -0.0739 l -0.887,3.35089 -1.57689,5.46984 h -3.74511 z m 27.10277,13.23109 q -1.47834,0 -2.63637,-0.46814 -1.15802,-0.49278 -1.97111,-1.35514 -0.78844,-0.887 -1.2073,-2.14359 -0.39423,-1.25658 -0.39423,-2.80883 0,-1.52761 0.39423,-2.75956 0.39422,-1.25658 1.15802,-2.14358 0.78845,-0.887 1.92184,-1.35514 1.13339,-0.49278 2.58708,-0.49278 1.60154,0 2.73493,0.54206 1.15802,0.54205 1.87255,1.45369 0.73917,0.91164 1.05948,2.11895 0.34494,1.18266 0.34494,2.48853 v 1.08411 h -8.30331 v 0.19711 q 0,1.28122 0.68989,2.04503 0.68988,0.73916 2.16822,0.73916 1.13339,0 1.84792,-0.4435 0.71453,-0.46813 1.3305,-1.10875 l 1.82328,2.26678 q -0.86236,1.0102 -2.26678,1.57689 -1.37978,0.5667 -3.15378,0.5667 z m -0.0739,-10.84112 q -1.10875,0 -1.74936,0.73917 -0.61598,0.71453 -0.61598,1.92183 v 0.19711 h 4.53356 v -0.22175 q 0,-1.18266 -0.54206,-1.89719 -0.51741,-0.73917 -1.62616,-0.73917 z m 12.14698,10.54545 q -1.87256,0 -2.75956,-0.91164 -0.86236,-0.91164 -0.86236,-2.63636 V 212.493 h 3.64656 v 15.39932 h 1.62617 v 2.83347 z m 7.26848,0 q -1.87256,0 -2.75956,-0.91164 -0.86236,-0.91164 -0.86236,-2.63636 V 212.493 h 3.64656 v 15.39932 h 1.62616 v 2.83347 z"
       id="text20"
       aria-label="CR-Lowell" /></g></svg>
