<?xml version="1.0" encoding="UTF-8" standalone="no"?>
<!-- Created with Inkscape (http://www.inkscape.org/) -->

<svg
   width="297.14288"
   height="79.999939"
   viewBox="0 0 78.619053 21.16665"
   version="1.1"
   id="svg1"
   xml:space="preserve"
   xmlns="http://www.w3.org/2000/svg"
   xmlns:svg="http://www.w3.org/2000/svg"><defs
     id="defs1" /><g
     id="layer1"
     transform="translate(-57.449013,-170.6544)"><rect
       style="fill:#7b388c;fill-opacity:1;stroke-width:0.230656"
       id="rect20"
       width="78.619049"
       height="21.16666"
       x="57.449013"
       y="170.6544"
       ry="1.3415852" /><path
       style="font-weight:bold;font-size:24.6389px;line-height:22.1749px;font-family:'IBM Plex Sans';-inkscape-font-specification:'IBM Plex Sans Bold';text-align:center;text-anchor:middle;fill:#ffffff;stroke-width:0.484307"
       d="m 60.194416,190.20629 v -17.19795 h 3.74511 v 13.8717 h 6.55395 v 3.32625 z m 17.86321,0.29567 c -0.9527,0 -1.80685,-0.15605 -2.56244,-0.46814 -0.73917,-0.31209 -1.37157,-0.76381 -1.8972,-1.35514 -0.50921,-0.59133 -0.90343,-1.30586 -1.18267,-2.14359 -0.27924,-0.83772 -0.41886,-1.774 -0.41886,-2.80883 0,-1.03483 0.13962,-1.97111 0.41886,-2.80884 0.27924,-0.83772 0.67346,-1.54403 1.18267,-2.11894 0.52563,-0.59133 1.15803,-1.04305 1.8972,-1.35514 0.75559,-0.31209 1.60974,-0.46814 2.56244,-0.46814 0.95271,0 1.79864,0.15605 2.53781,0.46814 0.75559,0.31209 1.38799,0.76381 1.89719,1.35514 0.52563,0.57491 0.92807,1.28122 1.20731,2.11894 0.27924,0.83773 0.41886,1.77401 0.41886,2.80884 0,1.03483 -0.13962,1.97111 -0.41886,2.80883 -0.27924,0.83773 -0.68168,1.55226 -1.20731,2.14359 -0.5092,0.59133 -1.1416,1.04305 -1.89719,1.35514 -0.73917,0.31209 -1.5851,0.46814 -2.53781,0.46814 z m 0,-2.88275 c 0.72274,0 1.28122,-0.22175 1.67545,-0.66525 0.39422,-0.4435 0.59133,-1.0759 0.59133,-1.8972 v -2.63636 c 0,-0.8213 -0.19711,-1.4537 -0.59133,-1.8972 -0.39423,-0.4435 -0.95271,-0.66525 -1.67545,-0.66525 -0.72274,0 -1.28122,0.22175 -1.67544,0.66525 -0.39423,0.4435 -0.59134,1.0759 -0.59134,1.8972 v 2.63636 c 0,0.8213 0.19711,1.4537 0.59134,1.8972 0.39422,0.4435 0.9527,0.66525 1.67544,0.66525 z m 7.1699,-10.34834 h 3.52336 l 1.25658,5.22344 0.887,3.94223 h 0.0986 l 1.03484,-3.94223 1.47833,-5.22344 h 3.32625 l 1.50298,5.22344 1.059472,3.94223 h 0.0986 l 0.887002,-3.94223 1.25658,-5.22344 h 3.37553 l -3.57264,12.93542 h -3.819034 l -1.57689,-5.46984 -0.91164,-3.35089 h -0.0739 l -0.887,3.35089 -1.57689,5.46984 h -3.74511 z m 27.102774,13.23109 c -0.98556,0 -1.86435,-0.15605 -2.63637,-0.46814 -0.77201,-0.32852 -1.42905,-0.78023 -1.97111,-1.35514 -0.52563,-0.59133 -0.92806,-1.30586 -1.2073,-2.14359 -0.26282,-0.83772 -0.39423,-1.774 -0.39423,-2.80883 0,-1.01841 0.13141,-1.93826 0.39423,-2.75956 0.26281,-0.83772 0.64882,-1.55225 1.15802,-2.14358 0.52563,-0.59133 1.16625,-1.04305 1.92184,-1.35514 0.75559,-0.32852 1.61795,-0.49278 2.58708,-0.49278 1.06769,0 1.97934,0.18069 2.73493,0.54206 0.77201,0.36137 1.3962,0.84593 1.87255,1.45369 0.49278,0.60776 0.84594,1.31408 1.05948,2.11895 0.22996,0.78844 0.34494,1.61795 0.34494,2.48853 v 1.08411 h -8.30331 v 0.19711 c 0,0.85415 0.22996,1.53582 0.68989,2.04503 0.45992,0.49277 1.18266,0.73916 2.16822,0.73916 0.75559,0 1.37157,-0.14783 1.84792,-0.4435 0.47635,-0.31209 0.91985,-0.68167 1.3305,-1.10875 l 1.82328,2.26678 c -0.57491,0.67347 -1.3305,1.1991 -2.26678,1.57689 -0.91985,0.3778 -1.97111,0.5667 -3.15378,0.5667 z m -0.0739,-10.84112 c -0.73917,0 -1.32229,0.24639 -1.74936,0.73917 -0.41065,0.47635 -0.61598,1.11696 -0.61598,1.92183 v 0.19711 h 4.53356 v -0.22175 c 0,-0.78844 -0.18069,-1.42084 -0.54206,-1.89719 -0.34494,-0.49278 -0.88699,-0.73917 -1.62616,-0.73917 z m 12.14698,10.54545 c -1.24837,0 -2.16823,-0.30388 -2.75956,-0.91164 -0.57491,-0.60776 -0.86236,-1.48655 -0.86236,-2.63636 V 171.9735 h 3.64656 v 15.39932 h 1.62617 v 2.83347 z m 7.26848,0 c -1.24837,0 -2.16823,-0.30388 -2.75956,-0.91164 -0.57491,-0.60776 -0.86236,-1.48655 -0.86236,-2.63636 V 171.9735 h 3.64656 v 15.39932 h 1.62616 v 2.83347 z"
       id="text20"
       aria-label="CR-Lowell" /></g></svg>
