<?xml version="1.0" encoding="UTF-8" standalone="no"?>
<!-- Created with Inkscape (http://www.inkscape.org/) -->

<svg
   width="419.73322"
   height="80.000038"
   viewBox="0 0 111.05441 21.166676"
   version="1.1"
   id="svg1"
   xml:space="preserve"
   xmlns="http://www.w3.org/2000/svg"
   xmlns:svg="http://www.w3.org/2000/svg"><defs
     id="defs1" /><g
     id="layer1"
     transform="translate(-37.659363,-23.943279)"><rect
       style="fill:#7b388c;fill-opacity:1;stroke-width:0.274138"
       id="rect13"
       width="111.05441"
       height="21.166677"
       x="37.659363"
       y="23.943279"
       ry="1.3415861" /><path
       style="font-weight:bold;font-size:24.6389px;line-height:22.1749px;font-family:'IBM Plex Sans';-inkscape-font-specification:'IBM Plex Sans Bold';text-align:center;text-anchor:middle;fill:#ffffff;stroke-width:0.484307"
       d="m 44.537022,35.364343 -1.650806,-3.44945 h -0.07392 v 11.58028 h -3.523363 v -17.19795 h 4.090058 l 4.70603,8.13084 1.650806,3.44944 h 0.07392 v -11.58028 h 3.523367 v 17.19795 h -4.090062 z m 17.789304,8.4265 c -0.98555,0 -1.86434,-0.156047 -2.63636,-0.46814 -0.77202,-0.32852 -1.42906,-0.780233 -1.97111,-1.35514 -0.52563,-0.591333 -0.928065,-1.30586 -1.207312,-2.14358 -0.262813,-0.837727 -0.39422,-1.774007 -0.39422,-2.80884 0,-1.018407 0.131407,-1.938257 0.39422,-2.75955 0.26282,-0.837727 0.648832,-1.552257 1.158032,-2.14359 0.52563,-0.591333 1.16625,-1.043047 1.92184,-1.35514 0.75559,-0.32852 1.61795,-0.49278 2.58708,-0.49278 1.06769,0 1.97933,0.180687 2.73492,0.54206 0.77202,0.361373 1.39621,0.84594 1.87256,1.4537 0.49277,0.607753 0.84593,1.314067 1.05947,2.11894 0.22996,0.788447 0.34494,1.617957 0.34494,2.48853 v 1.08411 h -8.30331 v 0.19711 c 0,0.854153 0.22996,1.53583 0.68989,2.04503 0.45993,0.49278 1.18267,0.73917 2.16823,0.73917 0.75559,0 1.37156,-0.147833 1.84791,-0.4435 0.47635,-0.312093 0.91985,-0.681677 1.3305,-1.10875 l 1.82328,2.26678 c -0.57491,0.67346 -1.3305,1.19909 -2.26678,1.57689 -0.91985,0.377793 -1.97111,0.56669 -3.15378,0.56669 z m -0.0739,-10.84112 c -0.73917,0 -1.32229,0.24639 -1.74936,0.73917 -0.41065,0.476353 -0.61597,1.116967 -0.61597,1.92184 v 0.19711 h 4.53356 v -0.22175 c 0,-0.788447 -0.18069,-1.420847 -0.54206,-1.8972 -0.34495,-0.49278 -0.887,-0.73917 -1.62617,-0.73917 z m 13.92099,10.84112 c -0.98555,0 -1.86434,-0.156047 -2.63636,-0.46814 -0.77202,-0.32852 -1.42906,-0.780233 -1.97111,-1.35514 -0.52563,-0.591333 -0.92807,-1.30586 -1.20731,-2.14358 -0.26281,-0.837727 -0.39422,-1.774007 -0.39422,-2.80884 0,-1.018407 0.13141,-1.938257 0.39422,-2.75955 0.26281,-0.837727 0.64882,-1.552257 1.15803,-2.14359 0.52563,-0.591333 1.16624,-1.043047 1.92183,-1.35514 0.75559,-0.32852 1.61796,-0.49278 2.58709,-0.49278 1.06768,0 1.97932,0.180687 2.73491,0.54206 0.77202,0.361373 1.39621,0.84594 1.87256,1.4537 0.49278,0.607753 0.84594,1.314067 1.05947,2.11894 0.22997,0.788447 0.34495,1.617957 0.34495,2.48853 v 1.08411 h -8.30331 v 0.19711 c 0,0.854153 0.22996,1.53583 0.68989,2.04503 0.45993,0.49278 1.18267,0.73917 2.16822,0.73917 0.75559,0 1.37157,-0.147833 1.84792,-0.4435 0.47635,-0.312093 0.91985,-0.681677 1.3305,-1.10875 l 1.82328,2.26678 c -0.57491,0.67346 -1.3305,1.19909 -2.26678,1.57689 -0.91985,0.377793 -1.97111,0.56669 -3.15378,0.56669 z m -0.0739,-10.84112 c -0.73917,0 -1.32229,0.24639 -1.74936,0.73917 -0.41065,0.476353 -0.61597,1.116967 -0.61597,1.92184 v 0.19711 h 4.53355 v -0.22175 c 0,-0.788447 -0.18068,-1.420847 -0.54205,-1.8972 -0.34495,-0.49278 -0.887,-0.73917 -1.62617,-0.73917 z m 16.4588,8.37723 h -0.1232 c -0.0986,0.344947 -0.25461,0.673467 -0.46814,0.98556 -0.21354,0.295667 -0.47636,0.55848 -0.78845,0.78844 -0.29567,0.21354 -0.64061,0.3778 -1.03483,0.49278 -0.37779,0.131407 -0.77202,0.19711 -1.18267,0.19711 -1.64259,0 -2.88275,-0.574907 -3.72047,-1.72472 -0.83773,-1.16624 -1.25659,-2.8499 -1.25659,-5.05098 0,-2.201073 0.41886,-3.876517 1.25659,-5.02633 0.83772,-1.14982 2.07788,-1.72473 3.72047,-1.72473 0.83773,0 1.57689,0.229963 2.2175,0.68989 0.65704,0.459927 1.0759,1.05126 1.25659,1.774 h 0.1232 v -7.46558 h 3.64655 v 18.23278 h -3.64655 z m -2.38997,-0.49278 c 0.68989,0 1.25658,-0.16426 1.70008,-0.49278 0.45993,-0.34494 0.68989,-0.813077 0.68989,-1.40441 v -3.81903 c 0,-0.591333 -0.22996,-1.05126 -0.68989,-1.37978 -0.4435,-0.344947 -1.01019,-0.51742 -1.70008,-0.51742 -0.68989,0 -1.2648,0.24639 -1.72473,0.73917 -0.4435,0.476353 -0.66525,1.125177 -0.66525,1.94647 v 2.24214 c 0,0.8213 0.22175,1.478337 0.66525,1.97111 0.45993,0.476353 1.03484,0.71453 1.72473,0.71453 z m 9.43669,-15.57178 h 3.646554 v 7.49022 h 0.14784 c 0.22996,-0.67346 0.63239,-1.25658 1.2073,-1.74936 0.57491,-0.49278 1.37157,-0.73917 2.38998,-0.73917 1.3305,0 2.33248,0.4435 3.00594,1.3305 0.68989,0.887007 1.03484,2.151807 1.03484,3.7944 v 8.10619 h -3.64656 v -7.81053 c 0,-0.83772 -0.13141,-1.453693 -0.39422,-1.84792 -0.26282,-0.410647 -0.73096,-0.61597 -1.40442,-0.61597 -0.29567,0 -0.58312,0.04107 -0.86236,0.1232 -0.27924,0.06567 -0.53384,0.180647 -0.76381,0.34494 -0.21353,0.16426 -0.38601,0.369583 -0.51742,0.61597 -0.13141,0.229967 -0.19711,0.500997 -0.19711,0.81309 v 8.37722 h -3.646554 z m 24.244704,18.23278 c -0.65704,0 -1.20731,-0.205323 -1.65081,-0.61597 -0.42707,-0.410647 -0.6981,-0.960913 -0.81308,-1.6508 h -0.14784 c -0.19711,0.83772 -0.63239,1.47833 -1.30586,1.92183 -0.67346,0.427073 -1.50297,0.64061 -2.48853,0.64061 -1.29765,0 -2.29142,-0.344943 -2.98131,-1.03483 -0.68989,-0.689893 -1.03483,-1.601533 -1.03483,-2.73492 0,-1.363353 0.49278,-2.37355 1.47833,-3.03059 1.00199,-0.67346 2.35713,-1.01019 4.06542,-1.01019 h 2.04503 v -0.81308 c 0,-0.624187 -0.16426,-1.116967 -0.49278,-1.47834 -0.32851,-0.377793 -0.87878,-0.56669 -1.6508,-0.56669 -0.72274,0 -1.29765,0.156047 -1.72473,0.46814 -0.42707,0.312087 -0.78023,0.665243 -1.05947,1.05947 l -2.16822,-1.92184 c 0.52563,-0.772013 1.18266,-1.37156 1.97111,-1.79864 0.80487,-0.4435 1.88899,-0.66525 3.25234,-0.66525 1.8397,0 3.21948,0.402437 4.13933,1.20731 0.91985,0.804873 1.37978,1.979327 1.37978,3.52336 v 5.66695 h 1.20731 v 2.83347 z m -5.05098,-2.24214 c 0.60776,0 1.12518,-0.131407 1.55225,-0.39422 0.4435,-0.262813 0.66525,-0.689887 0.66525,-1.28122 v -1.52761 h -1.774 c -1.42905,0 -2.14358,0.484563 -2.14358,1.45369 v 0.36959 c 0,0.476347 0.14783,0.829503 0.4435,1.05947 0.29567,0.213533 0.71453,0.3203 1.25658,0.3203 z m 9.51062,2.24214 v -12.93542 h 3.64656 v 2.19286 h 0.14783 c 0.22997,-0.689887 0.62419,-1.273007 1.18267,-1.74936 0.55848,-0.49278 1.32229,-0.73917 2.29142,-0.73917 0.887,0 1.64259,0.22175 2.26678,0.66525 0.62418,0.4435 1.07589,1.092327 1.35514,1.94648 h 0.0739 c 0.11498,-0.361373 0.28745,-0.698107 0.51742,-1.0102 0.24639,-0.32852 0.54205,-0.60776 0.887,-0.83772 0.34495,-0.22996 0.73096,-0.410647 1.15803,-0.54206 0.42707,-0.147833 0.887,-0.22175 1.37978,-0.22175 1.24837,0 2.20107,0.4435 2.85811,1.3305 0.67346,0.887007 1.01019,2.151807 1.01019,3.7944 v 8.10619 h -3.64655 v -7.81053 c 0,-1.642593 -0.59133,-2.46389 -1.774,-2.46389 -0.54206,0 -1.03484,0.156047 -1.47834,0.46814 -0.4435,0.312093 -0.66525,0.788447 -0.66525,1.42906 v 8.37722 h -3.64656 v -7.81053 c 0,-1.642593 -0.59133,-2.46389 -1.774,-2.46389 -0.26281,0 -0.52563,0.04107 -0.78844,0.1232 -0.24639,0.06567 -0.47636,0.180647 -0.68989,0.34494 -0.19711,0.16426 -0.36137,0.369583 -0.49278,0.61597 -0.11498,0.229967 -0.17247,0.500997 -0.17247,0.81309 v 8.37722 z"
       id="text13"
       aria-label="CR-Needham" /></g></svg>
