<?xml version="1.0" encoding="UTF-8" standalone="no"?>
<!-- Created with Inkscape (http://www.inkscape.org/) -->

<svg
   width="579.73322"
   height="80.000046"
   viewBox="0 0 153.38774 21.166678"
   version="1.1"
   id="svg1"
   xml:space="preserve"
   xmlns="http://www.w3.org/2000/svg"
   xmlns:svg="http://www.w3.org/2000/svg"><defs
     id="defs1" /><g
     id="layer1"
     transform="translate(-38.093965,-23.975487)"><rect
       style="fill:#7b388c;fill-opacity:1;stroke-width:0.322179"
       id="rect13"
       width="153.38774"
       height="21.166677"
       x="38.093964"
       y="23.975487"
       ry="1.3415861" /><path
       style="font-weight:bold;font-size:24.6389px;line-height:22.1749px;font-family:'IBM Plex Sans';-inkscape-font-specification:'IBM Plex Sans Bold';text-align:center;text-anchor:middle;fill:#ffffff;stroke-width:0.484307"
       d="m 47.067774,43.823062 q -1.749363,0 -3.15378,-0.54206 -1.404417,-0.56669 -2.389973,-1.6508 -0.985556,-1.10875 -1.527612,-2.73492 -0.542056,-1.65081 -0.542056,-3.84367 0,-2.16822 0.542056,-3.84367 0.542056,-1.70008 1.527612,-2.83347 0.985556,-1.15803 2.389973,-1.74936 1.404417,-0.59134 3.15378,-0.59134 2.389973,0 3.942224,0.98556 1.55225,0.96092 2.488529,3.05522 l -3.227696,1.67545 q -0.344945,-1.08411 -1.084112,-1.72472 -0.714528,-0.66525 -2.118945,-0.66525 -1.650807,0 -2.661002,1.08411 -0.985556,1.05947 -0.985556,3.1045 v 2.75956 q 0,2.04502 0.985556,3.12914 1.010195,1.05947 2.661002,1.05947 1.379778,0 2.192862,-0.73917 0.837722,-0.7638 1.231945,-1.82328 l 3.055223,1.774 q -0.960917,1.97112 -2.537806,3.05523 -1.552251,1.05947 -3.942224,1.05947 z m 12.83689,-0.29567 h -3.745113 v -17.19795 h 8.155476 q 1.182667,0 2.143585,0.39422 0.960917,0.39423 1.626167,1.13339 0.689889,0.71453 1.059473,1.72473 0.369583,1.01019 0.369583,2.24214 0,1.74936 -0.788445,3.05522 -0.763805,1.30586 -2.340695,1.8972 l 3.375529,6.75105 H 65.59625 l -3.005946,-6.30755 h -2.68564 z m 3.942224,-9.46133 q 0.837723,0 1.305862,-0.41887 0.492778,-0.4435 0.492778,-1.28122 v -1.08411 q 0,-0.83772 -0.492778,-1.25658 -0.468139,-0.4435 -1.305862,-0.4435 h -3.942224 v 4.48428 z m 7.958375,3.72047 v -3.548 h 7.317753 v 3.548 z m 15.768893,-2.38997 -1.650806,-3.44945 h -0.07392 v 11.58028 h -3.523363 v -17.19795 h 4.090058 l 4.70603,8.13084 1.650806,3.44944 h 0.07392 v -11.58028 h 3.523367 v 17.19795 h -4.090062 z m 17.789304,8.4265 q -1.47833,0 -2.63636,-0.46814 -1.15803,-0.49278 -1.97111,-1.35514 -0.788442,-0.887 -1.207312,-2.14358 -0.39422,-1.25659 -0.39422,-2.80884 0,-1.52761 0.39422,-2.75955 0.39423,-1.25659 1.158032,-2.14359 0.78845,-0.887 1.92184,-1.35514 1.13339,-0.49278 2.58708,-0.49278 1.60153,0 2.73492,0.54206 1.15803,0.54206 1.87256,1.4537 0.73916,0.91163 1.05947,2.11894 0.34494,1.18267 0.34494,2.48853 v 1.08411 h -8.30331 v 0.19711 q 0,1.28123 0.68989,2.04503 0.68989,0.73917 2.16823,0.73917 1.13339,0 1.84791,-0.4435 0.71453,-0.46814 1.3305,-1.10875 l 1.82328,2.26678 q -0.86236,1.01019 -2.26678,1.57689 -1.37977,0.56669 -3.15378,0.56669 z m -0.0739,-10.84112 q -1.10875,0 -1.74936,0.73917 -0.61597,0.71453 -0.61597,1.92184 v 0.19711 h 4.53356 v -0.22175 q 0,-1.18267 -0.54206,-1.8972 -0.51742,-0.73917 -1.62617,-0.73917 z m 13.92099,10.84112 q -1.47833,0 -2.63636,-0.46814 -1.15803,-0.49278 -1.97111,-1.35514 -0.78845,-0.887 -1.20731,-2.14358 -0.39422,-1.25659 -0.39422,-2.80884 0,-1.52761 0.39422,-2.75955 0.39422,-1.25659 1.15803,-2.14359 0.78844,-0.887 1.92183,-1.35514 1.13339,-0.49278 2.58709,-0.49278 1.60152,0 2.73491,0.54206 1.15803,0.54206 1.87256,1.4537 0.73917,0.91163 1.05947,2.11894 0.34495,1.18267 0.34495,2.48853 v 1.08411 h -8.30331 v 0.19711 q 0,1.28123 0.68989,2.04503 0.68989,0.73917 2.16822,0.73917 1.13339,0 1.84792,-0.4435 0.71453,-0.46814 1.3305,-1.10875 l 1.82328,2.26678 q -0.86236,1.01019 -2.26678,1.57689 -1.37978,0.56669 -3.15378,0.56669 z m -0.0739,-10.84112 q -1.10875,0 -1.74936,0.73917 -0.61597,0.71453 -0.61597,1.92184 v 0.19711 h 4.53355 v -0.22175 q 0,-1.18267 -0.54205,-1.8972 -0.51742,-0.73917 -1.62617,-0.73917 z m 16.4588,8.37723 h -0.1232 q -0.14784,0.51742 -0.46814,0.98556 -0.32031,0.4435 -0.78845,0.78844 -0.4435,0.32031 -1.03483,0.49278 -0.56669,0.19711 -1.18267,0.19711 -2.46389,0 -3.72047,-1.72472 -1.25659,-1.74936 -1.25659,-5.05098 0,-3.30161 1.25659,-5.02633 1.25658,-1.72473 3.72047,-1.72473 1.25659,0 2.2175,0.68989 0.98556,0.68989 1.25659,1.774 h 0.1232 v -7.46558 h 3.64655 v 18.23278 h -3.64655 z m -2.38997,-0.49278 q 1.03483,0 1.70008,-0.49278 0.68989,-0.51741 0.68989,-1.40441 v -3.81903 q 0,-0.887 -0.68989,-1.37978 -0.66525,-0.51742 -1.70008,-0.51742 -1.03484,0 -1.72473,0.73917 -0.66525,0.71453 -0.66525,1.94647 v 2.24214 q 0,1.23195 0.66525,1.97111 0.68989,0.71453 1.72473,0.71453 z m 9.43669,-15.57178 h 3.64655 v 7.49022 h 0.14784 q 0.34494,-1.01019 1.2073,-1.74936 0.86236,-0.73917 2.38998,-0.73917 1.99575,0 3.00594,1.3305 1.03484,1.33051 1.03484,3.7944 v 8.10619 h -3.64656 v -7.81053 q 0,-1.25658 -0.39422,-1.84792 -0.39423,-0.61597 -1.40442,-0.61597 -0.4435,0 -0.86236,0.1232 -0.41886,0.0985 -0.76381,0.34494 -0.3203,0.24639 -0.51742,0.61597 -0.19711,0.34495 -0.19711,0.81309 v 8.37722 h -3.64655 z m 24.2447,18.23278 q -0.98556,0 -1.65081,-0.61597 -0.64061,-0.61597 -0.81308,-1.6508 h -0.14784 q -0.29566,1.25658 -1.30586,1.92183 -1.01019,0.64061 -2.48853,0.64061 -1.94647,0 -2.98131,-1.03483 -1.03483,-1.03484 -1.03483,-2.73492 0,-2.04503 1.47833,-3.03059 1.50298,-1.01019 4.06542,-1.01019 h 2.04503 v -0.81308 q 0,-0.93628 -0.49278,-1.47834 -0.49277,-0.56669 -1.6508,-0.56669 -1.08411,0 -1.72473,0.46814 -0.64061,0.46813 -1.05947,1.05947 l -2.16822,-1.92184 q 0.78844,-1.15802 1.97111,-1.79864 1.20731,-0.66525 3.25234,-0.66525 2.75955,0 4.13933,1.20731 1.37978,1.20731 1.37978,3.52336 v 5.66695 h 1.20731 v 2.83347 z m -5.05098,-2.24214 q 0.91164,0 1.55225,-0.39422 0.66525,-0.39422 0.66525,-1.28122 v -1.52761 h -1.774 q -2.14358,0 -2.14358,1.45369 v 0.36959 q 0,0.71452 0.4435,1.05947 0.4435,0.3203 1.25658,0.3203 z m 9.51062,2.24214 v -12.93542 h 3.64656 v 2.19286 h 0.14783 q 0.34495,-1.03483 1.18267,-1.74936 0.83772,-0.73917 2.29142,-0.73917 1.3305,0 2.26678,0.66525 0.93627,0.66525 1.35514,1.94648 h 0.0739 q 0.17247,-0.54206 0.51742,-1.0102 0.36958,-0.49278 0.887,-0.83772 0.51742,-0.34494 1.15803,-0.54206 0.64061,-0.22175 1.37978,-0.22175 1.87255,0 2.85811,1.3305 1.01019,1.33051 1.01019,3.7944 v 8.10619 h -3.64655 v -7.81053 q 0,-2.46389 -1.774,-2.46389 -0.81309,0 -1.47834,0.46814 -0.66525,0.46814 -0.66525,1.42906 v 8.37722 h -3.64656 v -7.81053 q 0,-2.46389 -1.774,-2.46389 -0.39422,0 -0.78844,0.1232 -0.36959,0.0985 -0.68989,0.34494 -0.29567,0.24639 -0.49278,0.61597 -0.17247,0.34495 -0.17247,0.81309 v 8.37722 z"
       id="text13"
       aria-label="CR-Needham" /></g></svg>
