<?xml version="1.0" encoding="UTF-8" standalone="no"?>
<!-- Created with Inkscape (http://www.inkscape.org/) -->

<svg
   width="1184.9999"
   height="100"
   viewBox="0 0 313.53121 26.458333"
   version="1.1"
   id="svg1"
   xml:space="preserve"
   xmlns="http://www.w3.org/2000/svg"
   xmlns:svg="http://www.w3.org/2000/svg"><defs
     id="defs1" /><g
     id="layer1"
     transform="translate(-50.563862,-129.40324)"><rect
       style="fill:#7b388c;fill-opacity:1;stroke-width:0.514988"
       id="rect17"
       width="313.53122"
       height="26.458336"
       x="50.563862"
       y="129.40324"
       ry="1.6769819" /><path
       style="font-weight:bold;font-size:24.6389px;line-height:22.1749px;font-family:'IBM Plex Sans';-inkscape-font-specification:'IBM Plex Sans Bold';text-align:center;text-anchor:middle;fill:#ffffff;stroke-width:0.484307"
       d="m 59.680902,149.58059 q -1.74936,0 -3.15378,-0.54205 -1.40441,-0.5667 -2.38997,-1.65081 -0.98556,-1.10875 -1.52761,-2.73492 -0.54206,-1.6508 -0.54206,-3.84367 0,-2.16822 0.54206,-3.84366 0.54205,-1.70009 1.52761,-2.83348 0.98556,-1.15803 2.38997,-1.74936 1.40442,-0.59133 3.15378,-0.59133 2.38998,0 3.94223,0.98555 1.55225,0.96092 2.48853,3.05523 l -3.2277,1.67544 q -0.34495,-1.08411 -1.08411,-1.72472 -0.71453,-0.66525 -2.11895,-0.66525 -1.6508,0 -2.661,1.08411 -0.98556,1.05947 -0.98556,3.1045 v 2.75956 q 0,2.04503 0.98556,3.12914 1.0102,1.05947 2.661,1.05947 1.37978,0 2.19286,-0.73916 0.83773,-0.76381 1.23195,-1.82328 l 3.05522,1.774 q -0.96091,1.97111 -2.5378,3.05522 -1.55225,1.05947 -3.94223,1.05947 z m 12.83689,-0.29566 h -3.74511 v -17.19796 h 8.15548 q 1.18266,0 2.14358,0.39423 0.96092,0.39422 1.62617,1.13339 0.68989,0.71452 1.05947,1.72472 0.36958,1.01019 0.36958,2.24214 0,1.74936 -0.78844,3.05522 -0.76381,1.30586 -2.3407,1.8972 l 3.37553,6.75106 h -4.16397 l -3.00595,-6.30756 h -2.68564 z m 3.94223,-9.46134 q 0.83772,0 1.30586,-0.41886 0.49278,-0.4435 0.49278,-1.28123 v -1.08411 q 0,-0.83772 -0.49278,-1.25658 -0.46814,-0.4435 -1.30586,-0.4435 h -3.94223 v 4.48428 z m 7.95837,3.72047 v -3.548 h 7.31776 v 3.548 z m 15.768898,-2.38997 -1.650809,-3.44945 h -0.0739 v 11.58029 h -3.523379 v -17.19796 h 4.090049 l 4.706029,8.13084 1.65081,3.44945 h 0.0739 v -11.58029 h 3.52336 v 17.19796 h -4.09005 z m 17.7893,8.4265 q -1.47833,0 -2.63636,-0.46814 -1.15803,-0.49277 -1.97111,-1.35513 -0.78845,-0.88701 -1.20731,-2.14359 -0.39422,-1.25658 -0.39422,-2.80883 0,-1.52762 0.39422,-2.75956 0.39422,-1.25658 1.15803,-2.14359 0.78844,-0.887 1.92183,-1.35513 1.13339,-0.49278 2.58709,-0.49278 1.60153,0 2.73492,0.54205 1.15803,0.54206 1.87255,1.4537 0.73917,0.91164 1.05948,2.11894 0.34494,1.18267 0.34494,2.48853 v 1.08411 h -8.30331 v 0.19712 q 0,1.28122 0.68989,2.04502 0.68989,0.73917 2.16822,0.73917 1.13339,0 1.84792,-0.4435 0.71453,-0.46814 1.3305,-1.10875 l 1.82328,2.26678 q -0.86236,1.01019 -2.26678,1.57689 -1.37978,0.56669 -3.15378,0.56669 z m -0.0739,-10.84111 q -1.10875,0 -1.74936,0.73916 -0.61597,0.71453 -0.61597,1.92184 v 0.19711 h 4.53356 v -0.22175 q 0,-1.18267 -0.54206,-1.8972 -0.51742,-0.73916 -1.62617,-0.73916 z m 7.16995,-2.38998 h 3.52337 l 1.25658,5.22345 0.887,3.94223 h 0.0986 l 1.03484,-3.94223 1.47833,-5.22345 h 3.32625 l 1.50297,5.22345 1.05948,3.94223 h 0.0986 l 0.887,-3.94223 1.25658,-5.22345 h 3.37553 l -3.57264,12.93543 h -3.81903 l -1.57689,-5.46984 -0.91164,-3.35089 h -0.0739 l -0.887,3.35089 -1.57689,5.46984 h -3.74511 z m 21.95326,-5.29736 h 3.64655 v 7.46559 h 0.12319 q 0.27103,-1.08411 1.23195,-1.774 0.98556,-0.68989 2.24214,-0.68989 2.46389,0 3.72047,1.72472 1.25659,1.72472 1.25659,5.02634 0,3.30161 -1.25659,5.05097 -1.25658,1.72472 -3.72047,1.72472 -0.64061,0 -1.20731,-0.19711 -0.56669,-0.17247 -1.03483,-0.49278 -0.4435,-0.34494 -0.76381,-0.78844 -0.3203,-0.46814 -0.46814,-0.98556 h -0.12319 v 2.16823 h -3.64655 z m 6.03652,15.57179 q 1.03484,0 1.70009,-0.71453 0.68989,-0.73917 0.68989,-1.97111 v -2.24214 q 0,-1.23195 -0.68989,-1.94648 -0.66525,-0.73916 -1.70009,-0.73916 -1.03483,0 -1.72472,0.51741 -0.66525,0.49278 -0.66525,1.37978 v 3.81903 q 0,0.887 0.66525,1.40442 0.68989,0.49278 1.72472,0.49278 z m 16.58198,0.49277 h -0.1232 q -0.17247,0.49278 -0.46814,0.93628 -0.27102,0.4435 -0.71452,0.78845 -0.4435,0.34494 -1.05948,0.54205 -0.59133,0.19711 -1.37977,0.19711 -1.99576,0 -3.03059,-1.30586 -1.01019,-1.3305 -1.01019,-3.79439 v -8.13084 h 3.64655 v 7.81054 q 0,1.18266 0.41886,1.82327 0.41887,0.64062 1.42906,0.64062 0.41886,0 0.83772,-0.1232 0.41886,-0.12319 0.73917,-0.34494 0.32031,-0.24639 0.51742,-0.59134 0.19711,-0.34494 0.19711,-0.81308 v -8.40187 h 3.64656 v 12.93543 h -3.64656 z m 7.04674,2.16823 V 136.3495 h 3.64656 v 2.80884 h 0.12319 q 0.0986,-0.54206 0.34494,-1.03484 0.24639,-0.51741 0.64062,-0.91163 0.41886,-0.39423 0.98555,-0.61598 0.5667,-0.24639 1.3305,-0.24639 h 0.64061 v 3.40017 h -0.91164 q -1.60152,0 -2.38997,0.41886 -0.7638,0.41886 -0.7638,1.55225 v 7.56415 z M 194.7268,136.3495 h 3.40017 l -4.97706,14.93118 q -0.49278,1.50297 -1.40442,2.2175 -0.887,0.71453 -2.56245,0.71453 h -2.26677 v -2.83348 h 2.43925 l 0.4435,-1.42905 -4.53356,-13.60068 h 3.62192 l 1.89719,6.03653 0.93628,3.74512 h 0.14783 l 0.96092,-3.74512 z m 5.24809,0 h 3.64656 v 2.16823 h 0.12319 q 0.27103,-1.08411 1.23195,-1.774 0.98555,-0.68989 2.24214,-0.68989 2.46389,0 3.72047,1.72472 1.25659,1.72472 1.25659,5.02634 0,3.30161 -1.25659,5.05097 -1.25658,1.72472 -3.72047,1.72472 -0.64061,0 -1.20731,-0.19711 -0.56669,-0.17247 -1.03483,-0.49278 -0.4435,-0.34494 -0.76381,-0.78844 -0.3203,-0.46814 -0.46814,-0.98556 h -0.12319 v 7.09601 h -3.64656 z m 6.03653,10.27443 q 1.03484,0 1.70009,-0.71453 0.68988,-0.73917 0.68988,-1.97111 v -2.24214 q 0,-1.23195 -0.68988,-1.94648 -0.66525,-0.73916 -1.70009,-0.73916 -1.03483,0 -1.72472,0.51741 -0.66525,0.49278 -0.66525,1.37978 v 3.81903 q 0,0.887 0.66525,1.40442 0.68989,0.49278 1.72472,0.49278 z m 14.19201,2.95666 q -1.42906,0 -2.56245,-0.46814 -1.10875,-0.46813 -1.89719,-1.35513 -0.76381,-0.88701 -1.18267,-2.14359 -0.41886,-1.25658 -0.41886,-2.80883 0,-1.55225 0.41886,-2.80884 0.41886,-1.25658 1.18267,-2.11894 0.78844,-0.887 1.89719,-1.35514 1.13339,-0.46814 2.56245,-0.46814 1.42906,0 2.53781,0.46814 1.13339,0.46814 1.89719,1.35514 0.78845,0.86236 1.20731,2.11894 0.41886,1.25659 0.41886,2.80884 0,1.55225 -0.41886,2.80883 -0.41886,1.25658 -1.20731,2.14359 -0.7638,0.887 -1.89719,1.35513 -1.10875,0.46814 -2.53781,0.46814 z m 0,-2.88275 q 1.08411,0 1.67545,-0.66525 0.59133,-0.66525 0.59133,-1.89719 v -2.63637 q 0,-1.23194 -0.59133,-1.89719 -0.59134,-0.66525 -1.67545,-0.66525 -1.08411,0 -1.67545,0.66525 -0.59133,0.66525 -0.59133,1.89719 v 2.63637 q 0,1.23194 0.59133,1.89719 0.59134,0.66525 1.67545,0.66525 z m 8.64823,2.58709 V 136.3495 h 3.64656 v 2.80884 h 0.12319 q 0.0986,-0.54206 0.34495,-1.03484 0.24639,-0.51741 0.64061,-0.91163 0.41886,-0.39423 0.98555,-0.61598 0.5667,-0.24639 1.33051,-0.24639 h 0.64061 v 3.40017 H 235.652 q -1.60153,0 -2.38998,0.41886 -0.7638,0.41886 -0.7638,1.55225 v 7.56415 z m 14.5862,0 q -1.89719,0 -2.88275,-0.96092 -0.96092,-0.96092 -0.96092,-2.80883 v -6.3322 h -1.82328 v -2.83348 h 0.91164 q 0.73917,0 1.0102,-0.34494 0.27103,-0.36958 0.27103,-1.03483 v -2.11895 h 3.27697 v 3.49872 h 2.56245 v 2.83348 h -2.56245 v 7.26847 h 2.36533 v 2.83348 z m 3.27697,3.72047 7.34239,-21.95326 h 3.00595 l -7.3424,21.95326 z m 16.90225,-3.72047 h -3.74511 v -17.19796 h 8.15547 q 1.18267,0 2.14359,0.39423 0.96092,0.39422 1.62617,1.13339 0.68989,0.71452 1.05947,1.72472 0.36958,1.01019 0.36958,2.24214 0,1.74936 -0.78844,3.05522 -0.76381,1.30586 -2.3407,1.8972 l 3.37553,6.75106 h -4.16397 l -3.00595,-6.30756 h -2.68564 z m 3.94223,-9.46134 q 0.83772,0 1.30586,-0.41886 0.49277,-0.4435 0.49277,-1.28123 v -1.08411 q 0,-0.83772 -0.49277,-1.25658 -0.46814,-0.4435 -1.30586,-0.4435 h -3.94223 v 4.48428 z m 13.60068,9.757 q -1.42906,0 -2.56245,-0.46814 -1.10875,-0.46813 -1.89719,-1.35513 -0.76381,-0.88701 -1.18267,-2.14359 -0.41886,-1.25658 -0.41886,-2.80883 0,-1.55225 0.41886,-2.80884 0.41886,-1.25658 1.18267,-2.11894 0.78844,-0.887 1.89719,-1.35514 1.13339,-0.46814 2.56245,-0.46814 1.42905,0 2.5378,0.46814 1.13339,0.46814 1.8972,1.35514 0.78845,0.86236 1.20731,2.11894 0.41886,1.25659 0.41886,2.80884 0,1.55225 -0.41886,2.80883 -0.41886,1.25658 -1.20731,2.14359 -0.76381,0.887 -1.8972,1.35513 -1.10875,0.46814 -2.5378,0.46814 z m 0,-2.88275 q 1.08411,0 1.67544,-0.66525 0.59134,-0.66525 0.59134,-1.89719 v -2.63637 q 0,-1.23194 -0.59134,-1.89719 -0.59133,-0.66525 -1.67544,-0.66525 -1.08411,0 -1.67545,0.66525 -0.59133,0.66525 -0.59133,1.89719 v 2.63637 q 0,1.23194 0.59133,1.89719 0.59134,0.66525 1.67545,0.66525 z m 13.87168,2.88275 q -1.4537,0 -2.58709,-0.46814 -1.13339,-0.49277 -1.89719,-1.35513 -0.76381,-0.88701 -1.15803,-2.14359 -0.39422,-1.25658 -0.39422,-2.80883 0,-1.55225 0.39422,-2.7842 0.39422,-1.25658 1.15803,-2.14358 0.7638,-0.887 1.89719,-1.35514 1.13339,-0.46814 2.58709,-0.46814 1.97111,0 3.27697,0.887 1.3305,0.887 1.89719,2.48853 l -2.95666,1.28122 q -0.17248,-0.73917 -0.71453,-1.25658 -0.54206,-0.51742 -1.50297,-0.51742 -1.10875,0 -1.67545,0.73917 -0.56669,0.71452 -0.56669,1.94647 v 2.41461 q 0,1.23195 0.56669,1.94647 0.5667,0.71453 1.67545,0.71453 0.98555,0 1.55225,-0.51741 0.59133,-0.54206 0.86236,-1.40442 l 2.83347,1.23194 q -0.64061,1.84792 -1.99575,2.71028 -1.3305,0.86236 -3.25233,0.86236 z m 7.51488,-18.52845 h 3.64655 v 10.7672 h 0.14784 l 1.60153,-2.38997 2.58708,-3.07987 h 4.04078 l -4.31181,4.95242 4.80459,7.98301 h -4.33645 l -2.90739,-5.46984 -1.62617,1.82328 v 3.64656 h -3.64655 z m 14.21662,5.29736 h 3.64656 v 2.16823 h 0.1232 q 0.27102,-1.08411 1.23194,-1.774 0.98556,-0.68989 2.24214,-0.68989 2.46389,0 3.72048,1.72472 1.25658,1.72472 1.25658,5.02634 0,3.30161 -1.25658,5.05097 -1.25659,1.72472 -3.72048,1.72472 -0.64061,0 -1.2073,-0.19711 -0.5667,-0.17247 -1.03484,-0.49278 -0.4435,-0.34494 -0.7638,-0.78844 -0.32031,-0.46814 -0.46814,-0.98556 h -0.1232 v 7.09601 h -3.64656 z m 6.03654,10.27443 q 1.03483,0 1.70008,-0.71453 0.68989,-0.73917 0.68989,-1.97111 v -2.24214 q 0,-1.23195 -0.68989,-1.94648 -0.66525,-0.73916 -1.70008,-0.73916 -1.03484,0 -1.72473,0.51741 -0.66525,0.49278 -0.66525,1.37978 v 3.81903 q 0,0.887 0.66525,1.40442 0.68989,0.49278 1.72473,0.49278 z m 14.19199,2.95666 q -1.42906,0 -2.56245,-0.46814 -1.10875,-0.46813 -1.89719,-1.35513 -0.76381,-0.88701 -1.18267,-2.14359 -0.41886,-1.25658 -0.41886,-2.80883 0,-1.55225 0.41886,-2.80884 0.41886,-1.25658 1.18267,-2.11894 0.78844,-0.887 1.89719,-1.35514 1.13339,-0.46814 2.56245,-0.46814 1.42906,0 2.53781,0.46814 1.13339,0.46814 1.89719,1.35514 0.78845,0.86236 1.20731,2.11894 0.41886,1.25659 0.41886,2.80884 0,1.55225 -0.41886,2.80883 -0.41886,1.25658 -1.20731,2.14359 -0.7638,0.887 -1.89719,1.35513 -1.10875,0.46814 -2.53781,0.46814 z m 0,-2.88275 q 1.08411,0 1.67544,-0.66525 0.59134,-0.66525 0.59134,-1.89719 v -2.63637 q 0,-1.23194 -0.59134,-1.89719 -0.59133,-0.66525 -1.67544,-0.66525 -1.08411,0 -1.67545,0.66525 -0.59133,0.66525 -0.59133,1.89719 v 2.63637 q 0,1.23194 0.59133,1.89719 0.59134,0.66525 1.67545,0.66525 z m 8.64824,2.58709 V 136.3495 h 3.64656 v 2.80884 h 0.1232 q 0.0985,-0.54206 0.34494,-1.03484 0.24639,-0.51741 0.64061,-0.91163 0.41886,-0.39423 0.98556,-0.61598 0.56669,-0.24639 1.3305,-0.24639 h 0.64061 v 3.40017 h -0.91164 q -1.60153,0 -2.38997,0.41886 -0.76381,0.41886 -0.76381,1.55225 v 7.56415 z m 14.58621,0 q -1.8972,0 -2.88276,-0.96092 -0.96091,-0.96092 -0.96091,-2.80883 v -6.3322 h -1.82328 v -2.83348 h 0.91164 q 0.73916,0 1.01019,-0.34494 0.27103,-0.36958 0.27103,-1.03483 v -2.11895 h 3.27697 v 3.49872 h 2.56245 v 2.83348 h -2.56245 v 7.26847 h 2.36534 v 2.83348 z"
       id="text17"
       aria-label="CR-Newburyport/Rockport" /></g></svg>
