<?xml version="1.0" encoding="UTF-8" standalone="no"?>
<!-- Created with Inkscape (http://www.inkscape.org/) -->

<svg
   width="629.99994"
   height="186.08887"
   viewBox="0 0 166.68748 49.236011"
   version="1.1"
   id="svg1"
   xml:space="preserve"
   xmlns="http://www.w3.org/2000/svg"
   xmlns:svg="http://www.w3.org/2000/svg"><defs
     id="defs1" /><g
     id="layer1"
     transform="translate(-173.56484,-94.994152)"><rect
       style="fill:#7b388c;fill-opacity:1;stroke-width:0.512234"
       id="rect17"
       width="166.68748"
       height="49.236004"
       x="173.56483"
       y="94.994148"
       ry="3.1206758" /><path
       style="font-weight:bold;font-size:24.6389px;line-height:22.1749px;font-family:'IBM Plex Sans';-inkscape-font-specification:'IBM Plex Sans Bold';text-align:center;text-anchor:middle;fill:#ffffff;stroke-width:0.484307"
       d="m 181.11435,106.76392 -1.65081,-3.44945 h -0.0739 v 11.58029 h -3.52338 V 97.6968 h 4.09005 l 4.70603,8.13084 1.65081,3.44945 h 0.0739 V 97.6968 h 3.52336 v 17.19796 h -4.09005 z m 17.7893,8.4265 c -0.98555,0 -1.86434,-0.15604 -2.63636,-0.46814 -0.77202,-0.32851 -1.42906,-0.78022 -1.97111,-1.35513 -0.52563,-0.59134 -0.92807,-1.30587 -1.20731,-2.14359 -0.26281,-0.83772 -0.39422,-1.77399 -0.39422,-2.80883 0,-1.01841 0.13141,-1.93826 0.39422,-2.75956 0.26281,-0.83772 0.64882,-1.55225 1.15803,-2.14359 0.52563,-0.59133 1.16624,-1.04304 1.92183,-1.35513 0.75559,-0.32852 1.61796,-0.49278 2.58709,-0.49278 1.06769,0 1.97933,0.18069 2.73492,0.54205 0.77202,0.36138 1.3962,0.84594 1.87255,1.4537 0.49278,0.60776 0.84594,1.31408 1.05948,2.11894 0.22996,0.78845 0.34494,1.61796 0.34494,2.48853 v 1.08411 h -8.30331 v 0.19712 c 0,0.85415 0.22996,1.53582 0.68989,2.04502 0.45993,0.49278 1.18267,0.73917 2.16822,0.73917 0.75559,0 1.37157,-0.14783 1.84792,-0.4435 0.47635,-0.31209 0.91985,-0.68167 1.3305,-1.10875 l 1.82328,2.26678 c -0.57491,0.67346 -1.3305,1.19909 -2.26678,1.57689 -0.91985,0.3778 -1.97111,0.56669 -3.15378,0.56669 z m -0.0739,-10.84111 c -0.73917,0 -1.32229,0.24639 -1.74936,0.73916 -0.41065,0.47636 -0.61597,1.11697 -0.61597,1.92184 v 0.19711 h 4.53356 v -0.22175 c 0,-0.78844 -0.18069,-1.42084 -0.54206,-1.8972 -0.34495,-0.49277 -0.887,-0.73916 -1.62617,-0.73916 z m 7.16995,-2.38998 h 3.52337 l 1.25658,5.22345 0.887,3.94223 h 0.0986 l 1.03484,-3.94223 1.47833,-5.22345 h 3.32625 l 1.50297,5.22345 1.05948,3.94223 h 0.0986 l 0.887,-3.94223 1.25658,-5.22345 h 3.37553 l -3.57264,12.93543 h -3.81903 l -1.57689,-5.46984 -0.91164,-3.35089 h -0.0739 l -0.887,3.35089 -1.57689,5.46984 h -3.74511 z m 21.95326,-5.29736 h 3.64655 v 7.46559 h 0.12319 c 0.18069,-0.72274 0.59134,-1.31407 1.23195,-1.774 0.65704,-0.45992 1.40442,-0.68989 2.24214,-0.68989 1.64259,0 2.88275,0.57491 3.72047,1.72472 0.83773,1.14982 1.25659,2.82526 1.25659,5.02634 0,2.20108 -0.41886,3.88473 -1.25659,5.05097 -0.83772,1.14982 -2.07788,1.72472 -3.72047,1.72472 -0.42707,0 -0.82951,-0.0657 -1.20731,-0.19711 -0.37779,-0.11498 -0.72274,-0.27924 -1.03483,-0.49278 -0.29567,-0.22996 -0.55027,-0.49277 -0.76381,-0.78844 -0.21353,-0.31209 -0.36958,-0.64061 -0.46814,-0.98556 h -0.12319 v 2.16823 h -3.64655 z m 6.03652,15.57179 c 0.68989,0 1.25659,-0.23817 1.70009,-0.71453 0.45993,-0.49278 0.68989,-1.14981 0.68989,-1.97111 v -2.24214 c 0,-0.8213 -0.22996,-1.47012 -0.68989,-1.94648 -0.4435,-0.49277 -1.0102,-0.73916 -1.70009,-0.73916 -0.68989,0 -1.26479,0.17247 -1.72472,0.51741 -0.4435,0.32852 -0.66525,0.78845 -0.66525,1.37978 v 3.81903 c 0,0.59134 0.22175,1.05948 0.66525,1.40442 0.45993,0.32852 1.03483,0.49278 1.72472,0.49278 z m 16.58198,0.49277 h -0.1232 c -0.11498,0.32852 -0.27103,0.64062 -0.46814,0.93628 -0.18068,0.29567 -0.41885,0.55849 -0.71452,0.78845 -0.29567,0.22996 -0.64883,0.41065 -1.05948,0.54205 -0.39422,0.13141 -0.85414,0.19711 -1.37977,0.19711 -1.33051,0 -2.3407,-0.43528 -3.03059,-1.30586 -0.67346,-0.887 -1.01019,-2.15179 -1.01019,-3.79439 v -8.13084 h 3.64655 v 7.81054 c 0,0.78844 0.13962,1.3962 0.41886,1.82327 0.27925,0.42708 0.7556,0.64062 1.42906,0.64062 0.27924,0 0.55848,-0.0411 0.83772,-0.1232 0.27924,-0.0821 0.52563,-0.1971 0.73917,-0.34494 0.21354,-0.16426 0.38601,-0.36137 0.51742,-0.59134 0.13141,-0.22996 0.19711,-0.50098 0.19711,-0.81308 v -8.40187 h 3.64656 v 12.93543 h -3.64656 z m 7.04674,2.16823 v -12.93543 h 3.64656 v 2.80884 h 0.12319 c 0.0657,-0.36137 0.18071,-0.70632 0.34494,-1.03484 0.16426,-0.34494 0.3778,-0.64881 0.64062,-0.91163 0.27924,-0.26282 0.60776,-0.46814 0.98555,-0.61598 0.3778,-0.16426 0.8213,-0.24639 1.3305,-0.24639 h 0.64061 v 3.40017 h -0.91164 c -1.06768,0 -1.86434,0.13962 -2.38997,0.41886 -0.5092,0.27924 -0.7638,0.79666 -0.7638,1.55225 v 7.56415 z m 18.03566,-12.93543 h 3.40017 l -4.97706,14.93118 c -0.32852,1.00198 -0.79666,1.74115 -1.40442,2.2175 -0.59133,0.47636 -1.44548,0.71453 -2.56245,0.71453 h -2.26677 v -2.83348 h 2.43925 l 0.4435,-1.42905 -4.53356,-13.60068 h 3.62192 l 1.89719,6.03653 0.93628,3.74512 h 0.14783 l 0.96092,-3.74512 z m 5.24809,0 h 3.64656 v 2.16823 h 0.12319 c 0.18069,-0.72274 0.59134,-1.31407 1.23195,-1.774 0.65703,-0.45992 1.40441,-0.68989 2.24214,-0.68989 1.64259,0 2.88275,0.57491 3.72047,1.72472 0.83773,1.14982 1.25659,2.82526 1.25659,5.02634 0,2.20108 -0.41886,3.88473 -1.25659,5.05097 -0.83772,1.14982 -2.07788,1.72472 -3.72047,1.72472 -0.42707,0 -0.82951,-0.0657 -1.20731,-0.19711 -0.37779,-0.11498 -0.72274,-0.27924 -1.03483,-0.49278 -0.29567,-0.22996 -0.55027,-0.49277 -0.76381,-0.78844 -0.21353,-0.31209 -0.36958,-0.64061 -0.46814,-0.98556 h -0.12319 v 7.09601 h -3.64656 z m 6.03653,10.27443 c 0.68989,0 1.25659,-0.23817 1.70009,-0.71453 0.45992,-0.49278 0.68988,-1.14981 0.68988,-1.97111 v -2.24214 c 0,-0.8213 -0.22996,-1.47012 -0.68988,-1.94648 -0.4435,-0.49277 -1.0102,-0.73916 -1.70009,-0.73916 -0.68989,0 -1.26479,0.17247 -1.72472,0.51741 -0.4435,0.32852 -0.66525,0.78845 -0.66525,1.37978 v 3.81903 c 0,0.59134 0.22175,1.05948 0.66525,1.40442 0.45993,0.32852 1.03483,0.49278 1.72472,0.49278 z m 14.19201,2.95666 c -0.95271,0 -1.80686,-0.15604 -2.56245,-0.46814 -0.73917,-0.31208 -1.37156,-0.76379 -1.89719,-1.35513 -0.50921,-0.59134 -0.90343,-1.30587 -1.18267,-2.14359 -0.27924,-0.83772 -0.41886,-1.77399 -0.41886,-2.80883 0,-1.03483 0.13962,-1.97111 0.41886,-2.80884 0.27924,-0.83772 0.67346,-1.54403 1.18267,-2.11894 0.52563,-0.59133 1.15802,-1.04304 1.89719,-1.35514 0.75559,-0.31209 1.60974,-0.46814 2.56245,-0.46814 0.95271,0 1.79864,0.15605 2.53781,0.46814 0.75559,0.3121 1.38799,0.76381 1.89719,1.35514 0.52563,0.57491 0.92807,1.28122 1.20731,2.11894 0.27924,0.83773 0.41886,1.77401 0.41886,2.80884 0,1.03484 -0.13962,1.97111 -0.41886,2.80883 -0.27924,0.83772 -0.68168,1.55225 -1.20731,2.14359 -0.5092,0.59134 -1.1416,1.04305 -1.89719,1.35513 -0.73917,0.3121 -1.5851,0.46814 -2.53781,0.46814 z m 0,-2.88275 c 0.72274,0 1.28122,-0.22175 1.67545,-0.66525 0.39422,-0.4435 0.59133,-1.07589 0.59133,-1.89719 v -2.63637 c 0,-0.82129 -0.19711,-1.45369 -0.59133,-1.89719 -0.39423,-0.4435 -0.95271,-0.66525 -1.67545,-0.66525 -0.72274,0 -1.28122,0.22175 -1.67545,0.66525 -0.39422,0.4435 -0.59133,1.0759 -0.59133,1.89719 v 2.63637 c 0,0.8213 0.19711,1.45369 0.59133,1.89719 0.39423,0.4435 0.95271,0.66525 1.67545,0.66525 z m 8.64823,2.58709 v -12.93543 h 3.64656 v 2.80884 h 0.12319 c 0.0657,-0.36137 0.18072,-0.70632 0.34495,-1.03484 0.16426,-0.34494 0.3778,-0.64881 0.64061,-0.91163 0.27924,-0.26282 0.60776,-0.46814 0.98555,-0.61598 0.3778,-0.16426 0.8213,-0.24639 1.33051,-0.24639 h 0.64061 v 3.40017 h -0.91164 c -1.06769,0 -1.86435,0.13962 -2.38998,0.41886 -0.5092,0.27924 -0.7638,0.79666 -0.7638,1.55225 v 7.56415 z m 14.5862,0 c -1.26479,0 -2.22571,-0.3203 -2.88275,-0.96092 -0.64061,-0.64061 -0.96092,-1.57689 -0.96092,-2.80883 v -6.3322 h -1.82328 v -2.83348 h 0.91164 c 0.49278,0 0.82951,-0.11498 1.0102,-0.34494 0.18069,-0.24638 0.27103,-0.59133 0.27103,-1.03483 v -2.11895 h 3.27697 v 3.49872 h 2.56245 v 2.83348 h -2.56245 v 7.26847 h 2.36533 v 2.83348 z m 3.27697,3.72047 7.34239,-21.95326 h 3.00595 l -7.3424,21.95326 z m -148.06986,19.01932 h -3.74511 v -17.19796 h 8.15547 c 0.78845,0 1.50298,0.13141 2.14359,0.39423 0.64061,0.26281 1.18267,0.64061 1.62617,1.13339 0.45993,0.47635 0.81308,1.05125 1.05947,1.72472 0.24639,0.67346 0.36958,1.42084 0.36958,2.24214 0,1.16624 -0.26281,2.18465 -0.78844,3.05522 -0.50921,0.87057 -1.28944,1.50297 -2.3407,1.8972 l 3.37553,6.75106 h -4.16397 l -3.00595,-6.30756 h -2.68564 z m 3.94223,-9.46134 c 0.55848,0 0.99377,-0.13962 1.30586,-0.41886 0.32851,-0.29567 0.49277,-0.72274 0.49277,-1.28123 v -1.08411 c 0,-0.55848 -0.16426,-0.97734 -0.49277,-1.25658 -0.31209,-0.29567 -0.74738,-0.4435 -1.30586,-0.4435 h -3.94223 v 4.48428 z m 13.60068,9.757 c -0.95271,0 -1.80686,-0.15605 -2.56245,-0.46814 -0.73917,-0.31209 -1.37156,-0.7638 -1.89719,-1.35513 -0.50921,-0.59134 -0.90343,-1.30587 -1.18267,-2.14359 -0.27924,-0.83772 -0.41886,-1.774 -0.41886,-2.80883 0,-1.03483 0.13962,-1.97111 0.41886,-2.80884 0.27924,-0.83772 0.67346,-1.54403 1.18267,-2.11894 0.52563,-0.59133 1.15802,-1.04305 1.89719,-1.35514 0.75559,-0.31209 1.60974,-0.46814 2.56245,-0.46814 0.9527,0 1.79863,0.15605 2.5378,0.46814 0.75559,0.31209 1.38799,0.76381 1.8972,1.35514 0.52563,0.57491 0.92807,1.28122 1.20731,2.11894 0.27924,0.83773 0.41886,1.77401 0.41886,2.80884 0,1.03483 -0.13962,1.97111 -0.41886,2.80883 -0.27924,0.83772 -0.68168,1.55225 -1.20731,2.14359 -0.50921,0.59133 -1.14161,1.04304 -1.8972,1.35513 -0.73917,0.31209 -1.5851,0.46814 -2.5378,0.46814 z m 0,-2.88275 c 0.72274,0 1.28122,-0.22175 1.67544,-0.66525 0.39423,-0.4435 0.59134,-1.0759 0.59134,-1.89719 v -2.63637 c 0,-0.82129 -0.19711,-1.45369 -0.59134,-1.89719 -0.39422,-0.4435 -0.9527,-0.66525 -1.67544,-0.66525 -0.72274,0 -1.28122,0.22175 -1.67545,0.66525 -0.39422,0.4435 -0.59133,1.0759 -0.59133,1.89719 v 2.63637 c 0,0.82129 0.19711,1.45369 0.59133,1.89719 0.39423,0.4435 0.95271,0.66525 1.67545,0.66525 z m 13.87168,2.88275 c -0.96913,0 -1.8315,-0.15605 -2.58709,-0.46814 -0.75559,-0.32851 -1.38799,-0.78022 -1.89719,-1.35513 -0.50921,-0.59134 -0.89522,-1.30587 -1.15803,-2.14359 -0.26281,-0.83772 -0.39422,-1.774 -0.39422,-2.80883 0,-1.03483 0.13141,-1.9629 0.39422,-2.7842 0.26281,-0.83772 0.64882,-1.55225 1.15803,-2.14358 0.5092,-0.59133 1.1416,-1.04305 1.89719,-1.35514 0.75559,-0.31209 1.61796,-0.46814 2.58709,-0.46814 1.31407,0 2.4064,0.29567 3.27697,0.887 0.887,0.59133 1.5194,1.42084 1.89719,2.48853 l -2.95666,1.28122 c -0.11499,-0.49278 -0.35316,-0.91164 -0.71453,-1.25658 -0.36137,-0.34495 -0.86236,-0.51742 -1.50297,-0.51742 -0.73917,0 -1.29765,0.24639 -1.67545,0.73917 -0.37779,0.47635 -0.56669,1.12517 -0.56669,1.94647 v 2.41461 c 0,0.8213 0.1889,1.47012 0.56669,1.94647 0.3778,0.47635 0.93628,0.71453 1.67545,0.71453 0.65703,0 1.17445,-0.17247 1.55225,-0.51741 0.39422,-0.36137 0.68167,-0.82951 0.86236,-1.40442 l 2.83347,1.23194 c -0.42707,1.23195 -1.09232,2.13537 -1.99575,2.71028 -0.887,0.57491 -1.97111,0.86236 -3.25233,0.86236 z m 7.51488,-18.52845 h 3.64655 v 10.7672 h 0.14784 l 1.60153,-2.38997 2.58708,-3.07987 h 4.04078 l -4.31181,4.95242 4.80459,7.98301 h -4.33645 l -2.90739,-5.46984 -1.62617,1.82328 v 3.64656 h -3.64655 z m 14.21662,5.29736 h 3.64656 v 2.16823 h 0.1232 c 0.18068,-0.72274 0.59133,-1.31407 1.23194,-1.774 0.65704,-0.45993 1.40442,-0.68989 2.24214,-0.68989 1.64259,0 2.88275,0.57491 3.72048,1.72472 0.83772,1.14981 1.25658,2.82526 1.25658,5.02634 0,2.20107 -0.41886,3.88473 -1.25658,5.05097 -0.83773,1.14981 -2.07789,1.72472 -3.72048,1.72472 -0.42707,0 -0.82951,-0.0657 -1.2073,-0.19711 -0.3778,-0.11498 -0.72275,-0.27924 -1.03484,-0.49278 -0.29567,-0.22996 -0.55027,-0.49277 -0.7638,-0.78844 -0.21354,-0.31209 -0.36959,-0.64061 -0.46814,-0.98556 h -0.1232 v 7.09601 h -3.64656 z m 6.03654,10.27443 c 0.68989,0 1.25658,-0.23818 1.70008,-0.71453 0.45993,-0.49278 0.68989,-1.14982 0.68989,-1.97111 v -2.24214 c 0,-0.8213 -0.22996,-1.47013 -0.68989,-1.94648 -0.4435,-0.49277 -1.01019,-0.73916 -1.70008,-0.73916 -0.68989,0 -1.2648,0.17247 -1.72473,0.51741 -0.4435,0.32852 -0.66525,0.78845 -0.66525,1.37978 v 3.81903 c 0,0.59133 0.22175,1.05947 0.66525,1.40442 0.45993,0.32852 1.03484,0.49278 1.72473,0.49278 z m 14.19199,2.95666 c -0.95271,0 -1.80686,-0.15605 -2.56245,-0.46814 -0.73917,-0.31209 -1.37156,-0.7638 -1.89719,-1.35513 -0.50921,-0.59134 -0.90343,-1.30587 -1.18267,-2.14359 -0.27924,-0.83772 -0.41886,-1.774 -0.41886,-2.80883 0,-1.03483 0.13962,-1.97111 0.41886,-2.80884 0.27924,-0.83772 0.67346,-1.54403 1.18267,-2.11894 0.52563,-0.59133 1.15802,-1.04305 1.89719,-1.35514 0.75559,-0.31209 1.60974,-0.46814 2.56245,-0.46814 0.95271,0 1.79864,0.15605 2.53781,0.46814 0.75559,0.31209 1.38799,0.76381 1.89719,1.35514 0.52563,0.57491 0.92807,1.28122 1.20731,2.11894 0.27924,0.83773 0.41886,1.77401 0.41886,2.80884 0,1.03483 -0.13962,1.97111 -0.41886,2.80883 -0.27924,0.83772 -0.68168,1.55225 -1.20731,2.14359 -0.5092,0.59133 -1.1416,1.04304 -1.89719,1.35513 -0.73917,0.31209 -1.5851,0.46814 -2.53781,0.46814 z m 0,-2.88275 c 0.72274,0 1.28122,-0.22175 1.67544,-0.66525 0.39423,-0.4435 0.59134,-1.0759 0.59134,-1.89719 v -2.63637 c 0,-0.82129 -0.19711,-1.45369 -0.59134,-1.89719 -0.39422,-0.4435 -0.9527,-0.66525 -1.67544,-0.66525 -0.72274,0 -1.28122,0.22175 -1.67545,0.66525 -0.39422,0.4435 -0.59133,1.0759 -0.59133,1.89719 v 2.63637 c 0,0.82129 0.19711,1.45369 0.59133,1.89719 0.39423,0.4435 0.95271,0.66525 1.67545,0.66525 z m 8.64824,2.58709 v -12.93543 h 3.64656 v 2.80884 h 0.1232 c 0.0657,-0.36137 0.18065,-0.70632 0.34494,-1.03484 0.16426,-0.34494 0.3778,-0.64882 0.64061,-0.91163 0.27924,-0.26282 0.60776,-0.46815 0.98556,-0.61598 0.37779,-0.16426 0.82129,-0.24639 1.3305,-0.24639 h 0.64061 v 3.40017 h -0.91164 c -1.06769,0 -1.86434,0.13962 -2.38997,0.41886 -0.50921,0.27924 -0.76381,0.79666 -0.76381,1.55225 v 7.56415 z m 14.58621,0 c -1.2648,0 -2.22572,-0.32031 -2.88276,-0.96092 -0.64061,-0.64061 -0.96091,-1.57689 -0.96091,-2.80883 v -6.3322 h -1.82328 v -2.83348 h 0.91164 c 0.49277,0 0.8295,-0.11498 1.01019,-0.34494 0.18069,-0.24639 0.27103,-0.59133 0.27103,-1.03483 v -2.11895 h 3.27697 v 3.49872 h 2.56245 v 2.83348 h -2.56245 v 7.26847 h 2.36534 v 2.83348 z"
       id="text17"
       aria-label="CR-Newburyport/Rockport" /></g></svg>
