<?xml version="1.0" encoding="UTF-8" standalone="no"?>
<!-- Created with Inkscape (http://www.inkscape.org/) -->

<svg
   width="497.14288"
   height="80"
   viewBox="0 0 131.53572 21.166666"
   version="1.1"
   id="svg1"
   xml:space="preserve"
   xmlns="http://www.w3.org/2000/svg"
   xmlns:svg="http://www.w3.org/2000/svg"><defs
     id="defs1" /><g
     id="layer1"
     transform="translate(-56.969696,-194.18353)"><rect
       style="fill:#7b388c;fill-opacity:1;stroke-width:0.298348"
       id="rect21"
       width="131.53572"
       height="21.16666"
       x="56.969696"
       y="194.18353"
       ry="1.3415852" /><path
       style="font-weight:bold;font-size:24.6389px;line-height:22.1749px;font-family:'IBM Plex Sans';-inkscape-font-specification:'IBM Plex Sans Bold';text-align:center;text-anchor:middle;fill:#ffffff;stroke-width:0.484307"
       d="m 59.267731,213.8463 v -17.19795 h 8.13083 c 0.80487,0 1.52762,0.13962 2.16823,0.41886 0.64061,0.26281 1.18266,0.6324 1.62616,1.10875 0.45993,0.47635 0.81309,1.05947 1.05948,1.74936 0.24639,0.67347 0.36958,1.41263 0.36958,2.2175 0,0.8213 -0.12319,1.56868 -0.36958,2.24214 -0.24639,0.67347 -0.59955,1.24838 -1.05948,1.72473 -0.4435,0.47635 -0.98555,0.85414 -1.62616,1.13339 -0.64061,0.26281 -1.36336,0.39422 -2.16823,0.39422 h -4.38572 v 6.209 z m 3.74511,-9.46134 h 3.94222 c 0.55849,0 0.99377,-0.13962 1.30586,-0.41886 0.32852,-0.29567 0.49278,-0.72274 0.49278,-1.28122 v -1.08411 c 0,-0.55849 -0.16426,-0.97735 -0.49278,-1.25659 -0.31209,-0.29567 -0.74737,-0.4435 -1.30586,-0.4435 h -3.94222 z m 11.9745,9.46134 v -12.93542 h 3.64656 v 2.80883 h 0.1232 c 0.0657,-0.36137 0.18071,-0.70631 0.34494,-1.03483 0.16426,-0.34495 0.3778,-0.64883 0.64061,-0.91164 0.27924,-0.26281 0.60776,-0.46814 0.98556,-0.61597 0.37779,-0.16426 0.82129,-0.24639 1.3305,-0.24639 h 0.64061 v 3.40017 h -0.91164 c -1.06769,0 -1.86434,0.13962 -2.38997,0.41886 -0.50921,0.27924 -0.76381,0.79666 -0.76381,1.55225 v 7.56414 z m 15.07901,0.29567 c -0.95271,0 -1.80685,-0.15605 -2.56244,-0.46814 -0.73917,-0.31209 -1.37157,-0.76381 -1.8972,-1.35514 -0.50921,-0.59133 -0.90343,-1.30586 -1.18267,-2.14359 -0.27924,-0.83772 -0.41886,-1.774 -0.41886,-2.80883 0,-1.03483 0.13962,-1.97111 0.41886,-2.80883 0.27924,-0.83773 0.67346,-1.54404 1.18267,-2.11895 0.52563,-0.59133 1.15803,-1.04305 1.8972,-1.35514 0.75559,-0.31209 1.60973,-0.46814 2.56244,-0.46814 0.95271,0 1.79864,0.15605 2.53781,0.46814 0.75559,0.31209 1.38799,0.76381 1.89719,1.35514 0.52563,0.57491 0.92807,1.28122 1.20731,2.11895 0.27924,0.83772 0.41886,1.774 0.41886,2.80883 0,1.03483 -0.13962,1.97111 -0.41886,2.80883 -0.27924,0.83773 -0.68168,1.55226 -1.20731,2.14359 -0.5092,0.59133 -1.1416,1.04305 -1.89719,1.35514 -0.73917,0.31209 -1.5851,0.46814 -2.53781,0.46814 z m 0,-2.88275 c 0.72274,0 1.28122,-0.22175 1.67545,-0.66525 0.39422,-0.4435 0.59133,-1.0759 0.59133,-1.8972 v -2.63636 c 0,-0.8213 -0.19711,-1.4537 -0.59133,-1.8972 -0.39423,-0.4435 -0.95271,-0.66525 -1.67545,-0.66525 -0.72274,0 -1.28122,0.22175 -1.67544,0.66525 -0.39423,0.4435 -0.59134,1.0759 -0.59134,1.8972 v 2.63636 c 0,0.8213 0.19711,1.4537 0.59134,1.8972 0.39422,0.4435 0.9527,0.66525 1.67544,0.66525 z m 11.210699,2.58708 -4.237889,-12.93542 h 3.597279 l 1.60153,5.22344 1.2073,4.6814 h 0.19711 l 1.20731,-4.6814 1.55225,-5.22344 h 3.44945 l -4.2379,12.93542 z m 12.31945,-14.3152 c -0.73917,0 -1.28122,-0.16426 -1.62617,-0.49278 -0.32852,-0.34495 -0.49278,-0.78023 -0.49278,-1.30586 v -0.54206 c 0,-0.52563 0.16426,-0.9527 0.49278,-1.28122 0.34495,-0.34495 0.887,-0.51742 1.62617,-0.51742 0.73917,0 1.27301,0.17247 1.60153,0.51742 0.34495,0.32852 0.51742,0.75559 0.51742,1.28122 v 0.54206 c 0,0.52563 -0.17247,0.96091 -0.51742,1.30586 -0.32852,0.32852 -0.86236,0.49278 -1.60153,0.49278 z m -1.82328,1.37978 h 3.64656 v 12.93542 h -3.64656 z m 14.98044,10.7672 h -0.1232 c -0.0985,0.34494 -0.2546,0.67346 -0.46813,0.98555 -0.21354,0.29567 -0.47636,0.55848 -0.78845,0.78845 -0.29567,0.21353 -0.64061,0.37779 -1.03483,0.49278 -0.3778,0.13141 -0.77202,0.19711 -1.18267,0.19711 -1.64259,0 -2.88275,-0.57491 -3.72047,-1.72473 -0.83773,-1.16624 -1.25659,-2.8499 -1.25659,-5.05097 0,-2.20107 0.41886,-3.87652 1.25659,-5.02634 0.83772,-1.14981 2.07788,-1.72472 3.72047,-1.72472 0.83772,0 1.57689,0.22996 2.2175,0.68989 0.65704,0.45993 1.0759,1.05126 1.25658,1.774 h 0.1232 v -7.46559 h 3.64656 v 18.23279 h -3.64656 z m -2.38997,-0.49278 c 0.68989,0 1.25658,-0.16426 1.70008,-0.49278 0.45993,-0.34495 0.68989,-0.81309 0.68989,-1.40442 v -3.81903 c 0,-0.59133 -0.22996,-1.05126 -0.68989,-1.37977 -0.4435,-0.34495 -1.01019,-0.51742 -1.70008,-0.51742 -0.68989,0 -1.2648,0.24639 -1.72473,0.73917 -0.4435,0.47635 -0.66525,1.12517 -0.66525,1.94647 v 2.24214 c 0,0.82129 0.22175,1.47833 0.66525,1.97111 0.45993,0.47635 1.03484,0.71453 1.72473,0.71453 z m 14.83262,2.95667 c -0.98556,0 -1.86435,-0.15605 -2.63637,-0.46814 -0.77202,-0.32852 -1.42906,-0.78023 -1.97111,-1.35514 -0.52563,-0.59133 -0.92806,-1.30586 -1.20731,-2.14359 -0.26281,-0.83772 -0.39422,-1.774 -0.39422,-2.80883 0,-1.01841 0.13141,-1.93826 0.39422,-2.75956 0.26282,-0.83772 0.64883,-1.55225 1.15803,-2.14358 0.52563,-0.59133 1.16625,-1.04305 1.92184,-1.35514 0.75559,-0.32852 1.61795,-0.49278 2.58708,-0.49278 1.06769,0 1.97933,0.18069 2.73492,0.54206 0.77202,0.36137 1.39621,0.84593 1.87256,1.45369 0.49277,0.60776 0.84593,1.31408 1.05947,2.11895 0.22996,0.78844 0.34494,1.61795 0.34494,2.48853 v 1.08411 h -8.30331 v 0.19711 c 0,0.85415 0.22996,1.53582 0.68989,2.04503 0.45993,0.49278 1.18267,0.73917 2.16823,0.73917 0.75559,0 1.37156,-0.14784 1.84791,-0.44351 0.47635,-0.31209 0.91986,-0.68167 1.33051,-1.10875 l 1.82327,2.26678 c -0.57491,0.67347 -1.3305,1.1991 -2.26678,1.57689 -0.91985,0.3778 -1.9711,0.5667 -3.15377,0.5667 z m -0.0739,-10.84112 c -0.73917,0 -1.32229,0.24639 -1.74936,0.73917 -0.41065,0.47635 -0.61598,1.11696 -0.61598,1.92183 v 0.19711 h 4.53356 v -0.22175 c 0,-0.78844 -0.18068,-1.42084 -0.54205,-1.89719 -0.34495,-0.49278 -0.887,-0.73917 -1.62617,-0.73917 z m 8.52506,10.54545 v -12.93542 h 3.64655 v 2.19286 h 0.14784 c 0.22996,-0.67346 0.63239,-1.25658 1.2073,-1.74936 0.57491,-0.49278 1.37157,-0.73917 2.38998,-0.73917 1.3305,0 2.33248,0.4435 3.00594,1.3305 0.68989,0.887 1.03484,2.1518 1.03484,3.79439 v 8.1062 h -3.64656 v -7.81053 c 0,-0.83772 -0.13141,-1.45369 -0.39422,-1.84792 -0.26281,-0.41065 -0.73095,-0.61597 -1.40442,-0.61597 -0.29567,0 -0.58312,0.0411 -0.86236,0.12319 -0.27924,0.0657 -0.53384,0.18072 -0.76381,0.34495 -0.21353,0.16426 -0.386,0.36958 -0.51741,0.61597 -0.13141,0.22997 -0.19712,0.50099 -0.19712,0.81308 v 8.37723 z m 19.90824,0.29567 c -0.96913,0 -1.83149,-0.15605 -2.58708,-0.46814 -0.75559,-0.32852 -1.38799,-0.78023 -1.8972,-1.35514 -0.5092,-0.59133 -0.89521,-1.30586 -1.15802,-2.14359 -0.26282,-0.83772 -0.39423,-1.774 -0.39423,-2.80883 0,-1.03483 0.13141,-1.9629 0.39423,-2.7842 0.26281,-0.83772 0.64882,-1.55225 1.15802,-2.14358 0.50921,-0.59133 1.14161,-1.04305 1.8972,-1.35514 0.75559,-0.31209 1.61795,-0.46814 2.58708,-0.46814 1.31408,0 2.40641,0.29567 3.27698,0.887 0.887,0.59133 1.5194,1.42084 1.89719,2.48853 l -2.95667,1.28122 c -0.11498,-0.49277 -0.35315,-0.91163 -0.71452,-1.25658 -0.36137,-0.34495 -0.86237,-0.51742 -1.50298,-0.51742 -0.73917,0 -1.29765,0.24639 -1.67544,0.73917 -0.3778,0.47635 -0.5667,1.12518 -0.5667,1.94647 v 2.41461 c 0,0.8213 0.1889,1.47013 0.5667,1.94648 0.37779,0.47635 0.93627,0.71453 1.67544,0.71453 0.65704,0 1.17446,-0.17247 1.55225,-0.51742 0.39423,-0.36137 0.68168,-0.82951 0.86237,-1.40442 l 2.83347,1.23195 c -0.42707,1.23194 -1.09232,2.13537 -1.99575,2.71028 -0.887,0.57491 -1.97111,0.86236 -3.25234,0.86236 z m 12.78762,0 c -0.98556,0 -1.86435,-0.15605 -2.63636,-0.46814 -0.77202,-0.32852 -1.42906,-0.78023 -1.97112,-1.35514 -0.52563,-0.59133 -0.92806,-1.30586 -1.2073,-2.14359 -0.26281,-0.83772 -0.39422,-1.774 -0.39422,-2.80883 0,-1.01841 0.13141,-1.93826 0.39422,-2.75956 0.26281,-0.83772 0.64882,-1.55225 1.15803,-2.14358 0.52563,-0.59133 1.16624,-1.04305 1.92183,-1.35514 0.75559,-0.32852 1.61796,-0.49278 2.58709,-0.49278 1.06768,0 1.97932,0.18069 2.73491,0.54206 0.77202,0.36137 1.39621,0.84593 1.87256,1.45369 0.49278,0.60776 0.84594,1.31408 1.05947,2.11895 0.22997,0.78844 0.34495,1.61795 0.34495,2.48853 v 1.08411 h -8.30331 v 0.19711 c 0,0.85415 0.22996,1.53582 0.68989,2.04503 0.45993,0.49278 1.18267,0.73917 2.16822,0.73917 0.75559,0 1.37157,-0.14784 1.84792,-0.44351 0.47635,-0.31209 0.91985,-0.68167 1.3305,-1.10875 l 1.82328,2.26678 c -0.57491,0.67347 -1.3305,1.1991 -2.26678,1.57689 -0.91985,0.3778 -1.97111,0.5667 -3.15378,0.5667 z m -0.0739,-10.84112 c -0.73917,0 -1.32229,0.24639 -1.74936,0.73917 -0.41065,0.47635 -0.61597,1.11696 -0.61597,1.92183 v 0.19711 h 4.53356 v -0.22175 c 0,-0.78844 -0.18069,-1.42084 -0.54206,-1.89719 -0.34495,-0.49278 -0.887,-0.73917 -1.62617,-0.73917 z"
       id="text21"
       aria-label="CR-Providence" /></g></svg>
