<?xml version="1.0" encoding="UTF-8" standalone="no"?>
<!-- Created with Inkscape (http://www.inkscape.org/) -->

<svg
   width="650.02539"
   height="80"
   viewBox="0 0 171.98588 21.166666"
   version="1.1"
   id="svg1"
   xml:space="preserve"
   xmlns="http://www.w3.org/2000/svg"
   xmlns:svg="http://www.w3.org/2000/svg"><defs
     id="defs1" /><g
     id="layer1"
     transform="translate(-165.92481,-234.98642)"><rect
       style="fill:#7b388c;fill-opacity:1;stroke-width:0.341152"
       id="rect21"
       width="171.98589"
       height="21.16666"
       x="165.92482"
       y="234.98643"
       ry="1.3415852" /><path
       style="font-weight:bold;font-size:24.6389px;line-height:22.1749px;font-family:'IBM Plex Sans';-inkscape-font-specification:'IBM Plex Sans Bold';text-align:center;text-anchor:middle;fill:#ffffff;stroke-width:0.484307"
       d="m 174.62552,254.94483 q -1.74936,0 -3.15378,-0.54206 -1.40442,-0.56669 -2.38997,-1.6508 -0.98556,-1.10876 -1.52762,-2.73492 -0.54205,-1.65081 -0.54205,-3.84367 0,-2.16822 0.54205,-3.84367 0.54206,-1.70008 1.52762,-2.83347 0.98555,-1.15803 2.38997,-1.74937 1.40442,-0.59133 3.15378,-0.59133 2.38997,0 3.94222,0.98556 1.55225,0.96091 2.48853,3.05522 l -3.22769,1.67545 q -0.34495,-1.08412 -1.08412,-1.72473 -0.71452,-0.66525 -2.11894,-0.66525 -1.65081,0 -2.661,1.08411 -0.98556,1.05948 -0.98556,3.10451 v 2.75955 q 0,2.04503 0.98556,3.12914 1.01019,1.05948 2.661,1.05948 1.37978,0 2.19286,-0.73917 0.83772,-0.76381 1.23195,-1.82328 l 3.05522,1.774 q -0.96092,1.97111 -2.53781,3.05522 -1.55225,1.05948 -3.94222,1.05948 z m 12.83689,-0.29567 h -3.74511 v -17.19795 h 8.15547 q 1.18267,0 2.14359,0.39422 0.96091,0.39422 1.62616,1.13339 0.68989,0.71453 1.05948,1.72472 0.36958,1.0102 0.36958,2.24214 0,1.74936 -0.78844,3.05523 -0.76381,1.30586 -2.3407,1.89719 l 3.37553,6.75106 H 193.154 l -3.00595,-6.30756 h -2.68564 z m 3.94222,-9.46134 q 0.83773,0 1.30587,-0.41886 0.49277,-0.4435 0.49277,-1.28122 v -1.08411 q 0,-0.83773 -0.49277,-1.25659 -0.46814,-0.4435 -1.30587,-0.4435 h -3.94222 v 4.48428 z m 7.95838,3.72048 v -3.548 h 7.31775 v 3.548 z m 10.52081,5.74086 v -17.19795 h 8.13083 q 1.20731,0 2.16823,0.41886 0.96091,0.39422 1.62616,1.10875 0.68989,0.71453 1.05948,1.74936 0.36958,1.0102 0.36958,2.2175 0,1.23195 -0.36958,2.24214 -0.36959,1.0102 -1.05948,1.72473 -0.66525,0.71452 -1.62616,1.13339 -0.96092,0.39422 -2.16823,0.39422 h -4.38572 v 6.209 z m 3.74511,-9.46134 h 3.94222 q 0.83773,0 1.30586,-0.41886 0.49278,-0.4435 0.49278,-1.28122 v -1.08411 q 0,-0.83773 -0.49278,-1.25659 -0.46813,-0.4435 -1.30586,-0.4435 h -3.94222 z m 11.9745,9.46134 v -12.93542 h 3.64656 v 2.80883 h 0.1232 q 0.0986,-0.54205 0.34494,-1.03483 0.24639,-0.51742 0.64061,-0.91164 0.41886,-0.39422 0.98556,-0.61597 0.56669,-0.24639 1.3305,-0.24639 h 0.64061 v 3.40017 h -0.91164 q -1.60153,0 -2.38997,0.41886 -0.76381,0.41886 -0.76381,1.55225 v 7.56414 z m 15.07901,0.29567 q -1.42906,0 -2.56244,-0.46814 -1.10876,-0.46814 -1.8972,-1.35514 -0.76381,-0.887 -1.18267,-2.14359 -0.41886,-1.25658 -0.41886,-2.80883 0,-1.55225 0.41886,-2.80883 0.41886,-1.25659 1.18267,-2.11895 0.78844,-0.887 1.8972,-1.35514 1.13338,-0.46814 2.56244,-0.46814 1.42906,0 2.53781,0.46814 1.13339,0.46814 1.89719,1.35514 0.78845,0.86236 1.20731,2.11895 0.41886,1.25658 0.41886,2.80883 0,1.55225 -0.41886,2.80883 -0.41886,1.25659 -1.20731,2.14359 -0.7638,0.887 -1.89719,1.35514 -1.10875,0.46814 -2.53781,0.46814 z m 0,-2.88275 q 1.08411,0 1.67545,-0.66525 0.59133,-0.66525 0.59133,-1.8972 v -2.63636 q 0,-1.23195 -0.59133,-1.8972 -0.59134,-0.66525 -1.67545,-0.66525 -1.08411,0 -1.67544,0.66525 -0.59134,0.66525 -0.59134,1.8972 v 2.63636 q 0,1.23195 0.59134,1.8972 0.59133,0.66525 1.67544,0.66525 z m 11.2107,2.58708 -4.23789,-12.93542 h 3.59728 l 1.60153,5.22344 1.2073,4.6814 h 0.19711 l 1.20731,-4.6814 1.55225,-5.22344 h 3.44945 l -4.2379,12.93542 z m 12.31945,-14.3152 q -1.10875,0 -1.62617,-0.49278 -0.49278,-0.51742 -0.49278,-1.30586 v -0.54206 q 0,-0.78844 0.49278,-1.28122 0.51742,-0.51742 1.62617,-0.51742 1.10875,0 1.60153,0.51742 0.51742,0.49278 0.51742,1.28122 v 0.54206 q 0,0.78844 -0.51742,1.30586 -0.49278,0.49278 -1.60153,0.49278 z m -1.82328,1.37978 h 3.64656 v 12.93542 h -3.64656 z m 14.98044,10.7672 h -0.1232 q -0.14783,0.51741 -0.46813,0.98555 -0.32031,0.4435 -0.78845,0.78845 -0.4435,0.3203 -1.03483,0.49278 -0.5667,0.19711 -1.18267,0.19711 -2.46389,0 -3.72047,-1.72473 -1.25659,-1.74936 -1.25659,-5.05097 0,-3.30161 1.25659,-5.02634 1.25658,-1.72472 3.72047,-1.72472 1.25658,0 2.2175,0.68989 0.98556,0.68989 1.25658,1.774 h 0.1232 v -7.46559 h 3.64656 v 18.23279 h -3.64656 z m -2.38997,-0.49278 q 1.03483,0 1.70008,-0.49278 0.68989,-0.51742 0.68989,-1.40442 v -3.81903 q 0,-0.887 -0.68989,-1.37977 -0.66525,-0.51742 -1.70008,-0.51742 -1.03484,0 -1.72473,0.73917 -0.66525,0.71452 -0.66525,1.94647 v 2.24214 q 0,1.23194 0.66525,1.97111 0.68989,0.71453 1.72473,0.71453 z m 14.83262,2.95667 q -1.47834,0 -2.63637,-0.46814 -1.15803,-0.49278 -1.97111,-1.35514 -0.78844,-0.887 -1.20731,-2.14359 -0.39422,-1.25658 -0.39422,-2.80883 0,-1.52761 0.39422,-2.75956 0.39423,-1.25658 1.15803,-2.14358 0.78845,-0.887 1.92184,-1.35514 1.13339,-0.49278 2.58708,-0.49278 1.60153,0 2.73492,0.54206 1.15803,0.54205 1.87256,1.45369 0.73916,0.91164 1.05947,2.11895 0.34494,1.18266 0.34494,2.48853 v 1.08411 h -8.30331 v 0.19711 q 0,1.28122 0.68989,2.04503 0.68989,0.73917 2.16823,0.73917 1.13339,0 1.84791,-0.44351 0.71453,-0.46813 1.33051,-1.10875 l 1.82327,2.26678 q -0.86236,1.0102 -2.26678,1.57689 -1.37977,0.5667 -3.15377,0.5667 z m -0.0739,-10.84112 q -1.10875,0 -1.74936,0.73917 -0.61598,0.71453 -0.61598,1.92183 v 0.19711 h 4.53356 v -0.22175 q 0,-1.18266 -0.54205,-1.89719 -0.51742,-0.73917 -1.62617,-0.73917 z m 8.52506,10.54545 v -12.93542 h 3.64655 v 2.19286 h 0.14784 q 0.34494,-1.01019 1.2073,-1.74936 0.86237,-0.73917 2.38998,-0.73917 1.99575,0 3.00594,1.3305 1.03484,1.3305 1.03484,3.79439 v 8.1062 h -3.64656 v -7.81053 q 0,-1.25658 -0.39422,-1.84792 -0.39422,-0.61597 -1.40442,-0.61597 -0.4435,0 -0.86236,0.12319 -0.41886,0.0986 -0.76381,0.34495 -0.3203,0.24639 -0.51741,0.61597 -0.19712,0.34495 -0.19712,0.81308 v 8.37723 z m 19.90824,0.29567 q -1.45369,0 -2.58708,-0.46814 -1.13339,-0.49278 -1.8972,-1.35514 -0.7638,-0.887 -1.15802,-2.14359 -0.39423,-1.25658 -0.39423,-2.80883 0,-1.55225 0.39423,-2.7842 0.39422,-1.25658 1.15802,-2.14358 0.76381,-0.887 1.8972,-1.35514 1.13339,-0.46814 2.58708,-0.46814 1.97112,0 3.27698,0.887 1.3305,0.887 1.89719,2.48853 l -2.95667,1.28122 q -0.17247,-0.73916 -0.71452,-1.25658 -0.54206,-0.51742 -1.50298,-0.51742 -1.10875,0 -1.67544,0.73917 -0.5667,0.71453 -0.5667,1.94647 v 2.41461 q 0,1.23195 0.5667,1.94648 0.56669,0.71453 1.67544,0.71453 0.98556,0 1.55225,-0.51742 0.59134,-0.54206 0.86237,-1.40442 l 2.83347,1.23195 q -0.64061,1.84791 -1.99575,2.71028 -1.3305,0.86236 -3.25234,0.86236 z m 12.78762,0 q -1.47834,0 -2.63636,-0.46814 -1.15803,-0.49278 -1.97112,-1.35514 -0.78844,-0.887 -1.2073,-2.14359 -0.39422,-1.25658 -0.39422,-2.80883 0,-1.52761 0.39422,-2.75956 0.39422,-1.25658 1.15803,-2.14358 0.78844,-0.887 1.92183,-1.35514 1.13339,-0.49278 2.58709,-0.49278 1.60152,0 2.73491,0.54206 1.15803,0.54205 1.87256,1.45369 0.73917,0.91164 1.05947,2.11895 0.34495,1.18266 0.34495,2.48853 v 1.08411 h -8.30331 v 0.19711 q 0,1.28122 0.68989,2.04503 0.68989,0.73917 2.16822,0.73917 1.13339,0 1.84792,-0.44351 0.71453,-0.46813 1.3305,-1.10875 l 1.82328,2.26678 q -0.86236,1.0102 -2.26678,1.57689 -1.37978,0.5667 -3.15378,0.5667 z m -0.0739,-10.84112 q -1.10875,0 -1.74936,0.73917 -0.61597,0.71453 -0.61597,1.92183 v 0.19711 h 4.53356 v -0.22175 q 0,-1.18266 -0.54206,-1.89719 -0.51742,-0.73917 -1.62617,-0.73917 z"
       id="text21"
       aria-label="CR-Providence" /></g></svg>
