<?xml version="1.0" encoding="UTF-8" standalone="no"?>
<!-- Created with Inkscape (http://www.inkscape.org/) -->

<svg
   width="609.73322"
   height="80.000061"
   viewBox="0 0 161.32524 21.166682"
   version="1.1"
   id="svg1"
   xml:space="preserve"
   xmlns="http://www.w3.org/2000/svg"
   xmlns:svg="http://www.w3.org/2000/svg"><defs
     id="defs1" /><g
     id="layer1"
     transform="translate(-2.7164199,-220.92709)"><rect
       style="fill:#7b388c;fill-opacity:1;stroke-width:0.33041"
       id="rect11"
       width="161.32524"
       height="21.166677"
       x="2.7164199"
       y="220.92709"
       ry="1.3415861" /><path
       style="font-weight:bold;font-size:24.6389px;line-height:22.1749px;font-family:'IBM Plex Sans';-inkscape-font-specification:'IBM Plex Sans Bold';text-align:center;text-anchor:middle;fill:#ffffff;stroke-width:0.484307"
       d="m 11.445747,240.40507 q -1.7493622,0 -3.1537795,-0.54205 -1.4044174,-0.5667 -2.3899734,-1.65081 -0.985556,-1.10875 -1.5276119,-2.73492 -0.5420558,-1.6508 -0.5420558,-3.84367 0,-2.16822 0.5420558,-3.84366 0.5420559,-1.70009 1.5276119,-2.83348 0.985556,-1.15803 2.3899734,-1.74936 1.4044173,-0.59133 3.1537795,-0.59133 2.389973,0 3.942224,0.98555 1.552251,0.96092 2.488529,3.05523 l -3.227696,1.67544 q -0.344945,-1.08411 -1.084112,-1.72472 -0.714528,-0.66525 -2.118945,-0.66525 -1.6508066,0 -2.6610015,1.08411 -0.9855561,1.05947 -0.9855561,3.1045 v 2.75956 q 0,2.04503 0.9855561,3.12914 1.0101949,1.05947 2.6610015,1.05947 1.379778,0 2.192862,-0.73917 0.837723,-0.7638 1.231945,-1.82327 l 3.055224,1.774 q -0.960917,1.97111 -2.537807,3.05522 -1.552251,1.05947 -3.942224,1.05947 z m 12.83689,-0.29566 H 20.537524 V 222.91145 H 28.693 q 1.182668,0 2.143585,0.39423 0.960917,0.39422 1.626167,1.13338 0.689889,0.71453 1.059473,1.72473 0.369583,1.01019 0.369583,2.24214 0,1.74936 -0.788444,3.05522 -0.763806,1.30586 -2.340696,1.8972 l 3.375529,6.75106 h -4.163974 l -3.005946,-6.30756 h -2.68564 z m 3.942224,-9.46134 q 0.837723,0 1.305862,-0.41886 0.492778,-0.4435 0.492778,-1.28123 v -1.08411 q 0,-0.83772 -0.492778,-1.25658 -0.468139,-0.4435 -1.305862,-0.4435 h -3.942224 v 4.48428 z m 7.958375,3.72047 v -3.548 h 7.317753 v 3.548 z m 12.984691,5.74087 -3.892946,-17.19796 h 3.695835 l 1.626168,8.25403 0.911639,4.77995 h 0.07392 l 1.084111,-4.77995 1.897196,-8.25403 h 4.090057 l 1.921834,8.25403 1.059473,4.77995 h 0.07392 l 0.911639,-4.77995 1.650807,-8.25403 h 3.548001 l -3.991502,17.19796 H 59.56555 l -2.168224,-9.31351 -0.837722,-3.76975 h -0.07392 l -0.862362,3.76975 -2.168223,9.31351 z m 25.698373,0.29566 q -1.429056,0 -2.562445,-0.46814 -1.108751,-0.46814 -1.897196,-1.35514 -0.763806,-0.887 -1.182667,-2.14358 -0.418861,-1.25658 -0.418861,-2.80884 0,-1.55225 0.418861,-2.80883 0.418861,-1.25658 1.182667,-2.11895 0.788445,-0.887 1.897196,-1.35514 1.133389,-0.46813 2.562445,-0.46813 1.429057,0 2.537807,0.46813 1.13339,0.46814 1.897196,1.35514 0.788444,0.86237 1.207306,2.11895 0.418861,1.25658 0.418861,2.80883 0,1.55226 -0.418861,2.80884 -0.418862,1.25658 -1.207306,2.14358 -0.763806,0.887 -1.897196,1.35514 -1.10875,0.46814 -2.537807,0.46814 z m 0,-2.88275 q 1.084112,0 1.675446,-0.66525 0.591333,-0.66525 0.591333,-1.89719 v -2.63637 q 0,-1.23194 -0.591333,-1.89719 -0.591334,-0.66525 -1.675446,-0.66525 -1.084111,0 -1.675445,0.66525 -0.591333,0.66525 -0.591333,1.89719 v 2.63637 q 0,1.23194 0.591333,1.89719 0.591334,0.66525 1.675445,0.66525 z m 8.648231,2.58709 v -12.93543 h 3.646557 v 2.80884 h 0.123195 q 0.09856,-0.54206 0.344945,-1.03484 0.246389,-0.51741 0.640611,-0.91164 0.418861,-0.39422 0.985556,-0.61597 0.566695,-0.24639 1.330501,-0.24639 h 0.640611 v 3.40017 h -0.911639 q -1.601529,0 -2.389974,0.41886 -0.763806,0.41886 -0.763806,1.55225 v 7.56415 z m 15.05438,0.29566 q -1.453695,0 -2.587085,-0.46814 -1.133389,-0.49277 -1.897195,-1.35514 -0.763806,-0.887 -1.158029,-2.14358 -0.394222,-1.25658 -0.394222,-2.80884 0,-1.55225 0.394222,-2.78419 0.394223,-1.25659 1.158029,-2.14359 0.763806,-0.887 1.897195,-1.35514 1.13339,-0.46813 2.587085,-0.46813 1.971109,0 3.276969,0.887 1.33051,0.887 1.8972,2.48853 l -2.95667,1.28122 q -0.17247,-0.73917 -0.71453,-1.25659 -0.542052,-0.51741 -1.502969,-0.51741 -1.108751,0 -1.675446,0.73916 -0.566694,0.71453 -0.566694,1.94648 v 2.41461 q 0,1.23194 0.566694,1.94647 0.566695,0.71453 1.675446,0.71453 0.985556,0 1.552249,-0.51742 0.59134,-0.54205 0.86236,-1.40441 l 2.83348,1.23194 q -0.64061,1.84792 -1.99575,2.71028 -1.33051,0.86236 -3.252339,0.86236 z m 12.787619,0 q -1.47834,0 -2.63637,-0.46814 -1.15802,-0.49277 -1.97111,-1.35514 -0.78844,-0.887 -1.2073,-2.14358 -0.39423,-1.25658 -0.39423,-2.80884 0,-1.52761 0.39423,-2.75955 0.39422,-1.25659 1.15802,-2.14359 0.78845,-0.887 1.92184,-1.35514 1.13339,-0.49277 2.58708,-0.49277 1.60153,0 2.73492,0.54205 1.15803,0.54206 1.87256,1.4537 0.73916,0.91164 1.05947,2.11894 0.34494,1.18267 0.34494,2.48853 v 1.08411 h -8.30331 v 0.19711 q 0,1.28123 0.68989,2.04503 0.68989,0.73917 2.16823,0.73917 1.13339,0 1.84791,-0.4435 0.71453,-0.46814 1.33051,-1.10875 l 1.82327,2.26678 q -0.86236,1.01019 -2.26677,1.57689 -1.37978,0.56669 -3.15378,0.56669 z m -0.0739,-10.84111 q -1.10875,0 -1.74936,0.73916 -0.61598,0.71453 -0.61598,1.92184 v 0.19711 h 4.53356 v -0.22175 q 0,-1.18267 -0.54205,-1.8972 -0.51742,-0.73916 -1.62617,-0.73916 z m 12.91079,10.84111 q -1.87256,0 -3.15378,-0.59133 -1.28122,-0.61597 -2.29142,-1.72472 l 2.14359,-2.16823 q 0.68989,0.76381 1.52761,1.20731 0.83772,0.4435 1.89719,0.4435 1.08412,0 1.50298,-0.32031 0.41886,-0.34494 0.41886,-0.91164 0,-0.91164 -1.30586,-1.08411 l -1.40442,-0.17247 q -4.36109,-0.54206 -4.36109,-3.9915 0,-0.93628 0.34495,-1.70009 0.36958,-0.78844 1.01019,-1.3305 0.66525,-0.56669 1.57689,-0.86236 0.93628,-0.3203 2.09431,-0.3203 1.01019,0 1.774,0.14783 0.78845,0.12319 1.37978,0.39422 0.61597,0.24639 1.10875,0.64061 0.51742,0.36959 1.01019,0.83773 l -2.0943,2.14358 q -0.61597,-0.61597 -1.40442,-0.96092 -0.76381,-0.36958 -1.57689,-0.36958 -0.93628,0 -1.3305,0.29567 -0.39422,0.29566 -0.39422,0.78844 0,0.51742 0.27103,0.81308 0.29566,0.27103 1.08411,0.39423 l 1.45369,0.19711 q 4.26253,0.56669 4.26253,3.89294 0,0.93628 -0.39422,1.72473 -0.39422,0.78844 -1.13339,1.37978 -0.71453,0.56669 -1.74936,0.887 -1.0102,0.3203 -2.26678,0.3203 z m 12.36873,-0.29566 q -1.89719,0 -2.88275,-0.96092 -0.96091,-0.96092 -0.96091,-2.80884 v -6.33219 h -1.82328 v -2.83348 h 0.91164 q 0.73916,0 1.01019,-0.34494 0.27103,-0.36959 0.27103,-1.03484 v -2.11894 h 3.27697 v 3.49872 h 2.56245 v 2.83348 h -2.56245 v 7.26847 h 2.36534 v 2.83348 z m 10.20049,0.29566 q -1.47833,0 -2.63636,-0.46814 -1.15803,-0.49277 -1.97111,-1.35514 -0.78845,-0.887 -1.20731,-2.14358 -0.39422,-1.25658 -0.39422,-2.80884 0,-1.52761 0.39422,-2.75955 0.39423,-1.25659 1.15803,-2.14359 0.78845,-0.887 1.92184,-1.35514 1.13338,-0.49277 2.58708,-0.49277 1.60153,0 2.73492,0.54205 1.15803,0.54206 1.87255,1.4537 0.73917,0.91164 1.05948,2.11894 0.34494,1.18267 0.34494,2.48853 v 1.08411 h -8.30331 v 0.19711 q 0,1.28123 0.68989,2.04503 0.68989,0.73917 2.16822,0.73917 1.13339,0 1.84792,-0.4435 0.71453,-0.46814 1.3305,-1.10875 l 1.82328,2.26678 q -0.86236,1.01019 -2.26678,1.57689 -1.37978,0.56669 -3.15378,0.56669 z m -0.0739,-10.84111 q -1.10875,0 -1.74937,0.73916 -0.61597,0.71453 -0.61597,1.92184 v 0.19711 h 4.53356 v -0.22175 q 0,-1.18267 -0.54206,-1.8972 -0.51741,-0.73916 -1.62616,-0.73916 z m 8.52507,10.54545 v -12.93543 h 3.64656 v 2.80884 h 0.12319 q 0.0986,-0.54206 0.34495,-1.03484 0.24639,-0.51741 0.64061,-0.91164 0.41886,-0.39422 0.98555,-0.61597 0.5667,-0.24639 1.3305,-0.24639 h 0.64062 v 3.40017 h -0.91164 q -1.60153,0 -2.38998,0.41886 -0.7638,0.41886 -0.7638,1.55225 v 7.56415 z"
       id="text11"
       aria-label="CR-Worcester" /></g></svg>
