<?xml version="1.0" encoding="UTF-8" standalone="no"?>
<!-- Created with Inkscape (http://www.inkscape.org/) -->

<svg
   width="460"
   height="80.000061"
   viewBox="0 0 121.70833 21.166682"
   version="1.1"
   id="svg1"
   xml:space="preserve"
   xmlns="http://www.w3.org/2000/svg"
   xmlns:svg="http://www.w3.org/2000/svg"><defs
     id="defs1" /><g
     id="layer1"
     transform="translate(-48.689294,-124.78819)"><rect
       style="fill:#7b388c;fill-opacity:1;stroke-width:0.286987"
       id="rect11"
       width="121.70833"
       height="21.166677"
       x="48.689293"
       y="124.7882"
       ry="1.3415861" /><path
       style="font-weight:bold;font-size:24.6389px;line-height:22.1749px;font-family:'IBM Plex Sans';-inkscape-font-specification:'IBM Plex Sans Bold';text-align:center;text-anchor:middle;fill:#ffffff;stroke-width:0.484307"
       d="m 54.611,143.82269 -3.892946,-17.19796 h 3.695835 l 1.626168,8.25403 0.911639,4.77995 h 0.07392 l 1.084111,-4.77995 1.897196,-8.25403 h 4.090057 l 1.921834,8.25403 1.059473,4.77995 h 0.07392 l 0.911639,-4.77995 1.650807,-8.25403 h 3.548001 l -3.991502,17.19796 h -4.262529 l -2.168224,-9.31351 -0.837722,-3.76975 h -0.07392 l -0.862362,3.76975 -2.168223,9.31351 z m 25.698373,0.29566 c -0.952704,0 -1.806852,-0.15605 -2.562445,-0.46814 -0.739167,-0.31209 -1.371566,-0.76381 -1.897196,-1.35514 -0.509204,-0.59133 -0.903426,-1.30586 -1.182667,-2.14358 -0.279241,-0.83772 -0.418861,-1.774 -0.418861,-2.80884 0,-1.03483 0.13962,-1.97111 0.418861,-2.80883 0.279241,-0.83772 0.673463,-1.54404 1.182667,-2.11895 0.52563,-0.59133 1.158029,-1.04305 1.897196,-1.35514 0.755593,-0.31209 1.609741,-0.46813 2.562445,-0.46813 0.952705,0 1.79864,0.15604 2.537807,0.46813 0.755593,0.31209 1.387992,0.76381 1.897196,1.35514 0.525629,0.57491 0.928065,1.28123 1.207306,2.11895 0.279241,0.83772 0.418861,1.774 0.418861,2.80883 0,1.03484 -0.13962,1.97112 -0.418861,2.80884 -0.279241,0.83772 -0.681677,1.55225 -1.207306,2.14358 -0.509204,0.59133 -1.141603,1.04305 -1.897196,1.35514 -0.739167,0.31209 -1.585102,0.46814 -2.537807,0.46814 z m 0,-2.88275 c 0.722741,0 1.281223,-0.22175 1.675446,-0.66525 0.394222,-0.4435 0.591333,-1.0759 0.591333,-1.89719 v -2.63637 c 0,-0.82129 -0.197111,-1.45369 -0.591333,-1.89719 -0.394223,-0.4435 -0.952705,-0.66525 -1.675446,-0.66525 -0.722741,0 -1.281222,0.22175 -1.675445,0.66525 -0.394222,0.4435 -0.591333,1.0759 -0.591333,1.89719 v 2.63637 c 0,0.82129 0.197111,1.45369 0.591333,1.89719 0.394223,0.4435 0.952704,0.66525 1.675445,0.66525 z m 8.648231,2.58709 v -12.93543 h 3.646557 v 2.80884 h 0.123195 c 0.06571,-0.36137 0.180688,-0.70632 0.344945,-1.03484 0.164259,-0.34494 0.377796,-0.64882 0.640611,-0.91164 0.279241,-0.26281 0.607759,-0.46814 0.985556,-0.61597 0.377797,-0.16426 0.821297,-0.24639 1.330501,-0.24639 h 0.640611 v 3.40017 h -0.911639 c -1.067686,0 -1.864344,0.13962 -2.389974,0.41886 -0.509204,0.27924 -0.763806,0.79666 -0.763806,1.55225 v 7.56415 z m 15.054376,0.29566 c -0.96913,0 -1.83149,-0.15605 -2.58708,-0.46814 -0.75559,-0.32851 -1.38799,-0.78023 -1.897196,-1.35514 -0.509204,-0.59133 -0.895214,-1.30586 -1.158029,-2.14358 -0.262815,-0.83772 -0.394222,-1.774 -0.394222,-2.80884 0,-1.03483 0.131407,-1.9629 0.394222,-2.78419 0.262815,-0.83773 0.648825,-1.55226 1.158029,-2.14359 0.509206,-0.59133 1.141606,-1.04305 1.897196,-1.35514 0.75559,-0.31209 1.61795,-0.46813 2.58708,-0.46813 1.31408,0 2.4064,0.29567 3.27697,0.887 0.88701,0.59133 1.51941,1.42084 1.8972,2.48853 l -2.95667,1.28122 c -0.11498,-0.49278 -0.35316,-0.91164 -0.71453,-1.25659 -0.36136,-0.34494 -0.86235,-0.51741 -1.50297,-0.51741 -0.73916,0 -1.29764,0.24639 -1.67544,0.73916 -0.3778,0.47635 -0.5667,1.12518 -0.5667,1.94648 v 2.41461 c 0,0.82129 0.1889,1.47012 0.5667,1.94647 0.3778,0.47635 0.93628,0.71453 1.67544,0.71453 0.65704,0 1.17446,-0.17247 1.55225,-0.51742 0.39423,-0.36137 0.68168,-0.8295 0.86236,-1.40441 l 2.83348,1.23194 c -0.42707,1.23195 -1.09232,2.13537 -1.99575,2.71028 -0.88701,0.57491 -1.97112,0.86236 -3.25234,0.86236 z m 12.78762,0 c -0.98556,0 -1.86435,-0.15605 -2.63637,-0.46814 -0.77201,-0.32851 -1.42905,-0.78023 -1.97111,-1.35514 -0.52563,-0.59133 -0.92806,-1.30586 -1.2073,-2.14358 -0.26282,-0.83772 -0.39423,-1.774 -0.39423,-2.80884 0,-1.01841 0.13141,-1.93826 0.39423,-2.75955 0.26281,-0.83773 0.64882,-1.55226 1.15802,-2.14359 0.52563,-0.59133 1.16625,-1.04305 1.92184,-1.35514 0.75559,-0.32851 1.61795,-0.49277 2.58708,-0.49277 1.06769,0 1.97933,0.18068 2.73492,0.54205 0.77202,0.36137 1.39621,0.84594 1.87256,1.4537 0.49277,0.60776 0.84593,1.31407 1.05947,2.11894 0.22996,0.78845 0.34494,1.61796 0.34494,2.48853 v 1.08411 h -8.30331 v 0.19711 c 0,0.85415 0.22996,1.53583 0.68989,2.04503 0.45993,0.49278 1.18267,0.73917 2.16823,0.73917 0.75559,0 1.37156,-0.14783 1.84791,-0.4435 0.47635,-0.31209 0.91986,-0.68168 1.33051,-1.10875 l 1.82327,2.26678 c -0.57491,0.67346 -1.3305,1.19909 -2.26677,1.57689 -0.91985,0.37779 -1.97111,0.56669 -3.15378,0.56669 z m -0.0739,-10.84111 c -0.73917,0 -1.32229,0.24639 -1.74936,0.73916 -0.41065,0.47635 -0.61598,1.11697 -0.61598,1.92184 v 0.19711 h 4.53356 v -0.22175 c 0,-0.78845 -0.18068,-1.42085 -0.54205,-1.8972 -0.34495,-0.49277 -0.887,-0.73916 -1.62617,-0.73916 z m 12.91079,10.84111 c -1.24837,0 -2.29963,-0.19711 -3.15378,-0.59133 -0.85415,-0.41065 -1.61795,-0.98555 -2.29142,-1.72472 l 2.14359,-2.16823 c 0.45993,0.50921 0.96913,0.91164 1.52761,1.20731 0.55848,0.29567 1.19088,0.4435 1.89719,0.4435 0.72275,0 1.22374,-0.10677 1.50298,-0.32031 0.27924,-0.22996 0.41886,-0.53384 0.41886,-0.91164 0,-0.60776 -0.43529,-0.96913 -1.30586,-1.08411 l -1.40442,-0.17247 c -2.90739,-0.36137 -4.36109,-1.69187 -4.36109,-3.9915 0,-0.62419 0.11498,-1.19088 0.34495,-1.70009 0.24639,-0.52563 0.58312,-0.96913 1.01019,-1.3305 0.4435,-0.37779 0.96913,-0.66525 1.57689,-0.86236 0.62419,-0.21353 1.32229,-0.3203 2.09431,-0.3203 0.67346,0 1.26479,0.0493 1.774,0.14783 0.52563,0.0821 0.98556,0.21353 1.37978,0.39422 0.41065,0.16426 0.78023,0.3778 1.10875,0.64061 0.34495,0.24639 0.68168,0.52564 1.01019,0.83773 l -2.0943,2.14358 c -0.41065,-0.41065 -0.87879,-0.73095 -1.40442,-0.96092 -0.50921,-0.24639 -1.03484,-0.36958 -1.57689,-0.36958 -0.62419,0 -1.06769,0.0986 -1.3305,0.29567 -0.26281,0.19711 -0.39422,0.45992 -0.39422,0.78844 0,0.34495 0.0903,0.61597 0.27103,0.81308 0.19711,0.18069 0.55848,0.3121 1.08411,0.39423 l 1.45369,0.19711 c 2.84169,0.37779 4.26253,1.67544 4.26253,3.89294 0,0.62419 -0.13141,1.1991 -0.39422,1.72473 -0.26281,0.52563 -0.64061,0.98555 -1.13339,1.37978 -0.47635,0.37779 -1.05947,0.67346 -1.74936,0.887 -0.67347,0.21353 -1.42906,0.3203 -2.26678,0.3203 z m 12.36873,-0.29566 c -1.26479,0 -2.22571,-0.32031 -2.88275,-0.96092 -0.64061,-0.64061 -0.96091,-1.57689 -0.96091,-2.80884 v -6.33219 h -1.82328 v -2.83348 h 0.91164 c 0.49277,0 0.8295,-0.11498 1.01019,-0.34494 0.18069,-0.24639 0.27103,-0.59134 0.27103,-1.03484 v -2.11894 h 3.27697 v 3.49872 h 2.56245 v 2.83348 h -2.56245 v 7.26847 h 2.36534 v 2.83348 z m 10.20049,0.29566 c -0.98555,0 -1.86434,-0.15605 -2.63636,-0.46814 -0.77202,-0.32851 -1.42906,-0.78023 -1.97111,-1.35514 -0.52563,-0.59133 -0.92807,-1.30586 -1.20731,-2.14358 -0.26281,-0.83772 -0.39422,-1.774 -0.39422,-2.80884 0,-1.01841 0.13141,-1.93826 0.39422,-2.75955 0.26282,-0.83773 0.64883,-1.55226 1.15803,-2.14359 0.52563,-0.59133 1.16625,-1.04305 1.92184,-1.35514 0.75559,-0.32851 1.61795,-0.49277 2.58708,-0.49277 1.06769,0 1.97933,0.18068 2.73492,0.54205 0.77202,0.36137 1.3962,0.84594 1.87255,1.4537 0.49278,0.60776 0.84594,1.31407 1.05948,2.11894 0.22996,0.78845 0.34494,1.61796 0.34494,2.48853 v 1.08411 h -8.30331 v 0.19711 c 0,0.85415 0.22996,1.53583 0.68989,2.04503 0.45993,0.49278 1.18267,0.73917 2.16822,0.73917 0.75559,0 1.37157,-0.14783 1.84792,-0.4435 0.47635,-0.31209 0.91985,-0.68168 1.3305,-1.10875 l 1.82328,2.26678 c -0.57491,0.67346 -1.3305,1.19909 -2.26678,1.57689 -0.91985,0.37779 -1.97111,0.56669 -3.15378,0.56669 z m -0.0739,-10.84111 c -0.73917,0 -1.32229,0.24639 -1.74937,0.73916 -0.41065,0.47635 -0.61597,1.11697 -0.61597,1.92184 v 0.19711 h 4.53356 v -0.22175 c 0,-0.78845 -0.18069,-1.42085 -0.54206,-1.8972 -0.34494,-0.49277 -0.88699,-0.73916 -1.62616,-0.73916 z m 8.52507,10.54545 v -12.93543 h 3.64656 v 2.80884 h 0.12319 c 0.0657,-0.36137 0.18072,-0.70632 0.34495,-1.03484 0.16426,-0.34494 0.3778,-0.64882 0.64061,-0.91164 0.27924,-0.26281 0.60776,-0.46814 0.98555,-0.61597 0.3778,-0.16426 0.8213,-0.24639 1.3305,-0.24639 h 0.64062 v 3.40017 h -0.91164 c -1.06769,0 -1.86435,0.13962 -2.38998,0.41886 -0.5092,0.27924 -0.7638,0.79666 -0.7638,1.55225 v 7.56415 z"
       id="text11"
       aria-label="CR-Worcester" /></g></svg>
