<?xml version="1.0" encoding="UTF-8" standalone="no"?>
<!-- Created with Inkscape (http://www.inkscape.org/) -->

<svg
   width="119.99999"
   height="75.000008"
   viewBox="0 0 31.749998 19.843752"
   version="1.1"
   id="svg1"
   xml:space="preserve"
   xmlns="http://www.w3.org/2000/svg"
   xmlns:svg="http://www.w3.org/2000/svg"><defs
     id="defs1" /><g
     id="layer1"
     transform="translate(-2.6458328,-23.151042)"><rect
       style="fill:#008150;fill-opacity:1;stroke-width:0.141926"
       id="rect2"
       width="31.749998"
       height="19.843752"
       x="2.6458328"
       y="23.151043"
       ry="1.0272316" /><path
       style="font-weight:bold;font-size:24.6389px;line-height:22.1749px;font-family:'IBM Plex Sans';-inkscape-font-specification:'IBM Plex Sans Bold';text-align:center;text-anchor:middle;fill:#ffffff;stroke-width:0.484307"
       d="m 15.761276,38.936976 h -0.123194 q -0.197111,1.305862 -1.330501,2.168223 -1.133389,0.862362 -3.079863,0.862362 -1.4783336,0 -2.7595564,-0.566695 -1.2812228,-0.566695 -2.24214,-1.675445 -0.9609171,-1.108751 -1.5029729,-2.759557 -0.5420558,-1.650806 -0.5420558,-3.81903 0,-2.168223 0.5666947,-3.843668 0.5666947,-1.675445 1.5768896,-2.808835 1.0348339,-1.133389 2.4638901,-1.724723 1.4290567,-0.591333 3.1784187,-0.591333 2.316056,0 3.991501,1.010194 1.675446,0.985556 2.636363,2.981307 l -3.055224,1.749362 q -0.394222,-1.010195 -1.231945,-1.700084 -0.837723,-0.714528 -2.340695,-0.714528 -1.749362,0 -2.7841963,1.010195 -1.0348338,1.010195 -1.0348338,3.178418 v 2.759557 q 0,2.143585 1.0348338,3.178418 1.0348343,1.010195 2.7841963,1.010195 0.689889,0 1.305861,-0.147833 0.615973,-0.172472 1.084112,-0.492778 0.468139,-0.344945 0.714528,-0.813084 0.271028,-0.468139 0.271028,-1.10875 v -0.862362 h -3.203057 v -3.12914 h 6.775698 v 9.584532 h -3.15378 z m 6.800334,2.734918 V 24.473941 h 3.745112 v 13.871701 h 6.553948 v 3.326252 z"
       id="text2"
       aria-label="GL" /></g></svg>
