<?xml version="1.0" encoding="UTF-8" standalone="no"?>
<!-- Created with Inkscape (http://www.inkscape.org/) -->

<svg
   width="119.99999"
   height="75"
   viewBox="0 0 31.749998 19.84375"
   version="1.1"
   id="svg1"
   xml:space="preserve"
   xmlns="http://www.w3.org/2000/svg"
   xmlns:svg="http://www.w3.org/2000/svg"><defs
     id="defs1" /><g
     id="layer1"
     transform="translate(-2.645833,-67.468752)"><rect
       style="fill:#fd8a03;fill-opacity:1;stroke-width:0.141926"
       id="rect4"
       width="31.749998"
       height="19.843752"
       x="2.645833"
       y="67.468758"
       ry="1.2577364" /><path
       style="font-weight:bold;font-size:24.6389px;line-height:22.1749px;font-family:'IBM Plex Sans';-inkscape-font-specification:'IBM Plex Sans Bold';text-align:center;text-anchor:middle;fill:#ffffff;stroke-width:0.484307"
       d="m 11.806724,86.285276 q -1.700084,0 -3.1045013,-0.566695 Q 7.2978054,85.151886 6.3122494,84.043136 5.3266933,82.909746 4.7846375,81.25894 4.2425817,79.583495 4.2425817,77.390632 q 0,-2.192862 0.5420558,-3.843668 0.5420558,-1.675445 1.5276119,-2.784196 0.985556,-1.133389 2.3899733,-1.700084 1.4044173,-0.566695 3.1045013,-0.566695 1.700084,0 3.104502,0.566695 1.404417,0.566695 2.389973,1.700084 0.985556,1.108751 1.527612,2.784196 0.542056,1.650806 0.542056,3.843668 0,2.192863 -0.542056,3.868308 -0.542056,1.650806 -1.527612,2.784196 -0.985556,1.10875 -2.389973,1.675445 -1.404418,0.566695 -3.104502,0.566695 z m 0,-3.326252 q 1.700084,0 2.636363,-1.108751 0.960917,-1.10875 0.960917,-3.178418 V 76.10941 q 0,-2.069668 -0.960917,-3.178419 -0.936279,-1.10875 -2.636363,-1.10875 -1.700084,0 -2.6610011,1.10875 -0.9362782,1.108751 -0.9362782,3.178419 v 2.562445 q 0,2.069668 0.9362782,3.178418 0.9609171,1.108751 2.6610011,1.108751 z m 10.6933,3.030585 V 68.791656 h 3.745113 v 13.871701 h 6.553947 v 3.326252 z"
       id="text4"
       aria-label="OL" /></g></svg>
