<?xml version="1.0" encoding="UTF-8" standalone="no"?>
<!-- Created with Inkscape (http://www.inkscape.org/) -->

<svg
   width="119.99999"
   height="75.000008"
   viewBox="0 0 31.749998 19.843752"
   version="1.1"
   id="svg1"
   xml:space="preserve"
   xmlns="http://www.w3.org/2000/svg"
   xmlns:svg="http://www.w3.org/2000/svg"><defs
     id="defs1" /><g
     id="layer1"
     transform="translate(-2.6458333,-1.3229167)"><rect
       style="fill:#fa2d27;fill-opacity:1;stroke-width:0.141926"
       id="rect1"
       width="31.749998"
       height="19.843752"
       x="2.6458333"
       y="1.3229167"
       ry="1.3228996" /><path
       style="font-weight:bold;font-size:24.6389px;line-height:22.1749px;font-family:'IBM Plex Sans';-inkscape-font-specification:'IBM Plex Sans Bold';text-align:center;text-anchor:middle;fill:#ffffff;stroke-width:0.484307"
       d="M 8.8131079,19.843769 H 5.067995 V 2.6458163 h 8.155476 q 1.182667,0 2.143584,0.3942225 0.960918,0.3942224 1.626168,1.1333894 0.689889,0.7145281 1.059473,1.724723 0.369583,1.010195 0.369583,2.24214 0,1.749362 -0.788445,3.0552238 -0.763806,1.305862 -2.340695,1.897195 l 3.375529,6.751059 H 14.504694 L 11.498748,13.53621 H 8.8131079 Z m 3.9422241,-9.461338 q 0.837723,0 1.305862,-0.4188611 0.492778,-0.4435002 0.492778,-1.2812229 V 7.5982354 q 0,-0.8377226 -0.492778,-1.2565839 Q 13.593055,5.8981512 12.755332,5.8981512 H 8.8131079 v 4.4842798 z m 8.919276,9.461338 V 2.6458163 h 3.745113 V 16.517517 h 6.553948 v 3.326252 z"
       id="text1"
       aria-label="RL" /></g></svg>
