<?xml version="1.0" encoding="UTF-8" standalone="no"?>
<!-- Created with Inkscape (http://www.inkscape.org/) -->

<svg
   width="170"
   height="75.000031"
   viewBox="0 0 44.979166 19.843758"
   version="1.1"
   id="svg1"
   xml:space="preserve"
   xmlns="http://www.w3.org/2000/svg"
   xmlns:svg="http://www.w3.org/2000/svg"><defs
     id="defs1" /><g
     id="layer1"
     transform="translate(-2.6458325,-89.95833)"><rect
       style="fill:#9a9c9d;fill-opacity:1;stroke-width:0.168925"
       id="rect5"
       width="44.979164"
       height="19.843752"
       x="2.6458325"
       y="89.958336"
       ry="1.2577364" /><path
       style="font-weight:bold;font-size:24.6389px;line-height:22.1749px;font-family:'IBM Plex Sans';-inkscape-font-specification:'IBM Plex Sans Bold';text-align:center;text-anchor:middle;fill:#ffffff;stroke-width:0.484307"
       d="m 10.770921,108.77485 q -2.2667792,0 -3.8436689,-0.7638 -1.5768896,-0.78845 -2.6856402,-2.02039 l 2.4638901,-2.48853 q 1.749362,1.97111 4.311808,1.97111 1.379778,0 2.045028,-0.56669 0.665251,-0.5667 0.665251,-1.50298 0,-0.71452 -0.394223,-1.18266 -0.394222,-0.49278 -1.601528,-0.66525 l -1.700084,-0.22175 q -2.7349184,-0.34495 -4.0161412,-1.650811 -1.256584,-1.305861 -1.256584,-3.474085 0,-1.158028 0.4435003,-2.118945 0.4435002,-0.960917 1.2565839,-1.650806 0.8377226,-0.68989 2.0203899,-1.059473 1.2073061,-0.394223 2.7349181,-0.394223 1.946473,0 3.424807,0.615973 1.478334,0.615973 2.537807,1.79864 l -2.488529,2.513168 Q 14.072533,95.19882 13.185533,94.755319 12.323171,94.28718 10.992671,94.28718 q -1.2565842,0 -1.8725567,0.4435 -0.6159725,0.443501 -0.6159725,1.231945 0,0.887001 0.4681391,1.281223 0.492778,0.394223 1.5768901,0.566695 l 1.700084,0.271028 q 2.661001,0.418861 3.942224,1.650806 1.281223,1.207303 1.281223,3.449443 0,1.23195 -0.443501,2.26678 -0.4435,1.03484 -1.305861,1.774 -0.837723,0.73917 -2.094307,1.15803 -1.256584,0.39422 -2.858112,0.39422 z m 9.806295,-0.29566 V 91.281234 h 3.745113 v 13.871706 h 6.553948 v 3.32625 z m 13.477497,0 v -2.98131 h 4.632114 V 93.966874 h -0.22175 l -3.498724,4.582836 -2.365335,-1.847918 4.114697,-5.420558 h 5.666947 v 14.216646 h 3.646557 v 2.98131 z"
       id="text5"
       aria-label="SL1" /></g></svg>
