<?xml version="1.0" encoding="UTF-8" standalone="no"?>
<!-- Created with Inkscape (http://www.inkscape.org/) -->

<svg
   width="170"
   height="75"
   viewBox="0 0 44.979166 19.84375"
   version="1.1"
   id="svg1"
   xml:space="preserve"
   xmlns="http://www.w3.org/2000/svg"
   xmlns:svg="http://www.w3.org/2000/svg"><defs
     id="defs1" /><g
     id="layer1"
     transform="translate(-2.6458335,-111.125)"><rect
       style="fill:#9a9c9d;fill-opacity:1;stroke-width:0.168925"
       id="rect6"
       width="44.979164"
       height="19.843752"
       x="2.6458335"
       y="111.12501"
       ry="1.2577364" /><path
       style="font-weight:bold;font-size:24.6389px;line-height:22.1749px;font-family:'IBM Plex Sans';-inkscape-font-specification:'IBM Plex Sans Bold';text-align:center;text-anchor:middle;fill:#ffffff;stroke-width:0.484307"
       d="m 11.128184,129.94153 q -2.2667787,0 -3.8436683,-0.76381 -1.5768897,-0.78845 -2.6856402,-2.02039 l 2.4638901,-2.48853 q 1.7493619,1.97111 4.3118074,1.97111 1.379779,0 2.045029,-0.56669 0.66525,-0.5667 0.66525,-1.50297 0,-0.71453 -0.394222,-1.18267 -0.394223,-0.49278 -1.601529,-0.66525 l -1.700084,-0.22175 q -2.7349178,-0.34495 -4.0161407,-1.65081 -1.2565839,-1.30586 -1.2565839,-3.47408 0,-1.15803 0.4435002,-2.11895 0.4435002,-0.96092 1.256584,-1.65081 0.8377226,-0.68988 2.0203898,-1.05947 1.2073066,-0.39422 2.7349176,-0.39422 1.946474,0 3.424808,0.61597 1.478334,0.61597 2.537806,1.79864 l -2.488529,2.51317 q -0.615972,-0.71453 -1.502973,-1.15803 -0.862361,-0.46814 -2.192862,-0.46814 -1.256584,0 -1.8725562,0.4435 -0.6159725,0.4435 -0.6159725,1.23195 0,0.887 0.4681391,1.28122 0.4927781,0.39422 1.5768896,0.56669 l 1.700084,0.27103 q 2.661002,0.41886 3.942224,1.65081 1.281223,1.20731 1.281223,3.44945 0,1.23194 -0.4435,2.26677 -0.4435,1.03484 -1.305862,1.774 -0.837722,0.73917 -2.094306,1.15803 -1.256584,0.39423 -2.858113,0.39423 z m 9.806296,-0.29567 v -17.19795 h 3.745113 v 13.8717 h 6.553947 v 3.32625 z m 24.737474,0 H 33.500338 v -3.37553 l 5.297363,-4.53356 q 0.714528,-0.61597 1.207306,-1.10875 0.492778,-0.51742 0.788445,-0.98555 0.320306,-0.49278 0.4435,-0.96092 0.147834,-0.46814 0.147834,-1.0102 v -0.34494 q 0,-0.49278 -0.197111,-0.86236 -0.197112,-0.36959 -0.517417,-0.61598 -0.320306,-0.24638 -0.739167,-0.36958 -0.394223,-0.12319 -0.813084,-0.12319 -0.615973,0 -1.084112,0.19711 -0.4435,0.19711 -0.788445,0.54205 -0.320305,0.32031 -0.542055,0.76381 -0.22175,0.41886 -0.344945,0.91164 l -3.227696,-1.23195 q 0.295667,-0.887 0.813084,-1.67544 0.517417,-0.81309 1.281223,-1.40442 0.788444,-0.61597 1.847917,-0.96092 1.059473,-0.34494 2.389973,-0.34494 1.404418,0 2.488529,0.39422 1.084112,0.39422 1.823279,1.08411 0.763806,0.68989 1.158028,1.65081 0.394223,0.93628 0.394223,2.04503 0,1.10875 -0.369584,2.02039 -0.369583,0.91164 -1.010195,1.72472 -0.615972,0.78845 -1.453695,1.50297 -0.837722,0.71453 -1.749362,1.4537 l -3.203057,2.51317 h 8.130837 z"
       id="text6"
       aria-label="SL2" /></g></svg>
