<?xml version="1.0" encoding="UTF-8" standalone="no"?>
<!-- Created with Inkscape (http://www.inkscape.org/) -->

<svg
   width="170"
   height="74.999969"
   viewBox="0 0 44.979166 19.843741"
   version="1.1"
   id="svg1"
   xml:space="preserve"
   xmlns="http://www.w3.org/2000/svg"
   xmlns:svg="http://www.w3.org/2000/svg"><defs
     id="defs1" /><g
     id="layer1"
     transform="translate(-2.9281991,-132.56384)"><rect
       style="fill:#9a9c9d;fill-opacity:1;stroke-width:0.168925"
       id="rect7"
       width="44.979164"
       height="19.843752"
       x="2.9281991"
       y="132.56384"
       ry="1.2577364" /><path
       style="font-weight:bold;font-size:24.6389px;line-height:22.1749px;font-family:'IBM Plex Sans';-inkscape-font-specification:'IBM Plex Sans Bold';text-align:center;text-anchor:middle;fill:#ffffff;stroke-width:0.484307"
       d="m 11.558383,151.38037 q -2.266779,0 -3.8436687,-0.76381 -1.5768896,-0.78844 -2.6856401,-2.02039 l 2.46389,-2.48853 q 1.749362,1.97112 4.3118078,1.97112 1.379778,0 2.045029,-0.5667 0.66525,-0.56669 0.66525,-1.50297 0,-0.71453 -0.394222,-1.18267 -0.394223,-0.49278 -1.601529,-0.66525 l -1.700084,-0.22175 q -2.7349181,-0.34494 -4.016141,-1.65081 -1.2565839,-1.30586 -1.2565839,-3.47408 0,-1.15803 0.4435002,-2.11895 0.4435002,-0.96091 1.2565839,-1.6508 0.8377227,-0.68989 2.0203899,-1.05948 1.2073059,-0.39422 2.7349179,-0.39422 1.946473,0 3.424807,0.61597 1.478334,0.61598 2.537807,1.79864 l -2.488529,2.51317 q -0.615972,-0.71453 -1.502973,-1.15803 -0.862361,-0.46814 -2.192862,-0.46814 -1.256584,0 -1.8725565,0.4435 -0.6159725,0.44351 -0.6159725,1.23195 0,0.887 0.4681391,1.28122 0.4927779,0.39423 1.5768899,0.5667 l 1.700084,0.27103 q 2.661001,0.41886 3.942224,1.6508 1.281223,1.20731 1.281223,3.44945 0,1.23194 -0.4435,2.26678 -0.443501,1.03483 -1.305862,1.774 -0.837723,0.73916 -2.094307,1.15803 -1.256584,0.39422 -2.858112,0.39422 z m 9.806295,-0.29567 v -17.19795 h 3.745113 v 13.8717 h 6.553948 v 3.32625 z m 17.616833,-10.39761 q 1.379778,0 1.995751,-0.51742 0.640611,-0.54206 0.640611,-1.3305 v -0.17247 q 0,-0.93628 -0.615972,-1.50298 -0.591334,-0.56669 -1.700084,-0.56669 -1.034834,0 -1.946474,0.54205 -0.911639,0.51742 -1.55225,1.50298 l -2.316057,-2.16823 q 0.492778,-0.64061 1.059473,-1.15802 0.566694,-0.54206 1.281223,-0.91164 0.714528,-0.39423 1.601528,-0.59134 0.887001,-0.22175 1.995751,-0.22175 1.379778,0 2.488529,0.32031 1.133389,0.3203 1.921834,0.93628 0.813084,0.59133 1.231945,1.42905 0.443501,0.83772 0.443501,1.87256 0,0.81308 -0.271028,1.47833 -0.246389,0.66525 -0.714528,1.15803 -0.443501,0.49278 -1.034834,0.81308 -0.591334,0.29567 -1.256584,0.41887 v 0.14783 q 0.763806,0.14783 1.404417,0.49278 0.66525,0.3203 1.13339,0.83772 0.492778,0.51742 0.763805,1.23195 0.271028,0.68988 0.271028,1.57688 0,1.15803 -0.468139,2.09431 -0.468139,0.93628 -1.3305,1.60153 -0.862362,0.66525 -2.069668,1.03483 -1.207306,0.34495 -2.661001,0.34495 -1.305862,0 -2.316057,-0.27103 -1.010195,-0.27103 -1.774001,-0.71453 -0.739167,-0.46814 -1.305862,-1.05947 -0.542055,-0.59133 -0.960917,-1.25658 l 2.734918,-2.11895 q 0.566695,1.05947 1.379779,1.74936 0.837722,0.66525 2.24214,0.66525 1.256584,0 1.946473,-0.61597 0.714528,-0.64061 0.714528,-1.72472 v -0.14784 q 0,-1.05947 -0.813084,-1.57689 -0.788445,-0.54205 -2.192862,-0.54205 h -1.552251 v -3.07986 z"
       id="text7"
       aria-label="SL3" /></g></svg>
