<?xml version="1.0" encoding="UTF-8" standalone="no"?>
<!-- Created with Inkscape (http://www.inkscape.org/) -->

<svg
   width="170"
   height="75"
   viewBox="0 0 44.979166 19.84375"
   version="1.1"
   id="svg1"
   xml:space="preserve"
   xmlns="http://www.w3.org/2000/svg"
   xmlns:svg="http://www.w3.org/2000/svg"><defs
     id="defs1" /><g
     id="layer1"
     transform="translate(-2.9281988,-155.05342)"><rect
       style="fill:#9a9c9d;fill-opacity:1;stroke-width:0.168925"
       id="rect8"
       width="44.979164"
       height="19.843752"
       x="2.9281988"
       y="155.05342"
       ry="1.2577364" /><path
       style="font-weight:bold;font-size:24.6389px;line-height:22.1749px;font-family:'IBM Plex Sans';-inkscape-font-specification:'IBM Plex Sans Bold';text-align:center;text-anchor:middle;fill:#ffffff;stroke-width:0.484307"
       d="m 11.201119,173.86995 q -2.2667786,0 -3.8436682,-0.76381 -1.5768897,-0.78844 -2.6856402,-2.02039 l 2.4638901,-2.48853 q 1.7493619,1.97111 4.3118073,1.97111 1.379779,0 2.045029,-0.56669 0.66525,-0.5667 0.66525,-1.50297 0,-0.71453 -0.394222,-1.18267 -0.394222,-0.49278 -1.601529,-0.66525 L 10.461952,166.429 q -2.7349177,-0.34495 -4.0161406,-1.65081 -1.2565839,-1.30586 -1.2565839,-3.47408 0,-1.15803 0.4435002,-2.11895 0.4435002,-0.96092 1.256584,-1.6508 0.8377226,-0.68989 2.0203898,-1.05948 1.2073065,-0.39422 2.7349185,-0.39422 1.946473,0 3.424807,0.61597 1.478334,0.61598 2.537806,1.79864 l -2.488528,2.51317 q -0.615973,-0.71453 -1.502973,-1.15803 -0.862362,-0.46814 -2.192863,-0.46814 -1.256584,0 -1.8725561,0.4435 -0.6159725,0.4435 -0.6159725,1.23195 0,0.887 0.4681391,1.28122 0.4927781,0.39422 1.5768895,0.5667 l 1.700084,0.27102 q 2.661002,0.41886 3.942224,1.65081 1.281223,1.20731 1.281223,3.44945 0,1.23194 -0.4435,2.26677 -0.4435,1.03484 -1.305862,1.77401 -0.837722,0.73916 -2.094306,1.15802 -1.256584,0.39423 -2.858113,0.39423 z m 9.806296,-0.29567 v -17.19795 h 3.745113 v 13.8717 h 6.553947 v 3.32625 z m 19.46475,0 v -3.30161 h -7.564143 v -3.15378 l 6.701781,-10.74256 h 4.385725 v 11.03822 h 2.168223 v 2.85812 h -2.168223 v 3.30161 z m -4.607475,-6.15973 h 4.607475 v -7.21919 h -0.246389 z"
       id="text8"
       aria-label="SL4" /></g></svg>
