<?xml version="1.0" encoding="UTF-8" standalone="no"?>
<!-- Created with Inkscape (http://www.inkscape.org/) -->

<svg
   width="170"
   height="75.000008"
   viewBox="0 0 44.979166 19.843752"
   version="1.1"
   id="svg1"
   xml:space="preserve"
   xmlns="http://www.w3.org/2000/svg"
   xmlns:svg="http://www.w3.org/2000/svg"><defs
     id="defs1" /><g
     id="layer1"
     transform="translate(-205.87268,-12.415134)"><rect
       style="fill:#9a9c9d;fill-opacity:1;stroke-width:0.168925"
       id="rect22"
       width="44.979164"
       height="19.843752"
       x="205.87268"
       y="12.415134"
       ry="1.2577364" /><path
       d="m 214.8449,30.830944 q -2.16466,0 -3.67051,-0.729396 -1.50585,-0.752925 -2.56465,-1.92937 l 2.35289,-2.376418 q 1.67056,1.882312 4.11756,1.882312 1.31762,0 1.9529,-0.541165 0.63528,-0.541165 0.63528,-1.435263 0,-0.682338 -0.37646,-1.129387 -0.37646,-0.470578 -1.52938,-0.635281 l -1.6235,-0.21176 q -2.6117,-0.329404 -3.83521,-1.576436 -1.19997,-1.247032 -1.19997,-3.317575 0,-1.105858 0.42352,-2.023485 0.42352,-0.917627 1.19997,-1.576437 0.79999,-0.658809 1.92937,-1.011742 1.15292,-0.376463 2.61171,-0.376463 1.85879,0 3.27052,0.588223 1.41173,0.588222 2.42348,1.717609 l -2.37642,2.399948 q -0.58823,-0.682338 -1.43527,-1.105858 -0.82351,-0.447049 -2.09407,-0.447049 -1.19997,0 -1.78819,0.42352 -0.58823,0.42352 -0.58823,1.176445 0,0.84704 0.44705,1.223503 0.47058,0.376462 1.50585,0.541165 l 1.6235,0.258817 q 2.54112,0.399992 3.76462,1.576437 1.2235,1.152916 1.2235,3.294046 0,1.176445 -0.42352,2.164659 -0.42352,0.988213 -1.24703,1.69408 -0.79998,0.705867 -1.99996,1.105859 -1.19997,0.376462 -2.72935,0.376462 z m 9.36452,-0.282347 V 14.125425 h 3.57639 v 13.246771 h 6.25869 v 3.176401 z m 22.94069,-13.340886 h -7.45866 l -0.35293,5.199887 h 0.18823 q 0.23529,-0.588223 0.51763,-1.058801 0.30588,-0.494107 0.70587,-0.823511 0.39999,-0.352934 0.96469,-0.541165 0.56469,-0.188231 1.34114,-0.188231 1.0588,0 1.97643,0.352933 0.91763,0.352934 1.59997,1.035272 0.68233,0.658809 1.08232,1.647023 0.4,0.964685 0.4,2.188188 0,1.247032 -0.42352,2.329361 -0.4,1.0588 -1.22351,1.835254 -0.79998,0.776454 -1.97642,1.223503 -1.17645,0.42352 -2.6823,0.42352 -1.19997,0 -2.1176,-0.258818 -0.91763,-0.258818 -1.62349,-0.682338 -0.70587,-0.447049 -1.22351,-1.011743 -0.51763,-0.564693 -0.8941,-1.199973 l 2.56465,-2.023486 q 0.54117,0.964685 1.29409,1.647023 0.75293,0.658809 2.02349,0.658809 1.27056,0 1.90584,-0.729396 0.65881,-0.729395 0.65881,-1.929369 v -0.188232 q 0,-1.129387 -0.65881,-1.788196 -0.65881,-0.658809 -1.81172,-0.658809 -0.96469,0 -1.59997,0.399991 -0.61175,0.376462 -0.94116,0.752925 l -2.89405,-0.399991 0.61175,-9.293916 h 10.04684 z"
       id="text22"
       style="font-weight:bold;font-size:23.5289px;line-height:21.176px;font-family:'IBM Plex Sans';-inkscape-font-specification:'IBM Plex Sans Bold';text-align:center;text-anchor:middle;fill:#ffffff;stroke-width:0.198209"
       aria-label="SL5" /></g></svg>
