<?xml version="1.0" encoding="UTF-8" standalone="no"?>
<!-- Created with Inkscape (http://www.inkscape.org/) -->

<svg
   width="198.93279"
   height="75.000061"
   viewBox="0 0 52.634299 19.843766"
   version="1.1"
   id="svg1"
   xml:space="preserve"
   xmlns="http://www.w3.org/2000/svg"
   xmlns:svg="http://www.w3.org/2000/svg"><defs
     id="defs1" /><g
     id="layer1"
     transform="translate(-2.9281986,-176.22009)"><rect
       style="fill:#9a9c9d;fill-opacity:1;stroke-width:0.182735"
       id="rect9"
       width="52.6343"
       height="19.843752"
       x="2.9281986"
       y="176.22009"
       ry="1.2577364" /><path
       style="font-weight:bold;font-size:24.6389px;line-height:22.1749px;font-family:'IBM Plex Sans';-inkscape-font-specification:'IBM Plex Sans Bold';text-align:center;text-anchor:middle;fill:#ffffff;stroke-width:0.484307"
       d="m 10.901676,195.03662 q -2.2667788,0 -3.8436685,-0.76381 -1.5768896,-0.78844 -2.6856401,-2.02039 l 2.46389,-2.48853 q 1.749362,1.97112 4.3118076,1.97112 1.379779,0 2.045029,-0.5667 0.66525,-0.56669 0.66525,-1.50297 0,-0.71453 -0.394222,-1.18267 -0.394223,-0.49278 -1.601529,-0.66525 l -1.700084,-0.22175 q -2.7349179,-0.34494 -4.0161408,-1.65081 -1.2565839,-1.30586 -1.2565839,-3.47408 0,-1.15803 0.4435002,-2.11895 0.4435002,-0.96091 1.2565839,-1.6508 0.8377227,-0.68989 2.0203899,-1.05948 1.2073061,-0.39422 2.7349177,-0.39422 1.946473,0 3.424807,0.61597 1.478335,0.61598 2.537807,1.79864 l -2.488529,2.51317 q -0.615972,-0.71453 -1.502973,-1.15803 -0.862361,-0.46814 -2.192862,-0.46814 -1.2565838,0 -1.8725563,0.4435 -0.6159725,0.44351 -0.6159725,1.23195 0,0.887 0.4681391,1.28122 0.492778,0.39423 1.5768897,0.5667 l 1.700084,0.27103 q 2.661001,0.41886 3.942224,1.6508 1.281223,1.20731 1.281223,3.44945 0,1.23194 -0.4435,2.26678 -0.4435,1.03483 -1.305862,1.774 -0.837723,0.73916 -2.094306,1.15803 -1.256584,0.39422 -2.858113,0.39422 z m 9.806296,-0.29567 V 177.543 h 3.745113 v 13.8717 h 6.553947 v 3.32625 z m 14.75871,0 -3.892946,-17.19795 h 3.695835 l 1.626167,8.25403 0.91164,4.77995 h 0.07392 l 1.084112,-4.77995 1.897195,-8.25403 h 4.090058 l 1.921834,8.25403 1.059473,4.77995 h 0.07392 l 0.911639,-4.77995 1.650806,-8.25403 h 3.548002 l -3.991502,17.19795 h -4.26253 l -2.168223,-9.3135 -0.837723,-3.76975 h -0.07392 l -0.862362,3.76975 -2.168223,9.3135 z"
       id="text9"
       aria-label="SLW" /></g></svg>
