<?xml version="1.0" encoding="UTF-8" standalone="no"?>
<svg
   width="15"
   height="15"
   viewBox="0 0 15 15"
   id="bus"
   version="1.1"
   sodipodi:docname="bus-silver-go.svg"
   inkscape:version="1.4 (e7c3feb1, 2024-10-09)"
   xmlns:inkscape="http://www.inkscape.org/namespaces/inkscape"
   xmlns:sodipodi="http://sodipodi.sourceforge.net/DTD/sodipodi-0.dtd"
   xmlns="http://www.w3.org/2000/svg"
   xmlns:svg="http://www.w3.org/2000/svg">
  <defs
     id="defs1" />
  <sodipodi:namedview
     id="namedview1"
     pagecolor="#ffffff"
     bordercolor="#000000"
     borderopacity="0.25"
     inkscape:showpageshadow="2"
     inkscape:pageopacity="0.0"
     inkscape:pagecheckerboard="0"
     inkscape:deskcolor="#d1d1d1"
     inkscape:zoom="47.564716"
     inkscape:cx="7.5265876"
     inkscape:cy="7.4950516"
     inkscape:window-width="1800"
     inkscape:window-height="1018"
     inkscape:window-x="0"
     inkscape:window-y="44"
     inkscape:window-maximized="0"
     inkscape:current-layer="bus" />
  <ellipse
     style="fill:#44aa00;stroke:#4d4d4d;stroke-width:0.5;stroke-dasharray:none;stroke-opacity:1"
     id="path2"
     cx="11.100054"
     cy="3.7531786"
     rx="3.6499462"
     ry="3.5031786" />
  <rect
     style="fill:#ececec;fill-opacity:1;stroke:#4d4d4d;stroke-width:0.76668;stroke-dasharray:none"
     id="rect2"
     width="11.500201"
     height="11.500201"
     x="0.38334"
     y="3.1164589"
     ry="2.4178009" />
  <path
     d="m 1.6355841,5.186495 c 0,-0.8995713 0.7360129,-1.6355842 1.6355842,-1.6355842 h 5.7245444 c 0.899572,0 1.6355853,0.7360129 1.6355853,1.6355842 v 6.542337 c 0,0.817792 -0.8177933,0.817792 -0.8177933,0.817792 v 0.817793 c 0,0.449785 -0.368006,0.817792 -0.817792,0.817792 -0.4497853,0 -0.8177917,-0.368007 -0.8177917,-0.817792 V 12.546624 H 4.0889604 v 0.817793 c 0,0.449785 -0.3680064,0.817792 -0.8177921,0.817792 -0.4497856,0 -0.8177921,-0.368007 -0.8177921,-0.817792 v -0.817793 c -0.8177921,0 -0.8177921,-0.817792 -0.8177921,-0.817792 z m 1.2266882,0.8177921 c -0.2289818,0 -0.4088961,0.1799143 -0.4088961,0.4088961 v 2.4533763 c 0,0.2289818 0.1799143,0.4088961 0.4088961,0.4088961 h 6.5423364 c 0.228982,0 0.408896,-0.1799143 0.408896,-0.4088961 V 6.4131832 c 0,-0.2289818 -0.179914,-0.4088961 -0.408896,-0.4088961 z m 0.408896,4.0889609 c -0.4497856,0 -0.8177921,0.368006 -0.8177921,0.817792 0,0.449785 0.3680065,0.817792 0.8177921,0.817792 0.4497857,0 0.8177921,-0.368007 0.8177921,-0.817792 0,-0.449786 -0.3680064,-0.817792 -0.8177921,-0.817792 z m 5.7245444,0 c -0.4497853,0 -0.8177917,0.368006 -0.8177917,0.817792 0,0.449785 0.3680064,0.817792 0.8177917,0.817792 0.449786,0 0.817792,-0.368007 0.817792,-0.817792 0,-0.449786 -0.368006,-0.817792 -0.817792,-0.817792 z M 3.2711683,4.777599 c 0,0.2289818 0.1799143,0.408896 0.4088961,0.408896 H 8.586817 c 0.2289817,0 0.4088957,-0.1799142 0.4088957,-0.408896 0,-0.2289818 -0.179914,-0.4088961 -0.4088957,-0.4088961 H 3.6800644 c -0.2289818,0 -0.4088961,0.1799143 -0.4088961,0.4088961 z"
     id="path1"
     style="fill:#9a9c9d;fill-opacity:1;stroke-width:0.817792" />
</svg>
