<?xml version="1.0" encoding="UTF-8" standalone="no"?>
<svg
   width="15"
   height="15"
   viewBox="0 0 15 15"
   id="circle-stroked"
   version="1.1"
   sodipodi:docname="entrance-alt1.svg"
   xml:space="preserve"
   inkscape:version="1.4 (e7c3feb1, 2024-10-09)"
   xmlns:inkscape="http://www.inkscape.org/namespaces/inkscape"
   xmlns:sodipodi="http://sodipodi.sourceforge.net/DTD/sodipodi-0.dtd"
   xmlns="http://www.w3.org/2000/svg"
   xmlns:svg="http://www.w3.org/2000/svg"><defs
     id="defs1" /><sodipodi:namedview
     id="namedview1"
     pagecolor="#ffffff"
     bordercolor="#000000"
     borderopacity="0.25"
     inkscape:showpageshadow="2"
     inkscape:pageopacity="0.0"
     inkscape:pagecheckerboard="0"
     inkscape:deskcolor="#d1d1d1"
     inkscape:zoom="48.601806"
     inkscape:cx="7.3556937"
     inkscape:cy="7.3556937"
     inkscape:window-width="2560"
     inkscape:window-height="1336"
     inkscape:window-x="0"
     inkscape:window-y="505"
     inkscape:window-maximized="1"
     inkscape:current-layer="circle-stroked" /><g
     id="g1"
     transform="matrix(0.0145,0,0,0.0145,0.5,0.5)"><path
       d="m 500,44.3 c -251.7,0 -455.7,204 -455.7,455.7 0,251.7 204,455.7 455.7,455.7 251.7,0 455.7,-204 455.7,-455.7 C 955.7,248.3 751.7,44.3 500,44.3 Z M 815.7,435.1 H 579.1 V 824.3 H 420.9 V 435.1 H 184.3 V 276.9 h 631.3 v 158.2 z"
       style="fill:#ffffff"
       id="path1" /><path
       d="M 500,0 C 223.9,0 0,223.9 0,500 c 0,276.1 223.9,500 500,500 276.1,0 500,-223.9 500,-500 C 1000,223.9 776.1,0 500,0 Z m 0,955.7 C 248.3,955.7 44.3,751.7 44.3,500 44.3,248.3 248.3,44.3 500,44.3 c 251.7,0 455.7,204 455.7,455.7 0,251.7 -204,455.7 -455.7,455.7 z"
       id="path2"
       style="fill:#333333" /><path
       d="M 184.3,435.1 H 420.9 V 824.4 H 579.1 V 435.1 H 815.7 V 276.9 H 184.3 Z"
       id="path3"
       style="fill:#333333;fill-opacity:1" /></g></svg>
