<?xml version="1.0" encoding="UTF-8" standalone="no"?>
<svg
   version="1.1"
   id="rail"
   width="15"
   height="15"
   viewBox="0 0 15 15"
   sodipodi:docname="fullscreen.svg"
   inkscape:version="1.4 (e7c3feb1, 2024-10-09)"
   xmlns:inkscape="http://www.inkscape.org/namespaces/inkscape"
   xmlns:sodipodi="http://sodipodi.sourceforge.net/DTD/sodipodi-0.dtd"
   xmlns="http://www.w3.org/2000/svg"
   xmlns:svg="http://www.w3.org/2000/svg">
  <defs
     id="defs1" />
  <sodipodi:namedview
     id="namedview1"
     pagecolor="#ffffff"
     bordercolor="#000000"
     borderopacity="0.25"
     inkscape:showpageshadow="2"
     inkscape:pageopacity="0.0"
     inkscape:pagecheckerboard="0"
     inkscape:deskcolor="#d1d1d1"
     inkscape:zoom="67.266667"
     inkscape:cx="7.5148662"
     inkscape:cy="7.5"
     inkscape:window-width="2528"
     inkscape:window-height="1308"
     inkscape:window-x="32"
     inkscape:window-y="505"
     inkscape:window-maximized="0"
     inkscape:current-layer="rail"
     showgrid="true">
    <inkscape:grid
       id="grid1"
       units="px"
       originx="0"
       originy="0"
       spacingx="0.5"
       spacingy="0.5"
       empcolor="#0099e5"
       empopacity="0.30196078"
       color="#0099e5"
       opacity="0.14901961"
       empspacing="5"
       enabled="true"
       visible="true" />
  </sodipodi:namedview>
  <path
     style="fill:#1a1a1a;stroke-width:0.629"
     d="m 0.5,10 v 4 c 0,0 0,0.5 0.5,0.5 h 4 v -1 H 1.5 c 0,0 0,0.5 0,0 V 10 Z"
     id="path1"
     sodipodi:nodetypes="ccscccscc" />
  <path
     style="fill:#1a1a1a;stroke-width:0.629"
     d="M 5,0.5 H 1 c 0,0 -0.5,0 -0.5,0.5 v 4 h 1 V 1.5 c 0,0 -0.5,0 0,0 H 5 Z"
     id="path2"
     sodipodi:nodetypes="ccscccscc" />
  <path
     style="fill:#1a1a1a;stroke-width:0.629"
     d="m 14.5,10 v 4 c 0,0 0,0.5 -0.5,0.5 h -4 v -1 h 3.5 c 0,0 0,0.5 0,0 V 10 Z"
     id="path3"
     sodipodi:nodetypes="ccscccscc" />
  <path
     style="fill:#1a1a1a;stroke-width:0.629"
     d="m 10,0.5 h 4 c 0,0 0.5,0 0.5,0.5 v 4 h -1 V 1.5 c 0,0 0.5,0 0,0 H 10 Z"
     id="path4"
     sodipodi:nodetypes="ccscccscc" />
</svg>
