<?xml version="1.0" encoding="UTF-8" standalone="no"?>
<!-- Created with Inkscape (http://www.inkscape.org/) -->

<svg
   width="230"
   height="77.518509"
   viewBox="0 0 60.854165 20.510104"
   version="1.1"
   id="svg1"
   xml:space="preserve"
   inkscape:version="1.4 (e7c3feb1, 2024-10-09)"
   sodipodi:docname="mbta-button.svg"
   xmlns:inkscape="http://www.inkscape.org/namespaces/inkscape"
   xmlns:sodipodi="http://sodipodi.sourceforge.net/DTD/sodipodi-0.dtd"
   xmlns="http://www.w3.org/2000/svg"
   xmlns:svg="http://www.w3.org/2000/svg"><sodipodi:namedview
     id="namedview1"
     pagecolor="#ffffff"
     bordercolor="#000000"
     borderopacity="0.25"
     inkscape:showpageshadow="2"
     inkscape:pageopacity="0.0"
     inkscape:pagecheckerboard="0"
     inkscape:deskcolor="#d1d1d1"
     inkscape:document-units="px"
     showgrid="true"
     inkscape:zoom="4.2734328"
     inkscape:cx="77.10429"
     inkscape:cy="25.155421"
     inkscape:window-width="1768"
     inkscape:window-height="1046"
     inkscape:window-x="32"
     inkscape:window-y="44"
     inkscape:window-maximized="0"
     inkscape:current-layer="layer1"><inkscape:grid
       id="grid1"
       units="px"
       originx="0"
       originy="0.29398175"
       spacingx="0.26458333"
       spacingy="0.26458333"
       empcolor="#0099e5"
       empopacity="0.30196078"
       color="#0099e5"
       opacity="0.14901961"
       empspacing="5"
       enabled="true"
       visible="true" /></sodipodi:namedview><defs
     id="defs1" /><g
     inkscape:label="Layer 1"
     inkscape:groupmode="layer"
     id="layer1"
     transform="translate(0,0.29398176)"><rect
       style="fill:#ececec;fill-opacity:1;stroke:none;stroke-width:9.42095"
       id="rect2-1"
       width="60.854164"
       height="20.510105"
       x="0"
       y="-0.29398176"
       ry="0.29398176" /><text
       xml:space="preserve"
       style="font-weight:bold;font-size:7.55022px;line-height:6.79519px;font-family:'IBM Plex Sans';-inkscape-font-specification:'IBM Plex Sans Bold';text-align:center;text-decoration-color:#000000;writing-mode:lr-tb;direction:ltr;text-anchor:middle;opacity:1;fill:#000000;stroke-width:0.148409"
       x="31.320511"
       y="7.6376104"
       id="text1"><tspan
         sodipodi:role="line"
         id="tspan1"
         style="font-size:7.55022px;line-height:6.79519px;fill:#000000;stroke-width:0.148409"
         x="31.320511"
         y="7.6376104">MBTA TRACKER</tspan></text><g
       id="g1"
       transform="matrix(0.64234942,0,0,0.64234942,1.5619239,9.3130875)"><path
         id="path14245"
         d="M 5.5,0 C 5,0 5,0.5 5,0.5 v 1 C 5,1.777 5.223,2 5.5,2 5.777,2 6,1.777 6,1.5 V 1 H 7 V 3 H 6 C 6,3 4,3 4,5 v 3 c 0,3 3,3 3,3 h 1 c 0,0 3,0 3,-3 V 5 C 11,3 9,3 9,3 H 8 V 1 H 9 V 1.5 C 9,1.777 9.223,2 9.5,2 9.777,2 10,1.777 10,1.5 v -1 C 10,0 9.5,0 9.5,0 Z M 7.5,4 9.5449,4.7734 10,6.5 C 10.1316,7 9.5,7 9.5,7 h -4 C 5.5,7 4.8684,7 5,6.5 L 5.4551,4.7734 Z m 0,4 C 7.7761,8 8,8.2239 8,8.5 8,8.7761 7.7761,9 7.5,9 7.2239,9 7,8.7761 7,8.5 7,8.2239 7.2239,8 7.5,8 Z M 4.125,12 3,15 h 1.5 l 0.375,-1 h 5.25 L 10.5,15 H 12 l -1.125,-3 h -1.5 l 0.375,1 h -4.5 l 0.375,-1 z"
         style="fill:#008150;fill-opacity:1" /></g><g
       id="g2"
       transform="matrix(0.63558791,0,0,0.63558791,13.651617,9.3637987)"><path
         id="path5258"
         d="m 5.5,0 c 0,0 -0.75,0 -1,1 L 3,6.5 V 10 c 0,1 1,1 1,1 h 7 c 0,0 1,0 1,-1 V 6.5 L 10.5,1 C 10.2273,0 9.5,0 9.5,0 Z m 1,1.5 h 2 c 0,0 0.5357,0 0.75,1 L 10,6 C 10.2146,7.0017 9,7 9,7 H 6 C 6,7 4.7854,7.0017 5,6 L 5.75,2.5 c 0.2143,-1 0.75,-1 0.75,-1 z M 5,8 C 5.5523,8 6,8.4477 6,9 6,9.5523 5.5523,10 5,10 4.4477,10 4,9.5523 4,9 4,8.4477 4.4477,8 5,8 Z m 1.75,0 h 1.5 C 8.3885,8 8.5,8.1115 8.5,8.25 8.5,8.3885 8.3885,8.5 8.25,8.5 H 6.75 C 6.6115,8.5 6.5,8.3885 6.5,8.25 6.5,8.1115 6.6115,8 6.75,8 Z M 10,8 c 0.5523,0 1,0.4477 1,1 0,0.5523 -0.4477,1 -1,1 C 9.4477,10 9,9.5523 9,9 9,8.4477 9.4477,8 10,8 Z M 4.125,12 3,15 h 1.5 l 0.375,-1 h 5.25 L 10.5,15 H 12 l -1.125,-3 h -1.5 l 0.375,1 h -4.5 l 0.375,-1 z"
         style="fill:#fa2d27;fill-opacity:1" /></g><g
       id="g3"
       transform="matrix(0.63558791,0,0,0.63558791,25.74131,9.3637987)"><rect
         style="fill:#ececec;fill-opacity:1;stroke:none;stroke-width:4"
         id="rect2-8"
         width="15"
         height="15"
         x="0"
         y="0"
         ry="3.1535981" /><path
         id="path5258-3"
         d="m 5.5,0 c 0,0 -0.75,0 -1,1 L 3,6.5 V 10 c 0,1 1,1 1,1 h 7 c 0,0 1,0 1,-1 V 6.5 L 10.5,1 C 10.2273,0 9.5,0 9.5,0 Z m 1,1.5 h 2 c 0,0 0.5357,0 0.75,1 L 10,6 C 10.2146,7.0017 9,7 9,7 H 6 C 6,7 4.7854,7.0017 5,6 L 5.75,2.5 c 0.2143,-1 0.75,-1 0.75,-1 z M 5,8 C 5.5523,8 6,8.4477 6,9 6,9.5523 5.5523,10 5,10 4.4477,10 4,9.5523 4,9 4,8.4477 4.4477,8 5,8 Z m 1.75,0 h 1.5 C 8.3885,8 8.5,8.1115 8.5,8.25 8.5,8.3885 8.3885,8.5 8.25,8.5 H 6.75 C 6.6115,8.5 6.5,8.3885 6.5,8.25 6.5,8.1115 6.6115,8 6.75,8 Z M 10,8 c 0.5523,0 1,0.4477 1,1 0,0.5523 -0.4477,1 -1,1 C 9.4477,10 9,9.5523 9,9 9,8.4477 9.4477,8 10,8 Z M 4.125,12 3,15 h 1.5 l 0.375,-1 h 5.25 L 10.5,15 H 12 l -1.125,-3 h -1.5 l 0.375,1 h -4.5 l 0.375,-1 z"
         style="fill:#fd8a03;fill-opacity:1" /></g><g
       id="g4"
       transform="matrix(0.63558791,0,0,0.63558791,37.831002,9.3637987)"><rect
         style="fill:#ececec;fill-opacity:1;stroke:none;stroke-width:4"
         id="rect2-5"
         width="15"
         height="15"
         x="0"
         y="0"
         ry="3.1535981" /><path
         id="path5258-8"
         d="m 5.5,0 c 0,0 -0.75,0 -1,1 L 3,6.5 V 10 c 0,1 1,1 1,1 h 7 c 0,0 1,0 1,-1 V 6.5 L 10.5,1 C 10.2273,0 9.5,0 9.5,0 Z m 1,1.5 h 2 c 0,0 0.5357,0 0.75,1 L 10,6 C 10.2146,7.0017 9,7 9,7 H 6 C 6,7 4.7854,7.0017 5,6 L 5.75,2.5 c 0.2143,-1 0.75,-1 0.75,-1 z M 5,8 C 5.5523,8 6,8.4477 6,9 6,9.5523 5.5523,10 5,10 4.4477,10 4,9.5523 4,9 4,8.4477 4.4477,8 5,8 Z m 1.75,0 h 1.5 C 8.3885,8 8.5,8.1115 8.5,8.25 8.5,8.3885 8.3885,8.5 8.25,8.5 H 6.75 C 6.6115,8.5 6.5,8.3885 6.5,8.25 6.5,8.1115 6.6115,8 6.75,8 Z M 10,8 c 0.5523,0 1,0.4477 1,1 0,0.5523 -0.4477,1 -1,1 C 9.4477,10 9,9.5523 9,9 9,8.4477 9.4477,8 10,8 Z M 4.125,12 3,15 h 1.5 l 0.375,-1 h 5.25 L 10.5,15 H 12 l -1.125,-3 h -1.5 l 0.375,1 h -4.5 l 0.375,-1 z"
         style="fill:#2f5da6;fill-opacity:1" /></g><g
       id="g5"
       transform="matrix(0.63558791,0,0,0.63558791,49.920695,9.3637987)"><rect
         style="fill:#ececec;fill-opacity:1;stroke:none;stroke-width:4"
         id="rect2-13"
         width="15"
         height="15"
         x="0"
         y="0"
         ry="3.1535981" /><path
         d="M 3,1 C 2.4477,1 2,1.4477 2,2 v 8 c 0,0.5523 0.4477,1 1,1 h 9 c 0.5523,0 1,-0.4477 1,-1 V 2 C 13,1.4477 12.5523,1 12,1 Z m 2.75,0.5 h 0.00977 3.5 c 0.1381,0 0.25,0.1119 0.25,0.25 0,0.1381 -0.1119,0.25 -0.25,0.25 H 5.75 C 5.6119,2 5.5,1.8881 5.5,1.75 5.5,1.6119 5.6119,1.5 5.75,1.5 Z M 3.5,3 H 7 V 7 H 3.5 C 3.2239,7 3,6.7761 3,6.5 v -3 C 3,3.2239 3.2239,3 3.5,3 Z M 8,3 h 3.5 C 11.7761,3 12,3.2239 12,3.5 v 3 C 12,6.7761 11.7761,7 11.5,7 H 8 Z M 5,8 C 5.5523,8 6,8.4477 6,9 6,9.5523 5.5523,10 5,10 4.4477,10 4,9.5523 4,9 4,8.4477 4.4477,8 5,8 Z m 5,0 c 0.5523,0 1,0.4477 1,1 0,0.5523 -0.4477,1 -1,1 C 9.4477,10 9,9.5523 9,9 9,8.4477 9.4477,8 10,8 Z m 0.445312,3.994141 c -0.06471,0.0055 -0.130331,0.02444 -0.191406,0.05664 -0.2233,0.1176 -0.3236747,0.383141 -0.234375,0.619141 L 10.189453,13 H 4.8105469 l 0.1289062,-0.269531 c 0.0977,-0.2583 -0.032716,-0.546832 -0.2910156,-0.644531 -0.236,-0.0892 -0.5015406,0.01117 -0.6191406,0.234374 l -1,2 C 3.0080969,14.377912 2.9986,14.4387 3,14.5 3,14.7761 3.2239,15 3.5,15 3.6802,14.999 3.8450875,14.899434 3.9296875,14.740234 v -0.05078 H 4 L 4.3105469,14 H 10.689453 L 11,14.689453 v 0.05078 c 0.0846,0.1592 0.249488,0.258766 0.429688,0.259766 0.276099,0 0.5,-0.2239 0.5,-0.5 0.0199,-0.0788 0.0199,-0.161434 0,-0.240234 l -1,-2 c -0.09652,-0.183225 -0.290229,-0.282158 -0.484376,-0.265624 z"
         id="path3"
         style="fill:#7b388c;fill-opacity:1" /></g></g></svg>
