<?xml version="1.0" encoding="UTF-8" standalone="no"?>
<svg
   version="1.1"
   id="rail-metro"
   width="15"
   height="15"
   viewBox="0 0 15 15"
   sodipodi:docname="rail-metro-blue-stop.svg"
   inkscape:version="1.4 (e7c3feb1, 2024-10-09)"
   xmlns:inkscape="http://www.inkscape.org/namespaces/inkscape"
   xmlns:sodipodi="http://sodipodi.sourceforge.net/DTD/sodipodi-0.dtd"
   xmlns="http://www.w3.org/2000/svg"
   xmlns:svg="http://www.w3.org/2000/svg">
  <defs
     id="defs1" />
  <sodipodi:namedview
     id="namedview1"
     pagecolor="#ffffff"
     bordercolor="#000000"
     borderopacity="0.25"
     inkscape:showpageshadow="2"
     inkscape:pageopacity="0.0"
     inkscape:pagecheckerboard="0"
     inkscape:deskcolor="#d1d1d1"
     inkscape:zoom="33.633333"
     inkscape:cx="7.5222994"
     inkscape:cy="7.5074332"
     inkscape:window-width="1800"
     inkscape:window-height="1018"
     inkscape:window-x="0"
     inkscape:window-y="44"
     inkscape:window-maximized="0"
     inkscape:current-layer="rail-metro" />
  <ellipse
     style="fill:#ff0000;stroke:#ececec;stroke-width:0.5;stroke-dasharray:none;stroke-opacity:1"
     id="path2"
     cx="11.100054"
     cy="3.7531786"
     rx="3.6499462"
     ry="3.5031786" />
  <rect
     style="fill:#ececec;fill-opacity:1;stroke:none;stroke-width:3.35778"
     id="rect2"
     width="12.591675"
     height="12.591675"
     x="0"
     y="2.4083252"
     ry="2.6472721" />
  <path
     id="path5258"
     d="m 4.6169475,2.4083251 c 0,0 -0.6295838,0 -0.839445,0.839445 L 2.518335,7.8647176 v 2.9380574 c 0,0.839445 0.839445,0.839445 0.839445,0.839445 h 5.8761149 c 0,0 0.8394451,0 0.8394451,-0.839445 V 7.8647176 L 8.8141724,3.2477701 C 8.5852558,2.4083251 7.9747274,2.4083251 7.9747274,2.4083251 Z m 0.839445,1.2591675 h 1.6788899 c 0,0 0.4496907,0 0.6295838,0.839445 l 0.6295837,2.9380575 c 0.1801449,0.840872 -0.839445,0.839445 -0.839445,0.839445 H 5.03667 c 0,0 -1.0195899,0.00143 -0.839445,-0.839445 L 4.8268087,4.5069376 C 5.0067018,3.6674926 5.4563925,3.6674926 5.4563925,3.6674926 Z M 4.197225,9.123885 c 0.4636254,0 0.839445,0.3758196 0.839445,0.839445 0,0.463626 -0.3758196,0.839445 -0.839445,0.839445 -0.4636255,0 -0.839445,-0.375819 -0.839445,-0.839445 0,-0.4636254 0.3758195,-0.839445 0.839445,-0.839445 z m 1.4690287,0 h 1.2591675 c 0.1162631,0 0.2098612,0.093598 0.2098612,0.2098613 0,0.1162631 -0.093598,0.2098612 -0.2098612,0.2098612 H 5.6662537 c -0.1162631,0 -0.2098612,-0.093598 -0.2098612,-0.2098612 0,-0.1162631 0.093598,-0.2098613 0.2098612,-0.2098613 z m 2.7281962,0 c 0.4636255,0 0.839445,0.3758196 0.839445,0.839445 0,0.463626 -0.3758195,0.839445 -0.839445,0.839445 -0.4636254,0 -0.839445,-0.375819 -0.839445,-0.839445 0,-0.4636254 0.3758196,-0.839445 0.839445,-0.839445 z M 3.4627106,12.481665 2.518335,15 H 3.7775025 L 4.0922943,14.160555 H 8.4993806 L 8.8141724,15 H 10.07334 L 9.1289643,12.481665 H 7.8697968 L 8.1845887,13.32111 H 4.4070862 l 0.3147919,-0.839445 z"
     style="fill:#2f5da6;fill-opacity:1;stroke-width:0.839445" />
</svg>
