<?xml version="1.0" encoding="UTF-8" standalone="no"?>
<svg
   version="1.1"
   id="rail"
   width="15"
   height="15"
   viewBox="0 0 15 15"
   sodipodi:docname="rail-stop.svg"
   inkscape:version="1.4 (e7c3feb1, 2024-10-09)"
   xmlns:inkscape="http://www.inkscape.org/namespaces/inkscape"
   xmlns:sodipodi="http://sodipodi.sourceforge.net/DTD/sodipodi-0.dtd"
   xmlns="http://www.w3.org/2000/svg"
   xmlns:svg="http://www.w3.org/2000/svg">
  <defs
     id="defs1" />
  <sodipodi:namedview
     id="namedview1"
     pagecolor="#ffffff"
     bordercolor="#000000"
     borderopacity="0.25"
     inkscape:showpageshadow="2"
     inkscape:pageopacity="0.0"
     inkscape:pagecheckerboard="0"
     inkscape:deskcolor="#d1d1d1"
     inkscape:zoom="47.564716"
     inkscape:cx="7.4845395"
     inkscape:cy="7.4950515"
     inkscape:window-width="1800"
     inkscape:window-height="1018"
     inkscape:window-x="0"
     inkscape:window-y="44"
     inkscape:window-maximized="0"
     inkscape:current-layer="rail" />
  <ellipse
     style="fill:#ff0000;stroke:#ececec;stroke-width:0.5;stroke-dasharray:none;stroke-opacity:1"
     id="path2"
     cx="11.100054"
     cy="3.7531786"
     rx="3.6499462"
     ry="3.5031786" />
  <rect
     style="fill:#ececec;fill-opacity:1;stroke:none;stroke-width:3.27117"
     id="rect2"
     width="12.266882"
     height="12.266882"
     x="0"
     y="2.7331183"
     ry="2.5789876" />
  <path
     d="m 2.4533763,3.5509105 c -0.4516666,0 -0.8177921,0.3661255 -0.8177921,0.8177921 v 6.5423364 c 0,0.451667 0.3661255,0.817793 0.8177921,0.817793 h 7.360129 c 0.4516667,0 0.8177917,-0.366126 0.8177917,-0.817793 V 4.3687026 c 0,-0.4516666 -0.366125,-0.8177921 -0.8177917,-0.8177921 z m 2.2489283,0.408896 h 0.00799 2.8622723 c 0.1129371,0 0.2044481,0.091511 0.2044481,0.2044481 0,0.112937 -0.091511,0.204448 -0.2044481,0.204448 H 4.7023046 c -0.1129371,0 -0.204448,-0.091511 -0.204448,-0.204448 0,-0.1129371 0.091511,-0.2044481 0.204448,-0.2044481 z M 2.8622724,5.1864947 H 5.7245448 V 8.4576631 H 2.8622724 c -0.2257924,0 -0.4088961,-0.1831036 -0.4088961,-0.408896 V 5.5953907 c 0,-0.2257924 0.1831037,-0.408896 0.4088961,-0.408896 z m 3.6800645,0 h 2.8622724 c 0.2257924,0 0.408896,0.1831036 0.408896,0.408896 v 2.4533764 c 0,0.2257924 -0.1831036,0.408896 -0.408896,0.408896 H 6.5423369 Z M 4.0889605,9.2754552 c 0.4516666,0 0.8177922,0.3661256 0.8177922,0.8177918 0,0.451667 -0.3661256,0.817792 -0.8177922,0.817792 -0.4516665,0 -0.8177921,-0.366125 -0.8177921,-0.817792 0,-0.4516662 0.3661256,-0.8177918 0.8177921,-0.8177918 z m 4.0889606,0 c 0.4516666,0 0.8177921,0.3661256 0.8177921,0.8177918 0,0.451667 -0.3661255,0.817792 -0.8177921,0.817792 -0.4516666,0 -0.8177921,-0.366125 -0.8177921,-0.817792 0,-0.4516662 0.3661255,-0.8177918 0.8177921,-0.8177918 z m 0.3641726,3.2663768 c -0.052923,0.0045 -0.1065836,0.01999 -0.1565303,0.04632 -0.182613,0.09617 -0.2646986,0.31333 -0.19167,0.506329 l 0.1389609,0.269935 h -4.398827 l 0.1054185,-0.220421 c 0.079898,-0.211235 -0.026755,-0.447194 -0.2379903,-0.527092 -0.1929989,-0.07295 -0.4101559,0.0091 -0.5063283,0.191669 l -0.8177921,1.635585 c -0.017337,0.0471 -0.025104,0.09682 -0.023959,0.146947 C 2.4533763,14.816896 2.63648,15 2.8622724,15 c 0.1473661,-8.18e-4 0.2822098,-0.08224 0.351395,-0.212435 v -0.04153 h 0.057501 l 0.2539628,-0.563829 h 5.2166191 l 0.2539629,0.563829 v 0.04153 C 9.0648984,14.917758 9.1997425,14.999182 9.3471087,15 c 0.2257915,0 0.408896,-0.183104 0.408896,-0.408896 0.016273,-0.06444 0.016273,-0.13202 0,-0.196462 L 8.9382126,12.759058 c -0.078937,-0.14984 -0.237347,-0.230746 -0.3961189,-0.217226 z"
     id="path3"
     style="fill:#7b388c;fill-opacity:1;stroke-width:0.817792" />
</svg>
