<?xml version="1.0" encoding="UTF-8" standalone="no"?>
<svg
   version="1.1"
   id="rail-light"
   width="15"
   height="15"
   viewBox="0 0 15 15"
   sodipodi:docname="rail-light-stop.svg"
   inkscape:version="1.4 (e7c3feb1, 2024-10-09)"
   xmlns:inkscape="http://www.inkscape.org/namespaces/inkscape"
   xmlns:sodipodi="http://sodipodi.sourceforge.net/DTD/sodipodi-0.dtd"
   xmlns="http://www.w3.org/2000/svg"
   xmlns:svg="http://www.w3.org/2000/svg">
  <defs
     id="defs1" />
  <sodipodi:namedview
     id="namedview1"
     pagecolor="#ffffff"
     bordercolor="#000000"
     borderopacity="0.25"
     inkscape:showpageshadow="2"
     inkscape:pageopacity="0.0"
     inkscape:pagecheckerboard="0"
     inkscape:deskcolor="#d1d1d1"
     inkscape:zoom="33.633334"
     inkscape:cx="7.4925667"
     inkscape:cy="7.4777005"
     inkscape:window-width="1800"
     inkscape:window-height="1018"
     inkscape:window-x="0"
     inkscape:window-y="44"
     inkscape:window-maximized="0"
     inkscape:current-layer="rail-light" />
  <ellipse
     style="fill:#ff0000;stroke:#ececec;stroke-width:0.5;stroke-dasharray:none;stroke-opacity:1"
     id="path2"
     cx="11.100054"
     cy="3.7531786"
     rx="3.6499462"
     ry="3.5031786" />
  <rect
     style="fill:#ececec;fill-opacity:1;stroke:none;stroke-width:3.35778"
     id="rect2"
     width="12.591675"
     height="12.591675"
     x="0"
     y="2.408325"
     ry="2.6472721" />
  <path
     id="path14245"
     d="m 4.6169475,2.4083251 c -0.4197225,0 -0.4197225,0.4197225 -0.4197225,0.4197225 v 0.839445 c 0,0.2325262 0.1871962,0.4197225 0.4197225,0.4197225 0.2325262,0 0.4197225,-0.1871963 0.4197225,-0.4197225 V 3.2477701 H 5.876115 V 4.92666 H 5.03667 c 0,0 -1.67889,0 -1.67889,1.67889 v 2.518335 c 0,2.518335 2.518335,2.518335 2.518335,2.518335 H 6.71556 c 0,0 2.518335,0 2.518335,-2.518335 V 6.60555 c 0,-1.67889 -1.67889,-1.67889 -1.67889,-1.67889 H 6.71556 V 3.2477701 h 0.839445 v 0.4197225 c 0,0.2325262 0.1871962,0.4197225 0.4197225,0.4197225 0.2325262,0 0.4197225,-0.1871963 0.4197225,-0.4197225 v -0.839445 c 0,-0.4197225 -0.4197225,-0.4197225 -0.4197225,-0.4197225 z M 6.2958375,5.766105 8.0124185,6.4153318 8.39445,7.8647175 C 8.5049209,8.28444 7.9747275,8.28444 7.9747275,8.28444 h -3.35778 c 0,0 -0.5301935,0 -0.4197225,-0.4197225 L 4.5792564,6.4153318 Z m 0,3.35778 c 0.2317707,0 0.4197225,0.1879518 0.4197225,0.4197225 0,0.2317708 -0.1879518,0.4197225 -0.4197225,0.4197225 -0.2317708,0 -0.4197225,-0.1879517 -0.4197225,-0.4197225 0,-0.2317707 0.1879517,-0.4197225 0.4197225,-0.4197225 z M 3.4627106,12.481665 2.518335,15 H 3.7775025 L 4.0922944,14.160555 H 8.4993806 L 8.8141725,15 H 10.07334 L 9.1289643,12.481665 H 7.8697968 L 8.1845887,13.32111 H 4.4070862 l 0.3147919,-0.839445 z"
     style="fill:#008150;fill-opacity:1;stroke-width:0.839445" />
</svg>
